<svg width="175" height="50" viewBox="0 0 175 50" fill="none" xmlns="http://www.w3.org/2000/svg">
<rect width="175" height="50" rx="25" fill="#19AA33"/>
<path d="M32.7337 35.712C32.5691 35.712 32.3917 35.7057 32.2017 35.693C32.0117 35.6803 31.8154 35.6613 31.6127 35.636L31.7077 33.47C31.9104 33.4827 32.1004 33.4953 32.2777 33.508C32.4677 33.5207 32.6071 33.527 32.6957 33.527C33.1897 33.527 33.5824 33.3307 33.8737 32.938C34.1777 32.5453 34.3297 31.9943 34.3297 31.285V21.462H36.8757V31.285C36.8757 32.1463 36.6984 32.9127 36.3437 33.584C36.0017 34.2553 35.5204 34.7747 34.8997 35.142C34.2791 35.522 33.5571 35.712 32.7337 35.712ZM42.3903 31V28.796H44.5563V31H42.3903ZM39.8633 31V17.567H42.3903V31H39.8633ZM44.5563 31V28.796C44.7083 28.796 44.8097 28.8973 44.8603 29.1C44.911 29.29 44.9363 29.556 44.9363 29.898C44.9363 30.2273 44.911 30.4933 44.8603 30.696C44.8097 30.8987 44.7083 31 44.5563 31ZM44.5547 31V28.796H48.5827C49.1274 28.796 49.653 28.6947 50.1597 28.492C50.6664 28.2767 51.1287 27.998 51.5467 27.656C51.9774 27.3013 52.351 26.915 52.6677 26.497C52.997 26.0663 53.2504 25.6293 53.4277 25.186C53.6177 24.7427 53.7127 24.3247 53.7127 23.932V22.716L54.9287 24.73C54.27 24.3753 53.5987 24.1093 52.9147 23.932C52.2307 23.7547 51.5784 23.666 50.9577 23.666C50.3497 23.666 49.6974 23.7547 49.0007 23.932C48.3167 24.1093 47.6517 24.3753 47.0057 24.73L48.2217 22.716V23.932C48.2217 24.3247 48.3104 24.7427 48.4877 25.186C48.6777 25.6293 48.931 26.0663 49.2477 26.497C49.5644 26.915 49.938 27.3013 50.3687 27.656C50.7994 27.998 51.268 28.2767 51.7747 28.492C52.2814 28.6947 52.8007 28.796 53.3327 28.796H57.2467V31H54.1307C53.1427 31 52.218 30.8417 51.3567 30.525C50.4954 30.2083 49.7164 29.7903 49.0197 29.271C48.323 28.739 47.7214 28.1627 47.2147 27.542C46.7207 26.9087 46.3407 26.2817 46.0747 25.661C45.8087 25.0277 45.6757 24.4513 45.6757 23.932V22.849C46.2204 22.545 46.7967 22.2917 47.4047 22.089C48.0254 21.8863 48.6397 21.7343 49.2477 21.633C49.8684 21.519 50.4384 21.462 50.9577 21.462C51.4897 21.462 52.0597 21.519 52.6677 21.633C53.2757 21.7343 53.8837 21.8863 54.4917 22.089C55.1124 22.2917 55.695 22.545 56.2397 22.849V23.932C56.2397 24.4513 56.1067 25.0277 55.8407 25.661C55.5747 26.2817 55.1884 26.9087 54.6817 27.542C54.1877 28.1627 53.5924 28.739 52.8957 29.271C52.199 29.7903 51.42 30.2083 50.5587 30.525C49.6974 30.8417 48.7727 31 47.7847 31H44.5547ZM44.5547 31C44.4027 31 44.3014 30.8987 44.2507 30.696C44.2 30.4933 44.1747 30.2273 44.1747 29.898C44.1747 29.556 44.2 29.29 44.2507 29.1C44.3014 28.8973 44.4027 28.796 44.5547 28.796V31ZM57.2467 31V28.796C57.3987 28.796 57.5 28.8973 57.5507 29.1C57.6014 29.29 57.6267 29.556 57.6267 29.898C57.6267 30.2273 57.6014 30.4933 57.5507 30.696C57.5 30.8987 57.3987 31 57.2467 31ZM68.4181 31C67.8988 31 67.3794 30.905 66.8601 30.715C66.3534 30.5123 65.8848 30.2147 65.4541 29.822L67.0121 28.207C67.2654 28.4097 67.4998 28.5617 67.7151 28.663C67.9431 28.7517 68.1774 28.796 68.4181 28.796H71.9711L70.6601 29.993V25.775C70.6601 25.5723 70.6348 25.2683 70.5841 24.863C70.5461 24.445 70.4828 23.9763 70.3941 23.457C70.3181 22.925 70.2231 22.3867 70.1091 21.842L72.6171 21.462C72.7058 21.918 72.7881 22.431 72.8641 23.001C72.9528 23.5583 73.0288 24.0903 73.0921 24.597C73.1554 25.091 73.1871 25.4837 73.1871 25.775V31H68.4181ZM57.2461 31V28.796H60.0201L59.4501 29.385V23.4H61.9961V31H57.2461ZM61.9961 31V28.796H63.5351C63.9404 28.796 64.2508 28.739 64.4661 28.625C64.6814 28.4983 64.8271 28.2513 64.9031 27.884C64.9918 27.504 65.0361 26.9403 65.0361 26.193V22.45H67.5821V26.193C67.5821 27.3203 67.4364 28.2387 67.1451 28.948C66.8664 29.6573 66.4294 30.1767 65.8341 30.506C65.2388 30.8353 64.4724 31 63.5351 31H61.9961ZM57.2461 31C57.0941 31 56.9928 30.8987 56.9421 30.696C56.8914 30.4933 56.8661 30.2273 56.8661 29.898C56.8661 29.556 56.8914 29.29 56.9421 29.1C56.9928 28.8973 57.0941 28.796 57.2461 28.796V31ZM75.2805 31V28.796H84.9325L83.7165 30.05V17.567H86.2625V31H75.2805ZM77.9215 28.796V20.227H80.4485V28.796H77.9215ZM78.0545 18.65C77.8138 18.3587 77.6302 18.08 77.5035 17.814C77.3768 17.548 77.3135 17.263 77.3135 16.959C77.3135 16.5283 77.4275 16.142 77.6555 15.8C77.8835 15.4453 78.1812 15.173 78.5485 14.983C78.9158 14.7803 79.3212 14.679 79.7645 14.679C80.0052 14.679 80.2522 14.7107 80.5055 14.774C80.7588 14.8373 80.9742 14.9323 81.1515 15.059L80.5055 16.218C80.3915 16.1547 80.2775 16.1167 80.1635 16.104C80.0622 16.0787 79.9545 16.066 79.8405 16.066C79.5365 16.066 79.3022 16.1483 79.1375 16.313C78.9728 16.465 78.8905 16.674 78.8905 16.94C78.8905 17.092 78.9222 17.2377 78.9855 17.377C79.0488 17.5163 79.1438 17.6683 79.2705 17.833L78.0545 18.65ZM76.8955 18.802V17.415H81.4935V18.802H76.8955ZM89.3672 31V17.567H91.8942V31H89.3672ZM111.773 31V28.796H113.787V31H111.773ZM98.131 31V28.796H111.393L109.246 30.658V26.668C109.246 25.946 109.151 25.3697 108.961 24.939C108.771 24.4957 108.492 24.1727 108.125 23.97C107.77 23.7673 107.34 23.666 106.833 23.666C106.288 23.666 105.775 23.7737 105.294 23.989C104.813 24.2043 104.357 24.483 103.926 24.825C103.508 25.167 103.122 25.5343 102.767 25.927C102.412 26.3197 102.096 26.6997 101.817 27.067C101.538 27.4217 101.298 27.7257 101.095 27.979L100.525 26.136C101.044 25.4773 101.526 24.863 101.969 24.293C102.425 23.723 102.9 23.229 103.394 22.811C103.888 22.3803 104.433 22.051 105.028 21.823C105.623 21.5823 106.314 21.462 107.099 21.462C107.948 21.462 108.663 21.6077 109.246 21.899C109.841 22.1777 110.329 22.564 110.709 23.058C111.089 23.552 111.361 24.1093 111.526 24.73C111.691 25.3507 111.773 25.9967 111.773 26.668V31H98.131ZM99.442 28.796V17.567H101.969V28.796H99.442ZM113.787 31V28.796C113.939 28.796 114.04 28.8973 114.091 29.1C114.142 29.29 114.167 29.556 114.167 29.898C114.167 30.2273 114.142 30.4933 114.091 30.696C114.04 30.8987 113.939 31 113.787 31ZM127.025 31V28.796H129.02V31H127.025ZM113.782 31V28.796H127.044L124.897 30.658V26.668C124.897 25.946 124.802 25.3697 124.612 24.939C124.422 24.4957 124.144 24.1727 123.776 23.97C123.422 23.7673 122.991 23.666 122.484 23.666C121.94 23.666 121.427 23.7737 120.945 23.989C120.464 24.2043 120.008 24.483 119.577 24.825C119.159 25.167 118.773 25.5343 118.418 25.927C118.064 26.3197 117.747 26.6997 117.468 27.067C117.19 27.4217 116.949 27.7257 116.746 27.979L116.176 26.136C116.696 25.4773 117.177 24.863 117.62 24.293C118.076 23.723 118.551 23.229 119.045 22.811C119.539 22.3803 120.084 22.051 120.679 21.823C121.275 21.5823 121.965 21.462 122.75 21.462C123.599 21.462 124.315 21.6077 124.897 21.899C125.493 22.1777 125.98 22.564 126.36 23.058C126.74 23.552 127.013 24.1093 127.177 24.73C127.342 25.3507 127.424 25.9967 127.424 26.668V31H113.782ZM115.093 28.796V17.567H117.62V28.796H115.093ZM113.782 31C113.63 31 113.529 30.8987 113.478 30.696C113.428 30.4933 113.402 30.2273 113.402 29.898C113.402 29.556 113.428 29.29 113.478 29.1C113.529 28.8973 113.63 28.796 113.782 28.796V31ZM129.02 31V28.796C129.172 28.796 129.274 28.8973 129.324 29.1C129.375 29.29 129.4 29.556 129.4 29.898C129.4 30.2273 129.375 30.4933 129.324 30.696C129.274 30.8987 129.172 31 129.02 31ZM129.016 31V28.796H137.186L136.331 29.499V25.984C136.331 25.224 136.09 24.6477 135.609 24.255C135.14 23.8623 134.393 23.666 133.367 23.666C133.075 23.666 132.676 23.6913 132.17 23.742C131.663 23.78 131.112 23.8433 130.517 23.932L130.27 21.918C130.814 21.7913 131.365 21.6837 131.923 21.595C132.493 21.5063 133.05 21.462 133.595 21.462C134.633 21.462 135.545 21.6457 136.331 22.013C137.116 22.3677 137.73 22.8807 138.174 23.552C138.63 24.2233 138.858 25.034 138.858 25.984V31H129.016ZM129.016 31C128.864 31 128.762 30.8987 128.712 30.696C128.661 30.4933 128.636 30.2273 128.636 29.898C128.636 29.556 128.661 29.29 128.712 29.1C128.762 28.8973 128.864 28.796 129.016 28.796V31ZM132.303 19.961V17.795H134.849V19.961H132.303Z" fill="white"/>
</svg>
