<svg width="175" height="50" viewBox="0 0 175 50" fill="none" xmlns="http://www.w3.org/2000/svg">
<rect width="175" height="50" rx="25" fill="#19AA33"/>
<path d="M73.7509 35.712C72.6489 35.712 71.6609 35.5093 70.7869 35.104C69.9256 34.7113 69.2479 34.1603 68.7539 33.451C68.2599 32.7417 68.0129 31.9373 68.0129 31.038C68.0129 30.7847 68.0319 30.449 68.0699 30.031C68.1079 29.613 68.1586 29.1443 68.2219 28.625C68.2979 28.1057 68.3739 27.58 68.4499 27.048C68.5386 26.5033 68.6209 25.9777 68.6969 25.471L71.2049 25.813C71.0656 26.6617 70.9453 27.4407 70.8439 28.15C70.7553 28.8467 70.6856 29.442 70.6349 29.936C70.5843 30.43 70.5589 30.791 70.5589 31.019C70.5589 31.5257 70.6856 31.9627 70.9389 32.33C71.1923 32.6973 71.5533 32.9823 72.0219 33.185C72.5033 33.4003 73.0796 33.508 73.7509 33.508C74.4476 33.508 75.0113 33.4067 75.4419 33.204C75.8726 33.0013 76.1829 32.7227 76.3729 32.368C76.5756 32.0133 76.6769 31.6143 76.6769 31.171V17.567H79.2229V31.171C79.2229 32.083 78.9823 32.881 78.5009 33.565C78.0323 34.249 77.3863 34.7747 76.5629 35.142C75.7396 35.522 74.8023 35.712 73.7509 35.712ZM84.7751 31V28.796H86.9411V31H84.7751ZM82.2481 31V17.567H84.7751V31H82.2481ZM86.9411 31V28.796C87.0931 28.796 87.1944 28.8973 87.2451 29.1C87.2958 29.29 87.3211 29.556 87.3211 29.898C87.3211 30.2273 87.2958 30.4933 87.2451 30.696C87.1944 30.8987 87.0931 31 86.9411 31ZM98.1115 31C97.5921 31 97.0728 30.905 96.5535 30.715C96.0468 30.5123 95.5781 30.2147 95.1475 29.822L96.7055 28.207C96.9588 28.4097 97.1931 28.5617 97.4085 28.663C97.6365 28.7517 97.8708 28.796 98.1115 28.796H101.664L100.353 29.993V25.775C100.353 25.5723 100.328 25.2683 100.277 24.863C100.239 24.445 100.176 23.9763 100.087 23.457C100.011 22.925 99.9165 22.3867 99.8025 21.842L102.31 21.462C102.399 21.918 102.481 22.431 102.557 23.001C102.646 23.5583 102.722 24.0903 102.785 24.597C102.849 25.091 102.88 25.4837 102.88 25.775V31H98.1115ZM86.9395 31V28.796H89.7135L89.1435 29.385V23.4H91.6895V31H86.9395ZM91.6895 31V28.796H93.2285C93.6338 28.796 93.9441 28.739 94.1595 28.625C94.3748 28.4983 94.5205 28.2513 94.5965 27.884C94.6851 27.504 94.7295 26.9403 94.7295 26.193V22.45H97.2755V26.193C97.2755 27.3203 97.1298 28.2387 96.8385 28.948C96.5598 29.6573 96.1228 30.1767 95.5275 30.506C94.9321 30.8353 94.1658 31 93.2285 31H91.6895ZM86.9395 31C86.7875 31 86.6861 30.8987 86.6355 30.696C86.5848 30.4933 86.5595 30.2273 86.5595 29.898C86.5595 29.556 86.5848 29.29 86.6355 29.1C86.6861 28.8973 86.7875 28.796 86.9395 28.796V31ZM104.936 35.712C104.771 35.712 104.594 35.7057 104.404 35.693C104.214 35.6803 104.018 35.6613 103.815 35.636L103.91 33.47C104.113 33.4827 104.303 33.4953 104.48 33.508C104.67 33.5207 104.809 33.527 104.898 33.527C105.392 33.527 105.785 33.3307 106.076 32.938C106.38 32.5453 106.532 31.9943 106.532 31.285V21.462H109.078V31.285C109.078 32.1463 108.901 32.9127 108.546 33.584C108.204 34.2553 107.723 34.7747 107.102 35.142C106.481 35.522 105.759 35.712 104.936 35.712ZM112.065 31V17.567H114.592V31H112.065ZM112.179 36.681C111.939 36.3897 111.755 36.111 111.628 35.845C111.502 35.579 111.438 35.294 111.438 34.99C111.438 34.5593 111.552 34.1667 111.78 33.812C112.008 33.47 112.306 33.1977 112.673 32.995C113.041 32.805 113.446 32.71 113.889 32.71C114.13 32.71 114.377 32.7417 114.63 32.805C114.884 32.8683 115.099 32.9633 115.276 33.09L114.63 34.249C114.516 34.1857 114.402 34.1413 114.288 34.116C114.187 34.1033 114.079 34.097 113.965 34.097C113.661 34.097 113.427 34.173 113.262 34.325C113.098 34.4897 113.015 34.705 113.015 34.971C113.015 35.123 113.047 35.2687 113.11 35.408C113.174 35.5473 113.269 35.6993 113.395 35.864L112.179 36.681ZM111.02 36.833V35.446H115.618V36.833H111.02Z" fill="white"/>
</svg>
