<svg width="175" height="50" viewBox="0 0 175 50" fill="none" xmlns="http://www.w3.org/2000/svg">
<rect x="1.5" y="1.5" width="172" height="47" rx="23.5" fill="white"/>
<path d="M69.4687 35.712C68.3667 35.712 67.3787 35.5093 66.5047 35.104C65.6434 34.7113 64.9657 34.1603 64.4717 33.451C63.9777 32.7417 63.7307 31.9373 63.7307 31.038C63.7307 30.7847 63.7497 30.449 63.7877 30.031C63.8257 29.613 63.8764 29.1443 63.9397 28.625C64.0157 28.1057 64.0917 27.58 64.1677 27.048C64.2564 26.5033 64.3387 25.9777 64.4147 25.471L66.9227 25.813C66.7834 26.6617 66.663 27.4407 66.5617 28.15C66.473 28.8467 66.4034 29.442 66.3527 29.936C66.302 30.43 66.2767 30.791 66.2767 31.019C66.2767 31.5257 66.4034 31.9627 66.6567 32.33C66.91 32.6973 67.271 32.9823 67.7397 33.185C68.221 33.4003 68.7974 33.508 69.4687 33.508C70.1654 33.508 70.729 33.4067 71.1597 33.204C71.5904 33.0013 71.9007 32.7227 72.0907 32.368C72.2934 32.0133 72.3947 31.6143 72.3947 31.171V17.567H74.9407V31.171C74.9407 32.083 74.7 32.881 74.2187 33.565C73.75 34.249 73.104 34.7747 72.2807 35.142C71.4574 35.522 70.52 35.712 69.4687 35.712ZM80.4929 31V28.796H82.6589V31H80.4929ZM77.9659 31V17.567H80.4929V31H77.9659ZM82.6589 31V28.796C82.8109 28.796 82.9122 28.8973 82.9629 29.1C83.0135 29.29 83.0389 29.556 83.0389 29.898C83.0389 30.2273 83.0135 30.4933 82.9629 30.696C82.9122 30.8987 82.8109 31 82.6589 31ZM93.8292 31C93.3099 31 92.7906 30.905 92.2712 30.715C91.7646 30.5123 91.2959 30.2147 90.8652 29.822L92.4232 28.207C92.6766 28.4097 92.9109 28.5617 93.1262 28.663C93.3542 28.7517 93.5886 28.796 93.8292 28.796H97.3822L96.0712 29.993V25.775C96.0712 25.5723 96.0459 25.2683 95.9952 24.863C95.9572 24.445 95.8939 23.9763 95.8052 23.457C95.7292 22.925 95.6342 22.3867 95.5202 21.842L98.0282 21.462C98.1169 21.918 98.1992 22.431 98.2752 23.001C98.3639 23.5583 98.4399 24.0903 98.5032 24.597C98.5666 25.091 98.5982 25.4837 98.5982 25.775V31H93.8292ZM82.6572 31V28.796H85.4312L84.8612 29.385V23.4H87.4072V31H82.6572ZM87.4072 31V28.796H88.9462C89.3516 28.796 89.6619 28.739 89.8772 28.625C90.0926 28.4983 90.2382 28.2513 90.3142 27.884C90.4029 27.504 90.4472 26.9403 90.4472 26.193V22.45H92.9932V26.193C92.9932 27.3203 92.8476 28.2387 92.5562 28.948C92.2776 29.6573 91.8406 30.1767 91.2452 30.506C90.6499 30.8353 89.8836 31 88.9462 31H87.4072ZM82.6572 31C82.5052 31 82.4039 30.8987 82.3532 30.696C82.3026 30.4933 82.2772 30.2273 82.2772 29.898C82.2772 29.556 82.3026 29.29 82.3532 29.1C82.4039 28.8973 82.5052 28.796 82.6572 28.796V31ZM100.654 35.712C100.489 35.712 100.312 35.7057 100.122 35.693C99.9316 35.6803 99.7353 35.6613 99.5326 35.636L99.6276 33.47C99.8303 33.4827 100.02 33.4953 100.198 33.508C100.388 33.5207 100.527 33.527 100.616 33.527C101.11 33.527 101.502 33.3307 101.794 32.938C102.098 32.5453 102.25 31.9943 102.25 31.285V21.462H104.796V31.285C104.796 32.1463 104.618 32.9127 104.264 33.584C103.922 34.2553 103.44 34.7747 102.82 35.142C102.199 35.522 101.477 35.712 100.654 35.712ZM107.783 31V17.567H110.31V31H107.783ZM107.897 36.681C107.657 36.3897 107.473 36.111 107.346 35.845C107.22 35.579 107.156 35.294 107.156 34.99C107.156 34.5593 107.27 34.1667 107.498 33.812C107.726 33.47 108.024 33.1977 108.391 32.995C108.759 32.805 109.164 32.71 109.607 32.71C109.848 32.71 110.095 32.7417 110.348 32.805C110.602 32.8683 110.817 32.9633 110.994 33.09L110.348 34.249C110.234 34.1857 110.12 34.1413 110.006 34.116C109.905 34.1033 109.797 34.097 109.683 34.097C109.379 34.097 109.145 34.173 108.98 34.325C108.816 34.4897 108.733 34.705 108.733 34.971C108.733 35.123 108.765 35.2687 108.828 35.408C108.892 35.5473 108.987 35.6993 109.113 35.864L107.897 36.681ZM106.738 36.833V35.446H111.336V36.833H106.738Z" fill="#19AA33"/>
<rect x="1.5" y="1.5" width="172" height="47" rx="23.5" stroke="#19AA33" stroke-width="3"/>
</svg>
