<svg width="122" height="60" viewBox="0 0 122 60" fill="none" xmlns="http://www.w3.org/2000/svg">
<path d="M120.133 30C120.133 46.071 107.098 59.1 91.0165 59.1C74.9354 59.1 61.9 46.071 61.9 30C61.9 13.929 74.9354 0.9 91.0165 0.9C107.098 0.9 120.133 13.929 120.133 30Z" fill="white" stroke="#19AA33" stroke-width="1.8"/>
<g clip-path="url(#clip0_47_134)">
<path d="M95.7875 26C95.5636 25.3646 95.1546 24.8108 94.6133 24.4099C94.072 24.0089 93.423 23.7791 92.75 23.75H88.25C87.3549 23.75 86.4964 24.1056 85.8635 24.7385C85.2306 25.3714 84.875 26.2299 84.875 27.125C84.875 28.0201 85.2306 28.8786 85.8635 29.5115C86.4964 30.1444 87.3549 30.5 88.25 30.5H92.75C93.6451 30.5 94.5036 30.8556 95.1365 31.4885C95.7694 32.1214 96.125 32.9799 96.125 33.875C96.125 34.7701 95.7694 35.6286 95.1365 36.2615C94.5036 36.8944 93.6451 37.25 92.75 37.25H88.25C87.577 37.2209 86.928 36.9911 86.3867 36.5901C85.8454 36.1892 85.4364 35.6354 85.2125 35" stroke="#19AA33" stroke-width="2.2" stroke-linecap="round" stroke-linejoin="round"/>
<path d="M90.5 37.25V40.625M90.5 20.375V23.75V20.375Z" stroke="#19AA33" stroke-width="2.2" stroke-linecap="round" stroke-linejoin="round"/>
</g>
<ellipse cx="30.0165" cy="30" rx="30.0165" ry="30" fill="#19AA33"/>
<g clip-path="url(#clip1_47_134)">
<path d="M34.7875 26C34.5636 25.3646 34.1546 24.8108 33.6133 24.4099C33.072 24.0089 32.423 23.7791 31.75 23.75H27.25C26.3549 23.75 25.4964 24.1056 24.8635 24.7385C24.2306 25.3714 23.875 26.2299 23.875 27.125C23.875 28.0201 24.2306 28.8786 24.8635 29.5115C25.4964 30.1444 26.3549 30.5 27.25 30.5H31.75C32.6451 30.5 33.5036 30.8556 34.1365 31.4885C34.7694 32.1214 35.125 32.9799 35.125 33.875C35.125 34.7701 34.7694 35.6286 34.1365 36.2615C33.5036 36.8944 32.6451 37.25 31.75 37.25H27.25C26.577 37.2209 25.928 36.9911 25.3867 36.5901C24.8454 36.1892 24.4364 35.6354 24.2125 35" stroke="white" stroke-width="2.2" stroke-linecap="round" stroke-linejoin="round"/>
<path d="M29.5 37.25V40.625M29.5 20.375V23.75V20.375Z" stroke="white" stroke-width="2.2" stroke-linecap="round" stroke-linejoin="round"/>
</g>
<defs>
<clipPath id="clip0_47_134">
<rect width="27" height="27" fill="white" transform="translate(77 17)"/>
</clipPath>
<clipPath id="clip1_47_134">
<rect width="27" height="27" fill="white" transform="translate(16 17)"/>
</clipPath>
</defs>
</svg>
