<svg width="178" height="178" viewBox="0 0 178 178" fill="none" xmlns="http://www.w3.org/2000/svg">
<g filter="url(#filter0_d_1_192)">
<rect x="18" y="16" width="142" height="142" rx="71" fill="white"/>
<g clip-path="url(#clip0_1_192)">
<path d="M118.51 68.354H65.574C64.3811 68.354 63.414 69.3211 63.414 70.514V108.202C63.414 109.395 64.3811 110.362 65.574 110.362H118.51C119.703 110.362 120.67 109.395 120.67 108.202V70.514C120.67 69.3211 119.703 68.354 118.51 68.354Z" fill="#D1EDD6"/>
<path d="M60.87 67.646V105.25C60.87 105.489 60.9648 105.718 61.1336 105.886C61.3024 106.055 61.5313 106.15 61.77 106.15H115.23C115.469 106.15 115.698 106.055 115.866 105.886C116.035 105.718 116.13 105.489 116.13 105.25V67.646C116.13 67.4073 116.035 67.1784 115.866 67.0096C115.698 66.8408 115.469 66.746 115.23 66.746H61.77C61.5313 66.746 61.3024 66.8408 61.1336 67.0096C60.9648 67.1784 60.87 67.4073 60.87 67.646ZM60.87 64.06H116.13C117.63 64.06 118.847 65.263 118.847 66.746V106.15C118.847 107.634 117.63 108.837 116.129 108.837H60.871C59.37 108.837 58.153 107.634 58.153 106.15V66.746C58.153 65.263 59.37 64.06 60.871 64.06H60.87Z" fill="#19AA33"/>
<path d="M69.445 71.247C68.9212 71.2467 68.4185 71.4534 68.0464 71.822C67.6742 72.1906 67.4627 72.6912 67.458 73.215V98.606C67.458 99.702 68.348 100.59 69.445 100.59C69.9715 100.59 70.4766 100.381 70.8493 100.009C71.2219 99.6373 71.4315 99.1326 71.432 98.606V73.215C71.4273 72.6912 71.2158 72.1906 70.8436 71.822C70.4715 71.4534 69.9688 71.2467 69.445 71.247ZM78.724 71.247C78.2002 71.2467 77.6975 71.4534 77.3254 71.822C76.9532 72.1906 76.7417 72.6912 76.737 73.215V98.606C76.737 99.702 77.627 100.59 78.724 100.59C78.9848 100.59 79.2431 100.539 79.4842 100.44C79.7252 100.34 79.9443 100.194 80.1289 100.01C80.3135 99.8255 80.46 99.6067 80.5601 99.3659C80.6601 99.125 80.7117 98.8668 80.712 98.606V73.215C80.7073 72.6911 80.4956 72.1902 80.1233 71.8216C79.7509 71.453 79.248 71.2465 78.724 71.247ZM88.003 71.247C87.4792 71.2467 86.9765 71.4534 86.6044 71.822C86.2322 72.1906 86.0207 72.6912 86.016 73.215V98.606C86.016 99.702 86.906 100.59 88.003 100.59C88.2638 100.59 88.5221 100.539 88.7632 100.44C89.0042 100.34 89.2233 100.194 89.4079 100.01C89.5925 99.8255 89.739 99.6067 89.8391 99.3659C89.9391 99.125 89.9907 98.8668 89.991 98.606V73.215C89.9863 72.6911 89.7746 72.1902 89.4023 71.8216C89.0299 71.453 88.527 71.2465 88.003 71.247ZM97.282 71.247C96.7582 71.2467 96.2555 71.4534 95.8834 71.822C95.5112 72.1906 95.2997 72.6912 95.295 73.215V98.606C95.295 99.702 96.185 100.59 97.282 100.59C97.5428 100.59 97.8011 100.539 98.0422 100.44C98.2832 100.34 98.5023 100.194 98.6869 100.01C98.8715 99.8255 99.018 99.6067 99.1181 99.3659C99.2181 99.125 99.2697 98.8668 99.27 98.606V73.215C99.2653 72.6911 99.0536 72.1902 98.6813 71.8216C98.3089 71.453 97.806 71.2465 97.282 71.247Z" fill="white"/>
<path d="M51.473 64.432C51.8629 64.4315 52.2367 64.2765 52.5126 64.001C52.7885 63.7255 52.9439 63.3519 52.945 62.962V59.846C52.945 59.348 53.348 58.943 53.847 58.94H56.975C57.788 58.94 58.448 58.282 58.448 57.47C58.448 56.658 57.788 56 56.975 56H53.847C52.8271 56.0008 51.8492 56.4062 51.128 57.1273C50.4067 57.8483 50.0011 58.8261 50 59.846V62.968C50.003 63.778 50.662 64.432 51.473 64.432ZM56.975 112.873H53.847C53.6076 112.872 53.3783 112.776 53.2093 112.607C53.0403 112.437 52.9453 112.207 52.945 111.968V108.85C52.945 108.038 52.286 107.38 51.473 107.38C50.659 107.38 50 108.038 50 108.85V111.973C50.0013 112.993 50.4071 113.97 51.1283 114.691C51.8496 115.412 52.8273 115.817 53.847 115.818H56.975C57.788 115.818 58.448 115.16 58.448 114.348C58.448 113.536 57.788 112.878 56.975 112.878V112.873ZM125.527 107.381C124.714 107.381 124.055 108.039 124.055 108.851V111.974C124.055 112.213 123.96 112.443 123.791 112.613C123.622 112.782 123.392 112.878 123.153 112.879H120.025C119.212 112.879 118.552 113.537 118.552 114.349C118.552 115.161 119.212 115.819 120.025 115.819H123.153C124.175 115.818 125.154 115.411 125.876 114.689C126.233 114.332 126.516 113.907 126.709 113.44C126.902 112.974 127.001 112.473 127 111.968V108.85C127 108.038 126.34 107.381 125.527 107.381ZM123.153 56H120.025C119.212 56 118.552 56.658 118.552 57.47C118.552 58.282 119.212 58.94 120.025 58.94H123.153C123.393 58.9411 123.622 59.037 123.791 59.2068C123.96 59.3766 124.055 59.6064 124.055 59.846V62.968C124.055 63.78 124.714 64.438 125.527 64.438C126.341 64.438 127 63.78 127 62.968V59.846C126.999 58.8261 126.593 57.8483 125.872 57.1273C125.151 56.4062 124.173 56.0008 123.153 56Z" fill="#19AA33"/>
<path d="M106.562 71.247C106.301 71.2467 106.043 71.2979 105.802 71.3974C105.561 71.497 105.342 71.643 105.157 71.8273C104.972 72.0115 104.826 72.2303 104.726 72.4712C104.626 72.712 104.574 72.9702 104.574 73.231V98.606C104.574 99.702 105.464 100.59 106.562 100.59C107.089 100.59 107.594 100.381 107.966 100.009C108.339 99.6373 108.548 99.1326 108.549 98.606V73.215C108.544 72.6912 108.333 72.1906 107.961 71.822C107.588 71.4534 107.086 71.2467 106.562 71.247Z" fill="white"/>
</g>
</g>
<defs>
<filter id="filter0_d_1_192" x="0" y="0" width="178" height="178" filterUnits="userSpaceOnUse" color-interpolation-filters="sRGB">
<feFlood flood-opacity="0" result="BackgroundImageFix"/>
<feColorMatrix in="SourceAlpha" type="matrix" values="0 0 0 0 0 0 0 0 0 0 0 0 0 0 0 0 0 0 127 0" result="hardAlpha"/>
<feMorphology radius="2" operator="dilate" in="SourceAlpha" result="effect1_dropShadow_1_192"/>
<feOffset dy="2"/>
<feGaussianBlur stdDeviation="8"/>
<feComposite in2="hardAlpha" operator="out"/>
<feColorMatrix type="matrix" values="0 0 0 0 0 0 0 0 0 0 0 0 0 0 0 0 0 0 0.067 0"/>
<feBlend mode="normal" in2="BackgroundImageFix" result="effect1_dropShadow_1_192"/>
<feBlend mode="normal" in="SourceGraphic" in2="effect1_dropShadow_1_192" result="shape"/>
</filter>
<clipPath id="clip0_1_192">
<rect width="80" height="142" fill="white" transform="translate(49 16)"/>
</clipPath>
</defs>
</svg>
