<svg width="249" height="64" viewBox="0 0 249 64" fill="none" xmlns="http://www.w3.org/2000/svg">
<rect x="0.5" y="0.5" width="248" height="63" rx="11.5" fill="#F8F9F2"/>
<path d="M45.0265 53.5645H57.7759L63.647 45.3988L64.999 41.7231L57.7243 36.5095L46.9835 35.9681L40.1557 38.8353L37.8354 41.7873L45.0265 53.5645Z" fill="#DDEBCA"/>
<path d="M56.7319 54.0232H36.5543C36.8901 53.7812 36.9714 53.4567 36.937 53.0507C36.8981 52.5862 36.9279 52.1148 36.9279 51.7031C37.4939 51.4978 38.0553 51.3281 38.5847 51.0907C38.6647 51.0571 38.7369 51.0072 38.7967 50.9442C38.8564 50.8812 38.9025 50.8065 38.9319 50.7248C38.9613 50.6431 38.9734 50.5561 38.9675 50.4695C38.9616 50.3828 38.9377 50.2983 38.8975 50.2214C38.7291 49.8979 38.406 49.8027 38.0118 49.9576C37.7723 50.0516 37.5374 50.1617 37.2922 50.2328C36.3149 50.5161 35.373 50.3991 34.4518 49.9805C34.0267 49.7878 33.6497 49.9209 33.5042 50.2707C33.369 50.5918 33.5329 50.9496 33.9236 51.1434C34.142 51.249 34.367 51.3402 34.5973 51.4164C34.9147 51.5242 35.3742 51.5219 35.5243 51.7387C35.6973 51.9898 35.5999 52.4268 35.6205 52.7846C35.6469 53.2353 35.6125 53.7021 36.0364 54.0221H23.6618C23.9986 53.7342 24.1201 53.4096 23.9322 52.967C23.2786 51.3766 22.8245 49.7112 22.5801 48.0091C22.4438 47.0801 22.3659 46.1431 22.2559 45.1602H22.8437C28.0571 45.1602 33.2705 45.1568 38.4839 45.1499C38.6423 45.1367 38.8011 45.1701 38.9408 45.2461C39.0805 45.3222 39.1949 45.4374 39.2699 45.5777C40.7365 47.8359 42.2226 50.0803 43.6996 52.3316C44.3229 53.2812 45.1708 53.8558 46.328 53.8592C49.7082 53.8699 53.0883 53.8699 56.4684 53.8592" fill="#19AA33"/>
<path d="M22.3423 16.6447C22.3423 16.6447 23.6027 15.1641 24.509 14.5665C25.4153 13.969 24.509 16.7972 24.509 16.7972L22.3423 16.6447Z" fill="#F5CCA1"/>
<path d="M38.8745 9.98354C39.0312 10.057 39.16 10.1791 39.2415 10.3318C39.3231 10.4844 39.3531 10.6593 39.3271 10.8304C39.3065 11.0722 39.3271 11.3175 39.3271 11.5604C39.3271 12.5735 39.8061 13.1774 40.8167 13.3264C41.3781 13.4089 41.9625 13.3734 42.5354 13.3825C43.6491 13.3997 44.7685 13.3172 45.8582 13.6312C49.0951 14.5572 51.3924 17.6043 51.4005 21.0354C51.4112 25.6476 51.4142 30.2598 51.4096 34.872C51.4096 35.0393 51.4096 35.2066 51.4096 35.3464C52.4523 35.461 53.4526 35.5195 54.4357 35.6822C57.6799 36.2197 60.7632 37.4754 63.46 39.3574C64.2965 39.9304 64.7353 40.7555 65 41.6998V42.8171C64.7594 43.7797 64.1842 44.5647 63.648 45.3726C62.8952 46.5049 62.1584 47.6451 61.4033 48.7796C61.1237 49.2014 60.7674 49.3205 60.434 49.1166C60.0811 48.9 60.0387 48.5172 60.3297 48.0726C61.2876 46.6126 62.2474 45.1537 63.2091 43.696C64.0685 42.3862 63.8359 41.1657 62.5296 40.2936C58.9994 37.9363 55.1358 36.5967 50.8596 36.7308C46.8608 36.8557 43.2469 38.2068 39.9837 40.4942C38.9719 41.2035 38.8001 42.4939 39.5162 43.5883C40.7204 45.4345 41.9396 47.2715 43.1518 49.112C43.703 49.9485 44.2598 50.7817 44.8029 51.624C45.2097 52.2554 45.77 52.5797 46.5274 52.5407C46.5845 52.5359 46.642 52.5359 46.6992 52.5407C47.4704 52.6393 48.0054 52.5304 48.293 51.6068C48.5806 50.6831 49.401 50.1537 50.3245 49.8271C50.558 49.7419 50.7586 49.5851 50.8975 49.379C52.8346 46.2695 54.7615 43.1536 56.678 40.0312C56.9072 39.6633 57.1948 39.4192 57.652 39.4525C57.8679 39.4643 58.0769 39.5328 58.2579 39.6511C58.439 39.7694 58.5857 39.9333 58.6832 40.1263C58.8848 40.4862 58.8058 40.8334 58.6534 41.1944C57.2979 44.41 55.9562 47.6302 54.5915 50.8424C54.4494 51.177 54.4265 51.444 54.6099 51.7592C54.7428 51.9884 54.8012 52.2611 54.8975 52.5247C55.4921 52.5247 56.0799 52.5545 56.6631 52.5155C57.2097 52.48 57.6233 52.1717 57.9235 51.7133C58.2134 51.287 58.4873 50.8504 58.7771 50.4241C59.0269 50.0585 59.3787 49.9657 59.6938 50.156C60.0089 50.3462 60.0937 50.7393 59.8462 51.1278C59.5391 51.6102 59.232 52.095 58.8929 52.5568C58.2971 53.3693 57.4847 53.8174 56.4729 53.8174C53.0928 53.8273 49.7127 53.8273 46.3326 53.8174C45.1765 53.8174 44.3274 53.2444 43.7041 52.2909C42.2272 50.0414 40.7399 47.7987 39.2744 45.5422C39.1994 45.402 39.085 45.2869 38.9453 45.2109C38.8057 45.135 38.6468 45.1015 38.4884 45.1148C33.275 45.1293 28.0616 45.1327 22.8482 45.1251H22.2604C22.375 46.1083 22.4483 47.0446 22.5846 47.9717C22.829 49.6726 23.2832 51.3366 23.9367 52.9258C24.12 53.3681 24.0032 53.6913 23.6663 53.9801H23.2366C23.0716 53.7933 22.8413 53.6363 22.7508 53.4174C22.0828 51.8062 21.6104 50.1206 21.3437 48.3969C21.2097 47.5397 21.1146 46.6779 21 45.815V20.1255C21.0335 20.0193 21.0614 19.9114 21.0836 19.8023C21.2509 18.6654 21.6826 17.5836 22.344 16.644C22.5732 16.3139 22.9456 16.2452 23.2446 16.4457C23.5437 16.6463 23.5998 16.9832 23.4268 17.3201C23.3919 17.3832 23.3537 17.4445 23.3122 17.5035C22.6351 18.5239 22.2788 19.7236 22.289 20.9483C22.289 26.449 22.289 31.9478 22.289 37.4447C22.289 37.541 22.3085 37.6372 22.3211 37.761C22.713 37.0024 23.0498 36.2712 23.4555 35.5836C23.8611 34.8961 24.3572 34.2257 24.7926 33.5369C24.8821 33.3783 24.9279 33.1988 24.9255 33.0166C24.9358 31.7286 24.9416 30.4393 24.9255 29.1501C24.914 28.9137 24.8344 28.6857 24.6964 28.4934C23.2962 26.5556 23.2148 23.937 24.5738 21.9705C24.9429 21.4293 25.2381 20.8412 25.4514 20.2217C25.566 19.9123 25.6806 19.6041 25.7952 19.2958L27.444 14.7886C26.5904 14.9181 25.872 15.247 25.1822 15.6573C24.7949 15.8865 24.4099 15.8051 24.2117 15.4728C24.0261 15.1611 24.1372 14.7955 24.5119 14.564C25.5993 13.8902 26.7703 13.4456 28.0639 13.4043C29.0791 13.3711 30.0965 13.3894 31.1129 13.3802C32.3561 13.3699 33.0298 12.6995 33.0309 11.479C33.0309 11.2647 33.0481 11.0482 33.0309 10.835C33.005 10.6642 33.0336 10.4895 33.1129 10.336C33.1921 10.1824 33.3178 10.0579 33.4721 9.9801H33.9017C34.0557 10.0733 34.1783 10.2103 34.2539 10.3737C34.3294 10.537 34.3544 10.7192 34.3257 10.8969C34.3128 11.0682 34.3128 11.2402 34.3257 11.4114C34.4036 12.9115 33.7528 13.9326 32.3435 14.4735C32.2818 14.5067 32.2289 14.554 32.1891 14.6116C32.1493 14.6691 32.1236 14.7353 32.1143 14.8047C32.1028 16.6509 32.0639 18.4982 32.1235 20.3421C32.1922 22.4713 33.8891 24.0871 36.0822 24.2144C38.1023 24.3289 40.0696 22.8518 40.2426 20.7936C40.4156 18.7354 40.2804 16.652 40.2804 14.5514C40.2449 14.5365 40.1659 14.4999 40.0891 14.4712C38.666 13.9441 38.0461 13.0582 38.0438 11.5489C38.0438 11.3347 38.0587 11.1181 38.0438 10.9049C38.0199 10.7287 38.0461 10.5493 38.1192 10.3872C38.1923 10.2251 38.3095 10.0868 38.4575 9.98812L38.8745 9.98354ZM26.2421 32.9238H46.179V29.9786C45.9797 30.0841 45.8353 30.1654 45.6818 30.2411C44.8656 30.6654 43.9582 30.8841 43.0384 30.8782C42.6465 30.8714 42.399 30.6433 42.3761 30.2915C42.3532 29.9397 42.5732 29.6704 42.949 29.6039C43.0636 29.5844 43.1782 29.5913 43.2928 29.5821C45.0814 29.424 46.4128 28.5645 47.1495 26.9212C47.8863 25.2778 47.625 23.7433 46.548 22.3212C46.3661 22.0848 46.2191 21.8235 46.1114 21.5454C45.3013 19.376 44.5073 17.1998 43.7052 15.0293C43.6548 14.8929 43.515 14.697 43.4062 14.6855C42.8333 14.6523 42.2466 14.6695 41.6336 14.6695C41.6336 14.8849 41.6336 15.0396 41.6336 15.1955C41.6336 16.8136 41.6417 18.4317 41.6279 20.0499C41.6294 20.4645 41.5872 20.8782 41.5019 21.2841C40.8843 24.0344 38.3841 25.7534 35.5024 25.4486C32.8889 25.1678 30.8321 22.8243 30.8184 20.0991C30.8104 18.4523 30.8184 16.8056 30.8184 15.1588C30.8184 15.0064 30.8184 14.854 30.8184 14.666C30.2776 14.666 29.7872 14.6844 29.3082 14.6591C28.9908 14.6431 28.8373 14.7359 28.7227 15.0557C27.9413 17.233 27.1392 19.4104 26.3291 21.5774C26.2281 21.8432 26.0854 22.0912 25.9063 22.312C25.2597 23.0991 24.9056 24.086 24.9044 25.1047C24.9031 26.1234 25.2547 27.1111 25.8995 27.8998C26.784 28.9782 27.9378 29.5271 29.3369 29.5833C29.8261 29.6028 30.1149 29.8847 30.0862 30.28C30.0576 30.6754 29.778 30.8748 29.2922 30.8702C28.4596 30.8566 27.6405 30.6582 26.894 30.2892C26.6935 30.1929 26.4964 30.0898 26.2604 29.9729L26.2421 32.9238ZM22.2913 43.8267H38.1114C38.1087 43.7673 38.0991 43.7085 38.0828 43.6514C37.4102 42.1054 37.927 40.257 39.5425 39.2027C41.4521 37.935 43.5365 36.9532 45.7299 36.2884C46.3555 36.1028 46.9903 35.9515 47.6949 35.7659C47.3661 35.3143 47.0854 34.8869 46.7577 34.5053C46.6199 34.3563 46.4298 34.2663 46.2272 34.2543C39.5677 34.2421 32.9083 34.2421 26.2489 34.2543C26.1426 34.2589 26.0385 34.2862 25.9436 34.3345C25.8487 34.3827 25.7653 34.4507 25.6989 34.5339C25.0115 35.6558 24.2942 36.764 23.7293 37.9455C22.8505 39.7745 22.399 41.7364 22.2913 43.8255V43.8267ZM50.0954 35.4507C50.1057 35.3361 50.1194 35.249 50.1194 35.1654C50.1194 30.3832 50.1195 25.6021 50.1057 20.82C50.1045 19.5931 49.7203 18.3972 49.0069 17.3992C48.0375 16.0183 46.7153 15.1622 45.0264 14.7932C45.0389 14.8771 45.0565 14.9601 45.0791 15.0419C45.8269 17.0818 46.5766 19.1205 47.3283 21.158C47.389 21.3028 47.4717 21.4373 47.5735 21.5568C49.204 23.6196 49.2521 26.3906 47.7041 28.5358C47.5889 28.6941 47.5221 28.8824 47.5116 29.0779C47.4956 30.4095 47.4979 31.7412 47.5116 33.0717C47.518 33.239 47.5707 33.4013 47.664 33.5404C48.0708 34.1443 48.4947 34.7391 48.9244 35.3292C48.9908 35.4209 49.1089 35.5355 49.2028 35.5344C49.5015 35.5215 49.7995 35.4935 50.0954 35.4507ZM53.4366 50.266L56.5692 42.8114L56.5016 42.777L52.2117 49.7228L53.4366 50.266ZM49.2887 52.5224H53.4663C53.33 51.7317 52.497 51.0418 51.6227 50.9765C50.5285 50.894 49.6359 51.4704 49.2887 52.5224Z" fill="black"/>
<path d="M24.208 15.4817C24.4063 15.8143 24.7912 15.898 25.1785 15.6663C25.866 15.2534 26.5867 14.9266 27.4403 14.797L25.7915 19.3076C25.677 19.6161 25.5624 19.9246 25.4478 20.2343C25.2344 20.8542 24.9392 21.4428 24.5701 21.9844C23.2112 23.9524 23.2925 26.5718 24.6927 28.5123C24.8307 28.7047 24.9103 28.9329 24.9219 29.1695C24.9425 30.4586 24.9368 31.7488 24.9219 33.039C24.9243 33.2213 24.8784 33.4009 24.789 33.5597C24.3535 34.2478 23.8654 34.9061 23.4518 35.608C23.0382 36.3099 22.7093 37.0255 22.3175 37.787C22.3049 37.662 22.2854 37.5657 22.2854 37.4705C22.2854 31.9656 22.2854 26.4625 22.2854 20.9614C22.2751 19.7358 22.6315 18.5351 23.3086 17.5139C23.35 17.4548 23.3883 17.3936 23.4232 17.3304C23.5962 16.9932 23.524 16.6423 23.241 16.4554" fill="#F5CCA1"/>
<path d="M38.4444 9.98361C38.2965 10.0824 38.1793 10.2208 38.1061 10.383C38.033 10.5452 38.0069 10.7247 38.0308 10.9011C38.0491 11.1144 38.0308 11.33 38.0308 11.5456C38.0308 13.0572 38.6529 13.9426 40.076 14.4701C40.1551 14.5 40.2319 14.5355 40.2674 14.5504C40.2674 16.6526 40.4026 18.7376 40.2296 20.7974C40.0566 22.8572 38.0892 24.3378 36.0692 24.2208C33.8761 24.0935 32.1734 22.4764 32.1104 20.3455C32.0508 18.5002 32.0898 16.6515 32.1012 14.8039C32.1106 14.7345 32.1362 14.6682 32.1761 14.6106C32.2159 14.553 32.2688 14.5057 32.3304 14.4724C33.7397 13.93 34.3928 12.9093 34.3126 11.408C34.2998 11.2366 34.2998 11.0645 34.3126 10.8931C34.3414 10.7153 34.3164 10.5329 34.2408 10.3695C34.1653 10.206 34.0427 10.0688 33.8887 9.97559L38.4444 9.98361Z" fill="#F5CCA1"/>
<path d="M36.0384 54.0232C35.6144 53.7066 35.6477 53.2364 35.6225 52.7857C35.6018 52.429 35.6992 51.9909 35.5262 51.7398C35.3761 51.523 34.9167 51.5265 34.5993 51.4175C34.369 51.3413 34.1439 51.2501 33.9255 51.1445C33.5348 50.9507 33.3698 50.5929 33.5062 50.2718C33.6528 49.9277 34.0275 49.789 34.4538 49.9816C35.3704 50.4002 36.3168 50.5172 37.2942 50.2339C37.5405 50.1628 37.7754 50.0539 38.0138 49.9587C38.4079 49.8027 38.731 49.8979 38.8995 50.2225C38.9397 50.2994 38.9635 50.3839 38.9694 50.4706C38.9754 50.5572 38.9632 50.6442 38.9338 50.7259C38.9044 50.8076 38.8584 50.8823 38.7986 50.9453C38.7389 51.0083 38.6667 51.0582 38.5867 51.0918C38.0573 51.3303 37.4959 51.4989 36.9298 51.7042C36.9298 52.1159 36.9 52.5862 36.939 53.0518C36.9734 53.4578 36.892 53.7812 36.5563 54.0243L36.0384 54.0232Z" fill="black"/>
<path d="M21 45.8518C21.1146 46.7131 21.2085 47.5721 21.3437 48.4357C21.6097 50.1603 22.0813 51.8468 22.7485 53.459C22.839 53.6769 23.0693 53.8363 23.2343 54.0221H21V45.8518Z" fill="white"/>
<path d="M47.5481 39.7677C47.5343 39.309 47.7177 39.0659 48.0671 38.9993C48.1445 38.978 48.2255 38.9732 48.3048 38.9852C48.3842 38.9972 48.4601 39.0257 48.5277 39.069C48.5954 39.1122 48.6532 39.1692 48.6974 39.2363C48.7416 39.3033 48.7712 39.3789 48.7844 39.4581C48.9133 39.9989 49.0124 40.5464 49.0812 41.0981C49.0948 41.177 49.0921 41.2578 49.0732 41.3356C49.0544 41.4134 49.0197 41.4865 48.9715 41.5504C48.9233 41.6142 48.8625 41.6675 48.7928 41.7069C48.7232 41.7463 48.6462 41.7709 48.5667 41.7793C48.4889 41.7981 48.4082 41.801 48.3293 41.788C48.2503 41.7749 48.1748 41.7462 48.1072 41.7034C48.0396 41.6606 47.9812 41.6047 47.9355 41.539C47.8899 41.4732 47.8579 41.399 47.8414 41.3206C47.7039 40.7816 47.6317 40.2276 47.5481 39.7677Z" fill="black"/>
<path d="M61.3447 41.8102C61.2909 41.9662 61.2289 42.1194 61.1591 42.2689C60.9368 42.6669 60.7145 43.0717 60.4716 43.4548C60.2207 43.8631 59.8712 43.9766 59.54 43.7793C59.2089 43.5821 59.1321 43.2197 59.3625 42.8091C59.5928 42.3985 59.8414 41.965 60.0946 41.5475C60.2665 41.2689 60.5529 41.1565 60.8325 41.2964C61.0468 41.4168 61.1912 41.6462 61.3447 41.8102Z" fill="black"/>
<path d="M45.2254 39.849C45.3239 39.9476 45.5691 40.0967 45.6665 40.3077C45.8694 40.7634 46.0431 41.2315 46.1867 41.7092C46.3116 42.09 46.1466 42.4317 45.8143 42.5499C45.6562 42.6019 45.4842 42.5919 45.3332 42.5218C45.1822 42.4518 45.0634 42.3269 45.0008 42.1725C44.7979 41.6849 44.6197 41.1873 44.4669 40.6816C44.3363 40.2458 44.6422 39.8513 45.2254 39.849Z" fill="black"/>
<path d="M42.2819 41.254C42.3701 41.3205 42.5913 41.4169 42.7058 41.5866C42.9786 42.0041 43.2303 42.4351 43.4598 42.878C43.6523 43.2358 43.5606 43.5913 43.2593 43.776C42.9579 43.9606 42.597 43.8907 42.3713 43.5374C42.0825 43.0943 41.8197 42.6348 41.5841 42.1612C41.3687 41.7277 41.6735 41.2598 42.2819 41.254Z" fill="black"/>
<path d="M53.7156 40.9857C53.7969 40.5407 53.8794 40.0051 53.9975 39.4775C54.0765 39.1231 54.3412 38.9557 54.6976 38.9913C54.7798 39.0004 54.8594 39.026 54.9316 39.0665C55.0038 39.107 55.0672 39.1616 55.1179 39.227C55.1687 39.2925 55.2058 39.3675 55.227 39.4475C55.2483 39.5276 55.2534 39.6111 55.2418 39.6931C55.1685 40.2287 55.0757 40.7643 54.9542 41.2907C54.9187 41.4536 54.8205 41.5959 54.6809 41.6867C54.5412 41.7775 54.3714 41.8096 54.2083 41.7758C53.8588 41.6818 53.695 41.4398 53.7156 40.9857Z" fill="black"/>
<path d="M52.0306 40.0944C52.0306 40.3513 52.0397 40.6094 52.0306 40.8651C52.0134 41.2298 51.8175 41.4477 51.4519 41.4867C51.3697 41.4993 51.2858 41.4946 51.2054 41.4729C51.1251 41.4511 51.0502 41.4129 50.9855 41.3605C50.9208 41.3082 50.8677 41.2429 50.8297 41.1689C50.7916 41.0948 50.7694 41.0136 50.7645 40.9305C50.7294 40.3606 50.7316 39.789 50.7713 39.2194C50.7977 38.8673 51.0589 38.6597 51.4267 38.6804C51.5061 38.6782 51.5851 38.6921 51.6588 38.7215C51.7326 38.7508 51.7996 38.7949 51.8558 38.8511C51.912 38.9072 51.9561 38.9742 51.9856 39.048C52.0151 39.1217 52.0292 39.2007 52.0271 39.2802C52.0443 39.5508 52.0271 39.8226 52.0271 40.0933L52.0306 40.0944Z" fill="black"/>
<path d="M26.2418 32.9415V29.9963C26.4767 30.111 26.6749 30.2165 26.8754 30.3129C27.6219 30.6821 28.441 30.8807 29.2736 30.8943C29.7594 30.8943 30.0401 30.689 30.0676 30.3037C30.0951 29.9184 29.8064 29.6259 29.3182 29.6064C27.9238 29.5502 26.77 28.9997 25.8808 27.9217C25.2361 27.1324 24.8845 26.1439 24.8857 25.1244C24.887 24.1049 25.2411 23.1173 25.8877 22.3296C26.0668 22.1086 26.2095 21.8604 26.3105 21.5944C27.1194 19.4234 27.9227 17.2489 28.7041 15.0676C28.8187 14.7476 28.9734 14.6547 29.2896 14.6708C29.7731 14.6949 30.259 14.6777 30.7998 14.6777C30.7998 14.8658 30.7998 15.0217 30.7998 15.1708C30.7998 16.8189 30.7929 18.4669 30.7998 20.115C30.8135 22.8422 32.8714 25.1875 35.4838 25.4685C38.3655 25.7782 40.8691 24.0487 41.4832 21.3008C41.5685 20.8947 41.6108 20.4807 41.6093 20.0656C41.623 18.4463 41.615 16.8269 41.615 15.2075C41.615 15.0516 41.615 14.8967 41.615 14.6811C42.2269 14.6811 42.8089 14.6639 43.3876 14.6972C43.4953 14.7029 43.6351 14.899 43.6866 15.0412C44.4944 17.2134 45.2907 19.3913 46.0928 21.5623C46.2004 21.8407 46.3475 22.1022 46.5294 22.3387C47.6064 23.762 47.8642 25.3091 47.1309 26.9422C46.3976 28.5754 45.0719 29.4401 43.2833 29.6041C43.1687 29.6144 43.0541 29.6041 42.9396 29.6259C42.566 29.6913 42.3449 29.9608 42.3667 30.314C42.3884 30.6673 42.6371 30.8955 43.0289 30.9012C43.9488 30.9071 44.8561 30.6882 45.6723 30.2636C45.8235 30.1879 45.9702 30.1064 46.1696 30.0009V32.9484L26.2418 32.9415Z" fill="#19AA33"/>
<path d="M22.291 43.8516C22.3987 41.7631 22.8502 39.7974 23.7279 37.9613C24.2927 36.7789 25.0157 35.6676 25.6975 34.5471C25.7639 34.4638 25.8473 34.3958 25.9422 34.3475C26.037 34.2992 26.1411 34.2718 26.2475 34.2672C32.9069 34.2527 39.5663 34.2527 46.2257 34.2672C46.4283 34.2793 46.6184 34.3693 46.7562 34.5184C47.0851 34.906 47.3658 35.3338 47.6935 35.78C46.99 35.9657 46.354 36.1171 45.7284 36.3029C43.5351 36.9682 41.4506 37.9508 39.5411 39.2194C37.9255 40.2757 37.4087 42.1256 38.0813 43.6715C38.0976 43.7287 38.1072 43.7876 38.11 43.847L22.291 43.8516ZM36.8106 40.4683C36.8156 40.3032 36.7556 40.1428 36.6435 40.0216C36.5314 39.9004 36.3762 39.8281 36.2114 39.8204C36.1263 39.8149 36.041 39.8266 35.9604 39.8547C35.8799 39.8828 35.8058 39.9267 35.7425 39.9839C35.6792 40.041 35.6279 40.1103 35.5918 40.1876C35.5556 40.2649 35.5353 40.3486 35.5319 40.4339C35.5316 40.6066 35.599 40.7724 35.7197 40.8958C35.8403 41.0191 36.0046 41.0901 36.177 41.0934C36.3421 41.0894 36.4994 41.0227 36.6171 40.9069C36.7348 40.791 36.804 40.6346 36.8106 40.4695V40.4683Z" fill="#F5CCA1"/>
<path d="M50.0951 35.4704C49.7976 35.5134 49.4982 35.5413 49.1979 35.5541C49.104 35.5541 48.986 35.4394 48.9195 35.3488C48.4921 34.7582 48.0693 34.1629 47.6591 33.5585C47.5659 33.4194 47.5131 33.257 47.5067 33.0895C47.4953 31.7568 47.493 30.4242 47.5067 29.0927C47.5172 28.897 47.584 28.7086 47.6992 28.5502C49.2472 26.4033 49.1991 23.629 47.5686 21.5658C47.4668 21.4462 47.3841 21.3116 47.3234 21.1667C46.5687 19.1283 45.819 17.088 45.0742 15.0459C45.0516 14.964 45.034 14.8809 45.0215 14.797C46.7161 15.1663 48.0327 16.023 49.002 17.405C49.7155 18.4037 50.0996 19.6005 50.1008 20.8284C50.118 25.6142 50.1123 30.3989 50.1146 35.1848C50.1192 35.2685 50.1054 35.3511 50.0951 35.4704Z" fill="#F5CCA1"/>
<path d="M53.4365 50.297L52.207 49.7534L56.4969 42.8022L56.5645 42.8367L53.4365 50.297Z" fill="#F8F9F2"/>
<path d="M49.2886 52.5552C49.6323 51.5024 50.5283 50.9244 51.6226 51.0081C52.4968 51.0746 53.3298 51.765 53.4662 52.5552H49.2886Z" fill="#F8F9F2"/>
<path d="M36.8109 40.4696C36.8046 40.6349 36.7355 40.7916 36.6178 40.9077C36.5001 41.0238 36.3426 41.0907 36.1773 41.0946C36.0049 41.0913 35.8406 41.0203 35.72 40.897C35.5993 40.7736 35.5319 40.6078 35.5322 40.4352C35.5356 40.3499 35.5559 40.2661 35.5921 40.1888C35.6283 40.1116 35.6795 40.0423 35.7428 39.9851C35.8061 39.9279 35.8802 39.884 35.9607 39.8559C36.0413 39.8279 36.1266 39.8162 36.2117 39.8216C36.3765 39.8294 36.5317 39.9016 36.6438 40.0228C36.7559 40.144 36.8159 40.3045 36.8109 40.4696Z" fill="black"/>
<path d="M81.7114 43.554C80.6727 43.554 79.7354 43.3577 78.8994 42.965C78.0634 42.585 77.4047 42.053 76.9234 41.369C76.4421 40.6977 76.2014 39.9313 76.2014 39.07C76.2014 38.804 76.2204 38.4557 76.2584 38.025C76.3091 37.5943 76.3661 37.1193 76.4294 36.6C76.5054 36.0807 76.5814 35.5423 76.6574 34.985C76.7461 34.4277 76.8284 33.902 76.9044 33.408L79.4124 33.769C79.2857 34.605 79.1717 35.3713 79.0704 36.068C78.9691 36.7647 78.8867 37.36 78.8234 37.854C78.7727 38.348 78.7474 38.728 78.7474 38.994C78.7474 39.5007 78.8614 39.925 79.0894 40.267C79.3301 40.6217 79.6721 40.8877 80.1154 41.065C80.5587 41.255 81.0907 41.35 81.7114 41.35H86.1574C87.0821 41.35 87.7724 41.16 88.2284 40.78C88.6844 40.4127 88.9124 39.8807 88.9124 39.184V30.615L89.5394 31.166H87.1454C86.5881 31.166 86.1511 31.2357 85.8344 31.375C85.5177 31.5143 85.2961 31.774 85.1694 32.154C85.0427 32.5213 84.9794 33.047 84.9794 33.731C84.9794 34.4783 85.0427 35.0357 85.1694 35.403C85.2961 35.7577 85.5177 35.9983 85.8344 36.125C86.1511 36.239 86.5881 36.296 87.1454 36.296H88.9124V38.5H87.1454C86.0687 38.5 85.1821 38.3353 84.4854 38.006C83.7887 37.664 83.2694 37.1383 82.9274 36.429C82.5981 35.7197 82.4334 34.8203 82.4334 33.731C82.4334 32.6923 82.5981 31.8183 82.9274 31.109C83.2694 30.3997 83.7887 29.8677 84.4854 29.513C85.1821 29.1457 86.0687 28.962 87.1454 28.962H91.4394V39.184C91.4394 40.0833 91.2051 40.856 90.7364 41.502C90.2804 42.1607 89.6534 42.6673 88.8554 43.022C88.0701 43.3767 87.1707 43.554 86.1574 43.554H81.7114ZM84.7134 27.822V25.656H87.2594V27.822H84.7134ZM87.3164 27.822V25.656H89.8624V27.822H87.3164ZM97.0085 38.5V36.296H99.1745V38.5H97.0085ZM94.4815 38.5V25.067H97.0085V38.5H94.4815ZM99.1745 38.5V36.296C99.3265 36.296 99.4278 36.3973 99.4785 36.6C99.5292 36.79 99.5545 37.056 99.5545 37.398C99.5545 37.7273 99.5292 37.9933 99.4785 38.196C99.4278 38.3987 99.3265 38.5 99.1745 38.5ZM99.1729 38.5V36.296H112.359L110.592 37.721V34.472C110.592 33.3827 110.446 32.5087 110.155 31.85C109.876 31.1913 109.427 30.7163 108.806 30.425C108.198 30.121 107.406 29.969 106.431 29.969C105.962 29.969 105.449 29.988 104.892 30.026C104.335 30.0513 103.777 30.0893 103.22 30.14C102.675 30.178 102.181 30.2223 101.738 30.273L101.472 28.563C101.903 28.449 102.403 28.3287 102.973 28.202C103.543 28.0753 104.138 27.9677 104.759 27.879C105.392 27.7903 106.007 27.746 106.602 27.746C107.425 27.746 108.223 27.86 108.996 28.088C109.781 28.3033 110.484 28.6707 111.105 29.19C111.726 29.6967 112.22 30.3807 112.587 31.242C112.954 32.1033 113.138 33.18 113.138 34.472V38.5H99.1729ZM101.13 36.296V35.346C101.13 34.738 101.282 34.1743 101.586 33.655C101.903 33.123 102.333 32.705 102.878 32.401C103.423 32.0843 104.031 31.926 104.702 31.926C105.373 31.926 105.975 32.0843 106.507 32.401C107.039 32.705 107.457 33.1167 107.761 33.636C108.078 34.1553 108.236 34.7253 108.236 35.346V36.296H106.222V35.346C106.222 35.0293 106.152 34.7507 106.013 34.51C105.874 34.2567 105.69 34.054 105.462 33.902C105.234 33.75 104.981 33.674 104.702 33.674C104.423 33.674 104.164 33.75 103.923 33.902C103.695 34.054 103.511 34.2567 103.372 34.51C103.233 34.7507 103.163 35.0293 103.163 35.346V36.296H101.13ZM99.1729 38.5C99.0209 38.5 98.9195 38.3987 98.8689 38.196C98.8182 37.9933 98.7929 37.7273 98.7929 37.398C98.7929 37.056 98.8182 36.79 98.8689 36.6C98.9195 36.3973 99.0209 36.296 99.1729 36.296V38.5ZM115.165 43.212C115.001 43.212 114.823 43.2057 114.633 43.193C114.443 43.1803 114.247 43.1613 114.044 43.136L114.139 40.97C114.342 40.9827 114.532 40.9953 114.709 41.008C114.899 41.0207 115.039 41.027 115.127 41.027C115.621 41.027 116.014 40.8307 116.305 40.438C116.609 40.0453 116.761 39.4943 116.761 38.785V28.962H119.307V38.785C119.307 39.6463 119.13 40.4127 118.775 41.084C118.433 41.7553 117.952 42.2747 117.331 42.642C116.711 43.022 115.989 43.212 115.165 43.212ZM121.345 38.5V36.296H130.997L129.781 37.55V25.067H132.327V38.5H121.345ZM123.986 36.296V27.727H126.513V36.296H123.986ZM124.119 44.181C123.878 43.8897 123.695 43.611 123.568 43.345C123.441 43.079 123.378 42.794 123.378 42.49C123.378 42.0593 123.492 41.6667 123.72 41.312C123.948 40.97 124.246 40.6977 124.613 40.495C124.98 40.305 125.386 40.21 125.829 40.21C126.07 40.21 126.317 40.2417 126.57 40.305C126.823 40.3683 127.039 40.4633 127.216 40.59L126.57 41.749C126.456 41.6857 126.342 41.6413 126.228 41.616C126.127 41.6033 126.019 41.597 125.905 41.597C125.601 41.597 125.367 41.673 125.202 41.825C125.037 41.9897 124.955 42.205 124.955 42.471C124.955 42.623 124.987 42.7687 125.05 42.908C125.113 43.0473 125.208 43.1993 125.335 43.364L124.119 44.181ZM122.96 44.333V42.946H127.558V44.333H122.96ZM137.959 38.5V36.296H140.125V38.5H137.959ZM135.432 38.5V25.067H137.959V38.5H135.432ZM140.125 38.5V36.296C140.277 36.296 140.378 36.3973 140.429 36.6C140.479 36.79 140.505 37.056 140.505 37.398C140.505 37.7273 140.479 37.9933 140.429 38.196C140.378 38.3987 140.277 38.5 140.125 38.5ZM140.123 38.5V36.296H143.6L142.118 37.531V28.962H144.664V38.5H140.123ZM140.123 38.5C139.971 38.5 139.87 38.3987 139.819 38.196C139.768 37.9933 139.743 37.7273 139.743 37.398C139.743 37.056 139.768 36.79 139.819 36.6C139.87 36.3973 139.971 36.296 140.123 36.296V38.5ZM142.118 42.547V40.381H144.664V42.547H142.118ZM156.678 43.212C155.576 43.212 154.588 43.0093 153.714 42.604C152.852 42.2113 152.175 41.6603 151.681 40.951C151.187 40.2417 150.94 39.4373 150.94 38.538C150.94 38.2847 150.959 37.949 150.997 37.531C151.035 37.113 151.085 36.6443 151.149 36.125C151.225 35.6057 151.301 35.08 151.377 34.548C151.465 34.0033 151.548 33.4777 151.624 32.971L154.132 33.313C153.992 34.1617 153.872 34.9407 153.771 35.65C153.682 36.3467 153.612 36.942 153.562 37.436C153.511 37.93 153.486 38.291 153.486 38.519C153.486 39.0257 153.612 39.4627 153.866 39.83C154.119 40.1973 154.48 40.4823 154.949 40.685C155.43 40.9003 156.006 41.008 156.678 41.008C157.374 41.008 157.938 40.9067 158.369 40.704C158.799 40.5013 159.11 40.2227 159.3 39.868C159.502 39.5133 159.604 39.1143 159.604 38.671V30.9H162.15V38.671C162.15 39.583 161.909 40.381 161.428 41.065C160.959 41.749 160.313 42.2747 159.49 42.642C158.666 43.022 157.729 43.212 156.678 43.212ZM162.112 38.5L162.15 36.296H163.689C164.094 36.296 164.404 36.239 164.62 36.125C164.835 35.9983 164.987 35.7513 165.076 35.384C165.164 35.004 165.209 34.4403 165.209 33.693V29.95H167.755V33.693C167.755 34.8203 167.609 35.7387 167.318 36.448C167.026 37.1573 166.583 37.6767 165.988 38.006C165.392 38.3353 164.626 38.5 163.689 38.5H162.112ZM168.572 38.5C168.052 38.5 167.539 38.405 167.033 38.215C166.526 38.0123 166.051 37.7147 165.608 37.322L167.166 35.707C167.406 35.9097 167.641 36.0617 167.869 36.163C168.109 36.2517 168.344 36.296 168.572 36.296H172.144L170.814 37.493V33.275C170.814 33.0723 170.788 32.7683 170.738 32.363C170.687 31.945 170.624 31.4763 170.548 30.957C170.472 30.425 170.383 29.8867 170.282 29.342L172.771 28.962C172.859 29.418 172.948 29.931 173.037 30.501C173.125 31.0583 173.195 31.5903 173.246 32.097C173.309 32.591 173.341 32.9837 173.341 33.275V38.5H168.572ZM178.798 38.5V36.296H180.964V38.5H178.798ZM176.271 38.5V25.067H178.798V38.5H176.271ZM180.964 38.5V36.296C181.116 36.296 181.217 36.3973 181.268 36.6C181.318 36.79 181.344 37.056 181.344 37.398C181.344 37.7273 181.318 37.9933 181.268 38.196C181.217 38.3987 181.116 38.5 180.964 38.5ZM196.903 38.5V36.296H198.917V38.5H196.903ZM192.134 38.5C191.615 38.5 191.095 38.405 190.576 38.215C190.069 38.0123 189.601 37.7147 189.17 37.322L190.728 35.707C190.981 35.9097 191.216 36.0617 191.431 36.163C191.659 36.2517 191.893 36.296 192.134 36.296H195.687L194.376 37.493V33.275C194.376 33.0723 194.351 32.7683 194.3 32.363C194.262 31.945 194.199 31.4763 194.11 30.957C194.034 30.425 193.939 29.8867 193.825 29.342L196.333 28.962C196.422 29.418 196.504 29.931 196.58 30.501C196.669 31.0583 196.745 31.5903 196.808 32.097C196.871 32.591 196.903 32.9837 196.903 33.275V38.5H192.134ZM180.962 38.5V36.296H183.736L183.166 36.885V30.9H185.712V38.5H180.962ZM185.712 38.5V36.296H187.251C187.656 36.296 187.967 36.239 188.182 36.125C188.397 35.9983 188.543 35.7513 188.619 35.384C188.708 35.004 188.752 34.4403 188.752 33.693V29.95H191.298V33.693C191.298 34.8203 191.152 35.7387 190.861 36.448C190.582 37.1573 190.145 37.6767 189.55 38.006C188.955 38.3353 188.188 38.5 187.251 38.5H185.712ZM180.962 38.5C180.81 38.5 180.709 38.3987 180.658 38.196C180.607 37.9933 180.582 37.7273 180.582 37.398C180.582 37.056 180.607 36.79 180.658 36.6C180.709 36.3973 180.81 36.296 180.962 36.296V38.5ZM198.917 38.5V36.296C199.069 36.296 199.17 36.3973 199.221 36.6C199.272 36.79 199.297 37.056 199.297 37.398C199.297 37.7273 199.272 37.9933 199.221 38.196C199.17 38.3987 199.069 38.5 198.917 38.5ZM198.923 38.5V36.296H207.093L206.238 36.999V33.484C206.238 32.724 205.997 32.1477 205.516 31.755C205.047 31.3623 204.3 31.166 203.274 31.166C202.983 31.166 202.584 31.1913 202.077 31.242C201.57 31.28 201.019 31.3433 200.424 31.432L200.177 29.418C200.722 29.2913 201.273 29.1837 201.83 29.095C202.4 29.0063 202.957 28.962 203.502 28.962C204.541 28.962 205.453 29.1457 206.238 29.513C207.023 29.8677 207.638 30.3807 208.081 31.052C208.537 31.7233 208.765 32.534 208.765 33.484V38.5H198.923ZM198.923 38.5C198.771 38.5 198.67 38.3987 198.619 38.196C198.568 37.9933 198.543 37.7273 198.543 37.398C198.543 37.056 198.568 36.79 198.619 36.6C198.67 36.3973 198.771 36.296 198.923 36.296V38.5ZM210.667 38.5V36.296H220.319L219.103 37.55V25.067H221.649V38.5H210.667ZM213.308 36.296V27.727H215.835V36.296H213.308ZM213.441 44.181C213.201 43.8897 213.017 43.611 212.89 43.345C212.764 43.079 212.7 42.794 212.7 42.49C212.7 42.0593 212.814 41.6667 213.042 41.312C213.27 40.97 213.568 40.6977 213.935 40.495C214.303 40.305 214.708 40.21 215.151 40.21C215.392 40.21 215.639 40.2417 215.892 40.305C216.146 40.3683 216.361 40.4633 216.538 40.59L215.892 41.749C215.778 41.6857 215.664 41.6413 215.55 41.616C215.449 41.6033 215.341 41.597 215.227 41.597C214.923 41.597 214.689 41.673 214.524 41.825C214.36 41.9897 214.277 42.205 214.277 42.471C214.277 42.623 214.309 42.7687 214.372 42.908C214.436 43.0473 214.531 43.1993 214.657 43.364L213.441 44.181ZM212.282 44.333V42.946H216.88V44.333H212.282ZM224.754 38.5V25.067H227.281V38.5H224.754Z" fill="#252525"/>
<rect x="0.5" y="0.5" width="248" height="63" rx="11.5" stroke="#19AA33"/>
</svg>
