<svg width="178" height="178" viewBox="0 0 178 178" fill="none" xmlns="http://www.w3.org/2000/svg">
<g filter="url(#filter0_d_1_169)">
<rect x="18" y="16" width="142" height="142" rx="71" fill="white"/>
<g clip-path="url(#clip0_1_169)">
<path d="M108.12 60.509H76.88C73.6326 60.509 71 63.1415 71 66.389V114.629C71 117.876 73.6326 120.509 76.88 120.509H108.12C111.367 120.509 114 117.876 114 114.629V66.389C114 63.1415 111.367 60.509 108.12 60.509Z" fill="#D1EDD6"/>
<path d="M99 67H83C81.8954 67 81 67.8954 81 69C81 70.1046 81.8954 71 83 71H99C100.105 71 101 70.1046 101 69C101 67.8954 100.105 67 99 67Z" fill="white"/>
<path d="M99 75H83C81.8954 75 81 75.8954 81 77C81 78.1046 81.8954 79 83 79H99C100.105 79 101 78.1046 101 77C101 75.8954 100.105 75 99 75Z" fill="white"/>
<path d="M99 83H83C81.8954 83 81 83.8954 81 85C81 86.1046 81.8954 87 83 87H99C100.105 87 101 86.1046 101 85C101 83.8954 100.105 83 99 83Z" fill="white"/>
<path d="M68 61.065V111.935C68 112.465 68.2107 112.974 68.5858 113.349C68.9609 113.724 69.4696 113.935 70 113.935H105C105.53 113.935 106.039 113.724 106.414 113.349C106.789 112.974 107 112.465 107 111.935V61.065C107 60.5346 106.789 60.0259 106.414 59.6508C106.039 59.2757 105.53 59.065 105 59.065H70C69.4696 59.065 68.9609 59.2757 68.5858 59.6508C68.2107 60.0259 68 60.5346 68 61.065ZM68 55H107C109.21 55 111 56.82 111 59.065V113.935C111 116.18 109.21 118 107 118H68C65.79 118 64 116.18 64 113.935V59.065C64 56.82 65.79 55 68 55Z" fill="#19AA33"/>
<path d="M73 74C75.2091 74 77 72.2091 77 70C77 67.7909 75.2091 66 73 66C70.7909 66 69 67.7909 69 70C69 72.2091 70.7909 74 73 74Z" fill="#19AA33"/>
<path fill-rule="evenodd" clip-rule="evenodd" d="M66 69H72V72H66V69Z" fill="#19AA33"/>
<path d="M73 89C75.2091 89 77 87.2091 77 85C77 82.7909 75.2091 81 73 81C70.7909 81 69 82.7909 69 85C69 87.2091 70.7909 89 73 89Z" fill="#19AA33"/>
<path fill-rule="evenodd" clip-rule="evenodd" d="M66 84H72V87H66V84Z" fill="#19AA33"/>
<path d="M73 105C75.2091 105 77 103.209 77 101C77 98.7909 75.2091 97 73 97C70.7909 97 69 98.7909 69 101C69 103.209 70.7909 105 73 105Z" fill="#19AA33"/>
<path fill-rule="evenodd" clip-rule="evenodd" d="M66 100H72V103H66V100Z" fill="#19AA33"/>
</g>
</g>
<defs>
<filter id="filter0_d_1_169" x="0" y="0" width="178" height="178" filterUnits="userSpaceOnUse" color-interpolation-filters="sRGB">
<feFlood flood-opacity="0" result="BackgroundImageFix"/>
<feColorMatrix in="SourceAlpha" type="matrix" values="0 0 0 0 0 0 0 0 0 0 0 0 0 0 0 0 0 0 127 0" result="hardAlpha"/>
<feMorphology radius="2" operator="dilate" in="SourceAlpha" result="effect1_dropShadow_1_169"/>
<feOffset dy="2"/>
<feGaussianBlur stdDeviation="8"/>
<feComposite in2="hardAlpha" operator="out"/>
<feColorMatrix type="matrix" values="0 0 0 0 0 0 0 0 0 0 0 0 0 0 0 0 0 0 0.067 0"/>
<feBlend mode="normal" in2="BackgroundImageFix" result="effect1_dropShadow_1_169"/>
<feBlend mode="normal" in="SourceGraphic" in2="effect1_dropShadow_1_169" result="shape"/>
</filter>
<clipPath id="clip0_1_169">
<rect width="80" height="142" fill="white" transform="translate(49 16)"/>
</clipPath>
</defs>
</svg>
