<svg width="142" height="142" viewBox="0 0 142 142" fill="none" xmlns="http://www.w3.org/2000/svg">
<g filter="url(#filter0_d_1_206)">
<g clip-path="url(#clip0_1_206)">
<path d="M75.7213 51.8389C75.6332 51.5533 75.5351 51.2192 75.4304 50.8623C75.2539 50.2611 75.0583 49.5948 74.8589 48.9846C74.5319 47.9834 74.1263 46.9046 73.5936 46.0153C73.0853 45.1668 72.2819 44.1879 71.0336 43.9046C69.7074 43.6036 68.4703 44.2057 67.4081 45.1658C64.6585 47.6514 64.8796 51.1277 65.9657 54.649C66.1435 55.2253 66.2915 55.7757 66.4397 56.3271C66.5033 56.5635 66.5669 56.8001 66.633 57.039C66.8412 57.7925 67.0769 58.5811 67.3957 59.2553C67.7115 59.923 68.1936 60.6657 69.004 61.1156C69.8654 61.5938 70.8207 61.5932 71.7557 61.3181C75.5524 60.1997 76.9087 55.6924 75.7213 51.8389Z" fill="white" stroke="#19AA33" stroke-width="3.01"/>
<path fill-rule="evenodd" clip-rule="evenodd" d="M36.5359 62.667L35 69.4934C35 69.4934 76.5546 92.0879 78.011 92.667C79.4674 93.2462 88.4428 96.6588 92.6517 95.8874C96.8605 95.116 99.75 92.667 99.75 92.667C99.75 92.667 89.2388 93.083 81.4921 89.2688C73.7453 85.4545 36.5359 62.667 36.5359 62.667Z" fill="white"/>
<path fill-rule="evenodd" clip-rule="evenodd" d="M37.6431 65.8038C37.6431 65.8038 47.5309 72.0109 51.7304 74.6262C62.9403 81.6072 73.5214 88.6163 80.8301 91.6504C95.9003 97.9065 102.491 96.4092 105.688 93.3951C108.884 90.381 111.178 85.7087 105.688 82.1982C100.197 78.6877 101.642 81.9606 94.7064 77.047C87.7708 72.1334 77.6068 56.5616 76.8911 53.803C76.1754 51.0444 69.9272 58.9179 66.1849 57.5844C62.4426 56.251 60.5733 56.9814 59.8363 53.803C59.0993 50.6246 58.3045 45.7482 57.1342 44.0035C55.9639 42.2588 53.1517 38.9857 48.2339 44.0035C43.3162 49.0212 39.0587 60.5248 39.0587 60.5248L37.6431 65.8038Z" fill="#D1EDD6"/>
<path d="M35 69.6004L33.5208 69.3231M35 69.6004L34.2269 70.8917M35 69.6004C34.2269 70.8917 34.2266 70.8915 34.2269 70.8917M35 69.6004C33.5208 69.3231 33.5207 69.3235 33.5208 69.3231M33.5208 69.3231C33.4047 69.9422 33.6865 70.5681 34.2269 70.8917M33.5208 69.3231L33.5211 69.3212L33.5218 69.3175L33.5243 69.3046L33.5333 69.2578C33.5411 69.2172 33.5526 69.1582 33.5678 69.0818C33.5983 68.9289 33.6437 68.7061 33.7043 68.4213C33.8254 67.8517 34.0074 67.0334 34.2526 66.0292C34.7427 64.0224 35.4875 61.2643 36.5072 58.2604C38.5182 52.3358 41.6985 45.141 46.3211 41.0522C48.3904 39.2219 50.3268 38.343 52.1432 38.5162C54.0038 38.6935 55.2408 39.9207 56.0107 41.1287C56.782 42.339 57.2321 43.745 57.4896 44.7847C57.6213 45.3163 57.709 45.7787 57.7642 46.1109C57.7918 46.2775 57.8115 46.4125 57.8246 46.5084C57.8311 46.5564 57.836 46.5948 57.8394 46.6225L57.8435 46.656L57.8447 46.6667L57.8451 46.6704L57.8453 46.6719C57.8453 46.6725 57.8454 46.6731 56.3496 46.839L106.1 82.8531M34.2269 70.8917L34.2287 70.8928L34.2338 70.8958L34.2539 70.9078L34.3324 70.9547L34.6383 71.1371C34.9067 71.2969 35.3012 71.5313 35.8071 71.8306C36.8188 72.4292 38.2758 73.2872 40.0587 74.3261C43.6239 76.4035 48.495 79.2056 53.7159 82.1026C58.9346 84.9984 64.514 87.9951 69.4929 90.459C74.4353 92.9049 78.8984 94.8831 81.8379 95.6766C87.442 97.1894 90.8333 97.6548 93.543 97.4647C95.6951 97.3137 97.3921 96.7365 99.2347 96.1098C99.697 95.9526 100.168 95.7922 100.659 95.6347C102.96 94.8946 105.372 93.0244 106.732 90.7668C107.422 89.6206 107.893 88.2886 107.861 86.8853C107.827 85.4463 107.266 84.0534 106.1 82.8531M106.1 82.8531C104.026 80.7167 101.601 79.6963 99.3082 78.8517C98.9687 78.7266 98.6333 78.6057 98.3018 78.4861C96.3401 77.7785 94.5126 77.1193 92.7421 75.9417C92.3313 75.6683 91.7352 75.128 90.9727 74.3035C90.2272 73.4976 89.3831 72.4868 88.4781 71.3351C86.6688 69.0325 84.6619 66.2253 82.7833 63.4935C80.907 60.765 79.1695 58.1277 77.9004 56.1714C77.2661 55.1936 76.7494 54.3869 76.3916 53.8251C76.2127 53.5442 76.0735 53.3246 75.9793 53.1755L75.8722 53.0059L75.8452 52.9629L75.8385 52.9523L75.8365 52.949M106.1 82.8531L74.5618 53.7493M74.5618 53.7493L75.8365 52.949M74.5618 53.7493L57.8471 46.9891L57.8473 46.9866L57.8477 46.9831M74.5618 53.7493C75.8365 52.949 75.8365 52.9489 75.8365 52.949M75.8365 52.949C75.5695 52.5238 75.1081 52.2597 74.6062 52.2449C74.1058 52.2302 73.631 52.4652 73.3392 52.8717C73.3389 52.8721 73.3383 52.873 73.338 52.8734C73.3377 52.8737 73.3375 52.874 73.3373 52.8743C73.3371 52.8746 73.3368 52.875 73.3366 52.8753L73.335 52.8775C73.3297 52.8846 73.3198 52.8979 73.3054 52.9169C73.2765 52.9549 73.2294 53.0155 73.1651 53.0943C73.0362 53.2522 72.8393 53.4813 72.5807 53.7484C72.0593 54.2867 71.3097 54.9554 70.3832 55.5083C68.5742 56.5878 66.1389 57.2225 63.2117 55.5783C60.1905 53.8813 58.8827 51.686 58.3019 49.9599C58.0069 49.0834 57.8951 48.312 57.8566 47.7688C57.8374 47.498 57.8366 47.2867 57.8399 47.1511C57.8415 47.0834 57.8441 47.0349 57.8459 47.0076C57.8468 46.994 57.8474 46.9858 57.8477 46.9831M57.8477 46.9831C57.8478 46.9818 57.8479 46.9816 57.8477 46.9831Z" stroke="#19AA33" stroke-width="3.01" stroke-linecap="round" stroke-linejoin="round"/>
<path d="M37.6431 54.667C48.6252 59.5301 51.7005 64.8711 50.6704 69.3337" stroke="#19AA33" stroke-width="2.71237"/>
<path d="M106.357 83.2518C95.604 84.5431 89.208 84.8017 85.2144 78.667" stroke="#19AA33" stroke-width="2.71237"/>
<path d="M36.3216 61.4649V60.3899H35.9632L35.6765 60.605L36.3216 61.4649ZM35.7473 63.4486L35.1721 64.3568L35.1734 64.3576L35.7473 63.4486ZM36.9084 61.639L36.3208 62.5392L36.3283 62.5441L36.3359 62.5489L36.9084 61.639ZM103.589 92.2534L103.547 93.3276H103.549L103.589 92.2534ZM103.71 92.2579L103.67 93.3321L103.673 93.3323L103.71 92.2579ZM103.74 92.2589L103.703 93.3333H103.704L103.74 92.2589ZM103.748 92.2592L103.712 93.3336L103.717 93.3338L103.748 92.2592ZM103.748 92.2592L104.496 91.4865L104.196 91.1965L103.779 91.1846L103.748 92.2592ZM103.887 94.3947L104.06 95.4557L104.47 95.389L104.728 95.0642L103.887 94.3947ZM103.657 94.4073L103.713 93.3338L103.704 93.3333L103.693 93.333L103.657 94.4073ZM103.634 94.4066L103.594 95.4808L103.597 95.4809L103.634 94.4066ZM103.505 94.4018L103.463 95.4759L103.465 95.476L103.505 94.4018ZM80.2239 90.268L79.6688 91.1886L79.731 91.2261L79.7976 91.2549L80.2239 90.268ZM35.75 63.4503L35.176 64.3593L35.177 64.3599L35.75 63.4503ZM80.2239 90.268L79.7976 91.2549L80.7479 89.3294L80.2239 90.268ZM36.8967 61.6317L36.3347 62.5481L37.47 60.7223L36.8967 61.6317ZM36.8967 61.6317L36.3225 62.5404L36.3283 62.5441L36.3347 62.5481L36.8967 61.6317ZM35.6765 60.605C34.8404 61.2323 34.5962 62.068 34.5726 62.707C34.5611 63.0161 34.5995 63.2826 34.64 63.4721C34.6606 63.5682 34.6826 63.6486 34.7013 63.7097C34.7107 63.7402 34.7195 63.7669 34.7273 63.7893C34.7312 63.8003 34.7353 63.8117 34.7396 63.8232C34.7415 63.8283 34.7448 63.8369 34.7489 63.8472C34.7505 63.8512 34.7551 63.8627 34.7614 63.8771C34.7638 63.8825 34.7718 63.901 34.7831 63.924C34.7899 63.9374 34.8091 63.9733 34.8219 63.9957C34.8517 64.0432 35.0156 64.2362 35.1721 64.3568L36.3225 62.5404C36.4789 62.661 36.6429 62.854 36.6727 62.9015C36.6855 62.9239 36.7047 62.9598 36.7114 62.9731C36.7228 62.9961 36.7307 63.0144 36.733 63.0197C36.7392 63.0338 36.7436 63.0448 36.7449 63.0482C36.7486 63.0573 36.7512 63.0642 36.7522 63.0669C36.7548 63.0737 36.7564 63.0782 36.757 63.0801C36.7583 63.0842 36.7585 63.0843 36.757 63.0801C36.7545 63.072 36.7487 63.0516 36.7424 63.0221C36.7293 62.9606 36.7178 62.8764 36.7211 62.7865C36.7244 62.698 36.7413 62.6191 36.7726 62.5511C36.8012 62.4892 36.8531 62.4101 36.9667 62.3248L35.6765 60.605ZM37.4959 60.7387C37.1578 60.5181 36.753 60.3899 36.3216 60.3899L36.3225 62.5404C36.3236 62.5408 36.3243 62.5404 36.3225 62.5404C36.3216 62.5402 36.3207 62.5392 36.3208 62.5392L37.4959 60.7387ZM37.4943 60.7376L37.4808 60.7291L36.3359 62.5489L36.3494 62.5574L37.4943 60.7376ZM37.5765 60.7892L37.4943 60.7376L36.3494 62.5574L36.4323 62.6095L37.5765 60.7892ZM37.8998 60.9923L37.5765 60.7892L36.4323 62.6095L36.7563 62.813L37.8998 60.9923ZM39.1333 61.7658C38.6003 61.4319 38.1834 61.1703 37.8998 60.9923L36.7563 62.813C37.0405 62.9914 37.4582 63.2534 37.9916 63.5877L39.1333 61.7658ZM43.5818 64.547C41.7286 63.3908 40.1992 62.4337 39.1333 61.7658L37.9916 63.5877C39.0586 64.2562 40.5892 65.214 42.4438 66.3711L43.5818 64.547ZM57.4685 73.1537C52.2898 69.9684 47.2887 66.8597 43.5818 64.547L42.4438 66.3711C46.153 68.6853 51.1583 71.7966 56.3422 74.985L57.4685 73.1537ZM72.4088 82.2122C67.9999 79.5983 62.6488 76.3398 57.4685 73.1537L56.3422 74.985C61.5261 78.1734 66.8886 81.4389 71.3124 84.0616L72.4088 82.2122ZM81.5024 87.3072C80.2301 86.7579 76.8847 84.8658 72.4088 82.2122L71.3124 84.0616C75.7359 86.6841 79.2211 88.6641 80.65 89.2811L81.5024 87.3072ZM95.5522 90.5179C90.8551 89.9569 85.3523 88.97 81.5024 87.3072L80.65 89.2811C84.8034 91.0749 90.5695 92.0881 95.2972 92.6528L95.5522 90.5179ZM101.42 91.0596C99.935 90.9618 97.8697 90.7947 95.5522 90.5179L95.2972 92.6528C97.6611 92.9351 99.7654 93.1053 101.279 93.205L101.42 91.0596ZM103.165 91.159C102.757 91.1399 102.162 91.1085 101.42 91.0596L101.279 93.205C102.035 93.2548 102.644 93.287 103.064 93.3067L103.165 91.159ZM103.63 91.1792C103.526 91.1751 103.369 91.1686 103.165 91.159L103.064 93.3067C103.274 93.3165 103.437 93.3233 103.547 93.3276L103.63 91.1792ZM103.749 91.1836L103.628 91.1791L103.549 93.3276L103.67 93.3321L103.749 91.1836ZM103.776 91.1845L103.746 91.1835L103.673 93.3323L103.703 93.3333L103.776 91.1845ZM103.782 91.1847L103.775 91.1845L103.704 93.3333L103.711 93.3336L103.782 91.1847ZM103.784 91.1848L103.782 91.1847L103.711 93.3336H103.712L103.784 91.1848ZM104.728 95.0642C105.455 94.151 105.416 93.2046 105.162 92.5255C105.043 92.2093 104.884 91.9595 104.759 91.7917C104.695 91.7061 104.637 91.6371 104.591 91.5864C104.568 91.561 104.548 91.5398 104.532 91.5232C104.524 91.5148 104.517 91.5076 104.511 91.5015C104.508 91.4984 104.505 91.4956 104.503 91.4931C104.501 91.4919 104.5 91.4907 104.499 91.4896C104.498 91.489 104.498 91.4885 104.497 91.488C104.497 91.4877 104.497 91.4874 104.496 91.4872C104.496 91.4869 104.495 91.4865 103.748 92.2592C103.001 93.0319 103.001 93.0316 103 93.0312C103 93.0314 103 93.0311 103 93.0312C103 93.0307 102.999 93.0296 102.998 93.0292C102.997 93.0283 102.996 93.0275 102.996 93.0267C102.994 93.0252 102.993 93.0239 102.992 93.0228C102.989 93.0205 102.988 93.0191 102.987 93.0183C102.986 93.017 102.988 93.0186 102.992 93.0228C103 93.0315 103.015 93.0498 103.035 93.076C103.076 93.1319 103.12 93.204 103.149 93.2804C103.176 93.3537 103.183 93.4121 103.177 93.4609C103.173 93.5016 103.154 93.5895 103.046 93.7252L104.728 95.0642ZM103.6 95.4808C103.751 95.4889 103.906 95.4808 104.06 95.4557L103.715 93.3337C103.713 93.3339 103.713 93.3338 103.713 93.3338L103.6 95.4808ZM103.597 95.4809L103.62 95.4817L103.693 93.333L103.671 93.3322L103.597 95.4809ZM103.465 95.476L103.594 95.4808L103.674 93.3323L103.545 93.3275L103.465 95.476ZM102.963 95.4543C103.179 95.4645 103.348 95.4715 103.463 95.4759L103.547 93.3276C103.437 93.3233 103.274 93.3165 103.064 93.3067L102.963 95.4543ZM101.137 95.3503C101.909 95.4011 102.531 95.434 102.963 95.4543L103.064 93.3067C102.644 93.287 102.035 93.2548 101.279 93.205L101.137 95.3503ZM95.0422 94.7876C97.4525 95.0755 99.5959 95.2488 101.137 95.3503L101.279 93.205C99.7654 93.1053 97.6611 92.9351 95.2972 92.6528L95.0422 94.7876ZM79.7976 91.2549C84.2542 93.1797 90.2836 94.2192 95.0422 94.7876L95.2972 92.6528C90.5695 92.0881 84.8034 91.0749 80.65 89.2811L79.7976 91.2549ZM80.779 89.3474L36.3024 62.5281L35.1922 64.3692L79.6688 91.1886L80.779 89.3474ZM35.1734 64.3576L35.176 64.3593L36.3239 62.5413L36.3208 62.5392L35.1734 64.3576ZM35.1734 64.3576L35.176 64.3593L36.3239 62.5413L36.3208 62.5392L35.1734 64.3576ZM35.177 64.3599L35.183 64.3637L36.3283 62.5441L36.3225 62.5404L35.177 64.3599ZM35.177 64.3599L35.183 64.3637L36.3283 62.5441L36.3225 62.5404L35.177 64.3599ZM35.183 64.3637L35.2049 64.3774L36.3494 62.5574L36.3283 62.5441L35.183 64.3637ZM35.183 64.3637L35.2049 64.3774L36.3494 62.5574L36.3283 62.5441L35.183 64.3637ZM35.2049 64.3774L35.2884 64.4299L36.4323 62.6095L36.3494 62.5574L35.2049 64.3774ZM35.2049 64.3774L35.2884 64.4299L36.4323 62.6095L36.3494 62.5574L35.2049 64.3774ZM35.2884 64.4299L35.6132 64.6339L36.7563 62.813L36.4323 62.6095L35.2884 64.4299ZM35.2884 64.4299L35.6132 64.6339L36.7563 62.813L36.4323 62.6095L35.2884 64.4299ZM35.6132 64.6339C35.8979 64.8126 36.3161 65.075 36.85 65.4096L37.9916 63.5877C37.4582 63.2534 37.0405 62.9914 36.7563 62.813L35.6132 64.6339ZM35.6132 64.6339L36.85 65.4096L37.9916 63.5877L36.7563 62.813L35.6132 64.6339ZM36.85 65.4096C37.918 66.0788 39.4498 67.0373 41.3057 68.1952L42.4438 66.3711C40.5892 65.214 39.0586 64.2562 37.9916 63.5877L36.85 65.4096ZM36.851 65.4102L41.3057 68.1952L42.4438 66.3711L37.9907 63.5871L36.851 65.4102ZM41.3057 68.1952C45.0173 70.5109 50.0267 73.6247 55.2158 76.8163L56.3422 74.985C51.1583 71.7966 46.153 68.6853 42.4438 66.3711L41.3057 68.1952ZM41.3084 68.1969L55.2127 76.8144L56.3453 74.9869L42.4411 66.3694L41.3084 68.1969ZM55.2158 76.8163C60.4033 80.0069 65.7773 83.2795 70.2159 85.911L71.3124 84.0616C66.8886 81.4389 61.5261 78.1734 56.3422 74.985L55.2158 76.8163ZM55.2216 76.8199L70.2068 85.9055L71.3215 84.0671L56.3363 74.9814L55.2216 76.8199ZM70.2159 85.911C74.5879 88.503 78.2122 90.5703 79.7976 91.2549L80.65 89.2811C79.2211 88.6641 75.7359 86.6841 71.3124 84.0616L70.2159 85.911ZM70.2401 85.9249L79.6997 91.2066L80.7479 89.3294L71.2882 84.0477L70.2401 85.9249ZM37.47 60.7223C37.4704 60.7225 37.4699 60.7222 37.47 60.7223C37.4699 60.7223 37.469 60.7216 37.4688 60.7215C37.4687 60.7214 37.468 60.721 37.4672 60.7205C37.467 60.7204 37.4656 60.7195 37.4638 60.7184C37.4635 60.7182 37.4604 60.7163 37.4565 60.7139C37.4562 60.7137 37.4483 60.7089 37.4384 60.7031C37.4352 60.7013 37.4274 60.6968 37.4228 60.6941C37.4151 60.6899 37.3924 60.6778 37.3774 60.6701C37.3359 60.6504 36.8769 60.5567 36.4632 60.6478C35.8422 61.4221 36.1698 62.4237 36.2227 62.4691C36.2395 62.4824 36.265 62.5015 36.2734 62.5075C36.2784 62.5111 36.2867 62.5168 36.2901 62.5191C36.2964 62.5234 36.3006 62.5268 36.3024 62.5281C36.3068 62.531 36.311 62.5331 36.312 62.5337C36.3146 62.5354 36.3166 62.5367 36.3171 62.537C36.3185 62.5379 36.3196 62.5386 36.3199 62.5388C36.3206 62.5392 36.3207 62.5391 36.3208 62.5392C36.3207 62.5392 36.3216 62.5402 36.3225 62.5404L37.471 60.7229C37.4697 60.7221 37.4717 60.7233 37.4733 60.7243C37.4735 60.7245 37.4746 60.7252 37.476 60.7261C37.4765 60.7264 37.4782 60.7274 37.4808 60.7291C37.4818 60.7297 37.4855 60.7322 37.4899 60.7351C37.4917 60.7364 37.4967 60.7397 37.5031 60.744C37.5064 60.7463 37.5147 60.7521 37.5197 60.7556C37.5281 60.7616 37.5536 60.7807 37.5704 60.794C37.6233 60.8394 37.9509 61.841 37.3299 62.6153C36.9162 62.7064 36.4572 62.6127 36.4157 62.593C36.4007 62.5854 36.378 62.5732 36.3703 62.569C36.3657 62.5663 36.3579 62.5618 36.3547 62.56C36.3448 62.5542 36.3363 62.5491 36.3359 62.5489C36.332 62.5465 36.3296 62.5449 36.3293 62.5447C36.3275 62.5436 36.3261 62.5427 36.3259 62.5426C36.3251 62.5421 36.324 62.5414 36.3239 62.5413L37.47 60.7223ZM80.9267 60.7984C81.9353 60.1718 82.2449 58.8461 81.6183 57.8375L79.792 58.9721L80.9267 60.7984ZM74.4418 64.8274L80.9267 60.7984L79.792 58.9721L73.3071 63.0011L74.4418 64.8274ZM71.4809 64.1357C72.1075 65.1443 73.4332 65.454 74.4418 64.8274L73.3071 63.0011L71.4809 64.1357ZM72.1725 61.1749C71.1639 61.8015 70.8543 63.1271 71.4809 64.1357L73.3071 63.0011L72.1725 61.1749ZM78.6574 57.1459L72.1725 61.1749L73.3071 63.0011L79.792 58.9721L78.6574 57.1459ZM81.6183 57.8375C80.9917 56.8289 79.666 56.5193 78.6574 57.1459L79.792 58.9721L81.6183 57.8375ZM82.3135 64.8596C83.3395 64.2618 83.6867 62.9456 83.0889 61.9196L81.2312 63.0018L82.3135 64.8596ZM77.3002 67.7802L82.3135 64.8596L81.2312 63.0018L76.2179 65.9225L77.3002 67.7802ZM74.3602 67.0048C74.9579 68.0308 76.2742 68.3779 77.3002 67.7802L76.2179 65.9225L74.3602 67.0048ZM75.1356 64.0648C74.1096 64.6625 73.7624 65.9788 74.3602 67.0048L76.2179 65.9225L75.1356 64.0648ZM80.1489 61.1441L75.1356 64.0648L76.2179 65.9225L81.2312 63.0018L80.1489 61.1441ZM83.0889 61.9196C82.4912 60.8936 81.1749 60.5464 80.1489 61.1441L81.2312 63.0018L83.0889 61.9196ZM85.2242 67.7802C86.2502 67.1825 86.5974 65.8662 85.9997 64.8402L84.1419 65.9225L85.2242 67.7802ZM80.2109 70.7009L85.2242 67.7802L84.1419 65.9225L79.1286 68.8431L80.2109 70.7009ZM77.2709 69.9254C77.8686 70.9514 79.1849 71.2986 80.2109 70.7009L79.1286 68.8431L77.2709 69.9254ZM78.0463 66.9854C77.0203 67.5831 76.6732 68.8994 77.2709 69.9254L79.1286 68.8431L78.0463 66.9854ZM83.0597 64.0648L78.0463 66.9854L79.1286 68.8431L84.1419 65.9225L83.0597 64.0648ZM85.9997 64.8402C85.402 63.8142 84.0857 63.467 83.0597 64.0648L84.1419 65.9225L85.9997 64.8402ZM60.7974 56.5522C61.8386 55.9813 62.2199 54.6745 61.649 53.6333L59.7638 54.667L60.7974 56.5522ZM48.3943 63.3528L60.7974 56.5522L59.7638 54.667L47.3606 61.4676L48.3943 63.3528ZM45.4754 62.5013C46.0463 63.5424 47.3531 63.9237 48.3943 63.3528L47.3606 61.4676L45.4754 62.5013ZM46.327 59.5824C45.2858 60.1533 44.9045 61.4601 45.4754 62.5013L47.3606 61.4676L46.327 59.5824ZM58.7301 52.7818L46.327 59.5824L47.3606 61.4676L59.7638 54.667L58.7301 52.7818ZM61.649 53.6333C61.0781 52.5922 59.7713 52.2109 58.7301 52.7818L59.7638 54.667L61.649 53.6333ZM92.4098 77.6812C93.4891 77.1862 93.9627 75.9099 93.4677 74.8306L91.5135 75.727L92.4098 77.6812ZM73.2986 86.4471L92.4098 77.6812L91.5135 75.727L72.4023 84.4929L73.2986 86.4471ZM70.448 85.3892C70.9431 86.4685 72.2193 86.9422 73.2986 86.4471L72.4023 84.4929L70.448 85.3892ZM71.5059 82.5386C70.4266 83.0337 69.953 84.3099 70.448 85.3892L72.4023 84.4929L71.5059 82.5386ZM90.6171 73.7727L71.5059 82.5386L72.4023 84.4929L91.5135 75.727L90.6171 73.7727ZM93.4677 74.8306C92.9726 73.7513 91.6964 73.2777 90.6171 73.7727L91.5135 75.727L93.4677 74.8306Z" fill="#19AA33"/>
</g>
</g>
<defs>
<filter id="filter0_d_1_206" x="-18" y="-16" width="178" height="178" filterUnits="userSpaceOnUse" color-interpolation-filters="sRGB">
<feFlood flood-opacity="0" result="BackgroundImageFix"/>
<feColorMatrix in="SourceAlpha" type="matrix" values="0 0 0 0 0 0 0 0 0 0 0 0 0 0 0 0 0 0 127 0" result="hardAlpha"/>
<feMorphology radius="2" operator="dilate" in="SourceAlpha" result="effect1_dropShadow_1_206"/>
<feOffset dy="2"/>
<feGaussianBlur stdDeviation="8"/>
<feComposite in2="hardAlpha" operator="out"/>
<feColorMatrix type="matrix" values="0 0 0 0 0 0 0 0 0 0 0 0 0 0 0 0 0 0 0.067 0"/>
<feBlend mode="normal" in2="BackgroundImageFix" result="effect1_dropShadow_1_206"/>
<feBlend mode="normal" in="SourceGraphic" in2="effect1_dropShadow_1_206" result="shape"/>
</filter>
<clipPath id="clip0_1_206">
<rect width="80" height="80" fill="white" transform="translate(31 31)"/>
</clipPath>
</defs>
</svg>
