<svg width="178" height="178" viewBox="0 0 178 178" fill="none" xmlns="http://www.w3.org/2000/svg">
<g filter="url(#filter0_d_1_206)">
<rect x="18" y="16" width="142" height="142" rx="71" fill="white"/>
<g clip-path="url(#clip0_1_206)">
<path d="M93.7213 67.8389C93.6332 67.5533 93.5351 67.2192 93.4304 66.8623C93.2539 66.2611 93.0583 65.5948 92.8589 64.9846C92.5319 63.9834 92.1263 62.9046 91.5936 62.0153C91.0853 61.1668 90.2819 60.1879 89.0336 59.9046C87.7074 59.6036 86.4703 60.2057 85.4081 61.1658C82.6585 63.6514 82.8796 67.1277 83.9657 70.649C84.1435 71.2253 84.2915 71.7757 84.4397 72.3271C84.5033 72.5635 84.5669 72.8001 84.633 73.039C84.8412 73.7925 85.0769 74.5811 85.3957 75.2553C85.7115 75.923 86.1936 76.6657 87.004 77.1156C87.8654 77.5938 88.8207 77.5932 89.7557 77.3181C93.5524 76.1997 94.9087 71.6924 93.7213 67.8389Z" fill="white" stroke="#19AA33" stroke-width="3.01"/>
<path fill-rule="evenodd" clip-rule="evenodd" d="M54.5359 78.667L53 85.4934C53 85.4934 94.5546 108.088 96.011 108.667C97.4674 109.246 106.443 112.659 110.652 111.887C114.861 111.116 117.75 108.667 117.75 108.667C117.75 108.667 107.239 109.083 99.4921 105.269C91.7453 101.454 54.5359 78.667 54.5359 78.667Z" fill="white"/>
<path fill-rule="evenodd" clip-rule="evenodd" d="M55.6431 81.8038C55.6431 81.8038 65.5309 88.0109 69.7304 90.6262C80.9403 97.6072 91.5214 104.616 98.8301 107.65C113.9 113.906 120.491 112.409 123.688 109.395C126.884 106.381 129.178 101.709 123.688 98.1982C118.197 94.6877 119.642 97.9606 112.706 93.047C105.771 88.1334 95.6068 72.5616 94.8911 69.803C94.1754 67.0444 87.9272 74.9179 84.1849 73.5844C80.4426 72.251 78.5733 72.9814 77.8363 69.803C77.0993 66.6246 76.3045 61.7482 75.1342 60.0035C73.9639 58.2588 71.1517 54.9857 66.2339 60.0035C61.3162 65.0212 57.0587 76.5248 57.0587 76.5248L55.6431 81.8038Z" fill="#D1EDD6"/>
<path d="M53 85.6004L51.5208 85.3231M53 85.6004L52.2269 86.8917M53 85.6004C52.2269 86.8917 52.2266 86.8915 52.2269 86.8917M53 85.6004C51.5208 85.3231 51.5207 85.3235 51.5208 85.3231M51.5208 85.3231C51.4047 85.9422 51.6865 86.5681 52.2269 86.8917M51.5208 85.3231L51.5211 85.3212L51.5218 85.3175L51.5243 85.3046L51.5333 85.2578C51.5411 85.2172 51.5526 85.1582 51.5678 85.0818C51.5983 84.9289 51.6437 84.7061 51.7043 84.4213C51.8254 83.8517 52.0074 83.0334 52.2526 82.0292C52.7427 80.0224 53.4875 77.2643 54.5072 74.2604C56.5182 68.3358 59.6985 61.141 64.3211 57.0522C66.3904 55.2219 68.3268 54.343 70.1432 54.5162C72.0038 54.6935 73.2408 55.9207 74.0107 57.1287C74.782 58.339 75.2321 59.745 75.4896 60.7847C75.6213 61.3163 75.709 61.7787 75.7642 62.1109C75.7918 62.2775 75.8115 62.4125 75.8246 62.5084C75.8311 62.5564 75.836 62.5948 75.8394 62.6225L75.8435 62.656L75.8447 62.6667L75.8451 62.6704L75.8453 62.6719C75.8453 62.6725 75.8454 62.6731 74.3496 62.839L124.1 98.8531M52.2269 86.8917L52.2287 86.8928L52.2338 86.8958L52.2539 86.9078L52.3324 86.9547L52.6383 87.1371C52.9067 87.2969 53.3012 87.5313 53.8071 87.8306C54.8188 88.4292 56.2758 89.2872 58.0587 90.3261C61.6239 92.4035 66.495 95.2056 71.7159 98.1026C76.9346 100.998 82.514 103.995 87.4929 106.459C92.4353 108.905 96.8984 110.883 99.8379 111.677C105.442 113.189 108.833 113.655 111.543 113.465C113.695 113.314 115.392 112.737 117.235 112.11C117.697 111.953 118.168 111.792 118.659 111.635C120.96 110.895 123.372 109.024 124.732 106.767C125.422 105.621 125.893 104.289 125.861 102.885C125.827 101.446 125.266 100.053 124.1 98.8531M124.1 98.8531C122.026 96.7167 119.601 95.6963 117.308 94.8517C116.969 94.7266 116.633 94.6057 116.302 94.4861C114.34 93.7785 112.513 93.1193 110.742 91.9417C110.331 91.6683 109.735 91.128 108.973 90.3035C108.227 89.4976 107.383 88.4868 106.478 87.3351C104.669 85.0325 102.662 82.2253 100.783 79.4935C98.907 76.765 97.1695 74.1277 95.9004 72.1714C95.2661 71.1936 94.7494 70.3869 94.3916 69.8251C94.2127 69.5442 94.0735 69.3246 93.9793 69.1755L93.8722 69.0059L93.8452 68.9629L93.8385 68.9523L93.8365 68.949M124.1 98.8531L92.5618 69.7493M92.5618 69.7493L93.8365 68.949M92.5618 69.7493L75.8471 62.9891L75.8473 62.9866L75.8477 62.9831M92.5618 69.7493C93.8365 68.949 93.8365 68.9489 93.8365 68.949M93.8365 68.949C93.5695 68.5238 93.1081 68.2597 92.6062 68.2449C92.1058 68.2302 91.631 68.4652 91.3392 68.8717C91.3389 68.8721 91.3383 68.873 91.338 68.8734C91.3377 68.8737 91.3375 68.874 91.3373 68.8743C91.3371 68.8746 91.3368 68.875 91.3366 68.8753L91.335 68.8775C91.3297 68.8846 91.3198 68.8979 91.3054 68.9169C91.2765 68.9549 91.2294 69.0155 91.1651 69.0943C91.0362 69.2522 90.8393 69.4813 90.5807 69.7484C90.0593 70.2867 89.3097 70.9554 88.3832 71.5083C86.5742 72.5878 84.1389 73.2225 81.2117 71.5783C78.1905 69.8813 76.8827 67.686 76.3019 65.9599C76.0069 65.0834 75.8951 64.312 75.8566 63.7688C75.8374 63.498 75.8366 63.2867 75.8399 63.1511C75.8415 63.0834 75.8441 63.0349 75.8459 63.0076C75.8468 62.994 75.8474 62.9858 75.8477 62.9831M75.8477 62.9831C75.8478 62.9818 75.8479 62.9816 75.8477 62.9831Z" stroke="#19AA33" stroke-width="3.01" stroke-linecap="round" stroke-linejoin="round"/>
<path d="M55.6431 70.667C66.6252 75.5301 69.7005 80.8711 68.6704 85.3337" stroke="#19AA33" stroke-width="2.71237"/>
<path d="M124.357 99.2518C113.604 100.543 107.208 100.802 103.214 94.667" stroke="#19AA33" stroke-width="2.71237"/>
<path d="M54.3216 77.4649V76.3899H53.9632L53.6765 76.605L54.3216 77.4649ZM53.7473 79.4486L53.1721 80.3568L53.1734 80.3576L53.7473 79.4486ZM54.9084 77.639L54.3208 78.5392L54.3283 78.5441L54.3359 78.5489L54.9084 77.639ZM121.589 108.253L121.547 109.328H121.549L121.589 108.253ZM121.71 108.258L121.67 109.332L121.673 109.332L121.71 108.258ZM121.74 108.259L121.703 109.333H121.704L121.74 108.259ZM121.748 108.259L121.712 109.334L121.717 109.334L121.748 108.259ZM121.748 108.259L122.496 107.486L122.196 107.196L121.779 107.185L121.748 108.259ZM121.887 110.395L122.06 111.456L122.47 111.389L122.728 111.064L121.887 110.395ZM121.657 110.407L121.713 109.334L121.704 109.333L121.693 109.333L121.657 110.407ZM121.634 110.407L121.594 111.481L121.597 111.481L121.634 110.407ZM121.505 110.402L121.463 111.476L121.465 111.476L121.505 110.402ZM98.2239 106.268L97.6688 107.189L97.731 107.226L97.7976 107.255L98.2239 106.268ZM53.75 79.4503L53.176 80.3593L53.177 80.3599L53.75 79.4503ZM98.2239 106.268L97.7976 107.255L98.7479 105.329L98.2239 106.268ZM54.8967 77.6317L54.3347 78.5481L55.47 76.7223L54.8967 77.6317ZM54.8967 77.6317L54.3225 78.5404L54.3283 78.5441L54.3347 78.5481L54.8967 77.6317ZM53.6765 76.605C52.8404 77.2323 52.5962 78.068 52.5726 78.707C52.5611 79.0161 52.5995 79.2826 52.64 79.4721C52.6606 79.5682 52.6826 79.6486 52.7013 79.7097C52.7107 79.7402 52.7195 79.7669 52.7273 79.7893C52.7312 79.8003 52.7353 79.8117 52.7396 79.8232C52.7415 79.8283 52.7448 79.8369 52.7489 79.8472C52.7505 79.8512 52.7551 79.8627 52.7614 79.8771C52.7638 79.8825 52.7718 79.901 52.7831 79.924C52.7899 79.9374 52.8091 79.9733 52.8219 79.9957C52.8517 80.0432 53.0156 80.2362 53.1721 80.3568L54.3225 78.5404C54.4789 78.661 54.6429 78.854 54.6727 78.9015C54.6855 78.9239 54.7047 78.9598 54.7114 78.9731C54.7228 78.9961 54.7307 79.0144 54.733 79.0197C54.7392 79.0338 54.7436 79.0448 54.7449 79.0482C54.7486 79.0573 54.7512 79.0642 54.7522 79.0669C54.7548 79.0737 54.7564 79.0782 54.757 79.0801C54.7583 79.0842 54.7585 79.0843 54.757 79.0801C54.7545 79.072 54.7487 79.0516 54.7424 79.0221C54.7293 78.9606 54.7178 78.8764 54.7211 78.7865C54.7244 78.698 54.7413 78.6191 54.7726 78.5511C54.8012 78.4892 54.8531 78.4101 54.9667 78.3248L53.6765 76.605ZM55.4959 76.7387C55.1578 76.5181 54.753 76.3899 54.3216 76.3899L54.3225 78.5404C54.3236 78.5408 54.3243 78.5404 54.3225 78.5404C54.3216 78.5402 54.3207 78.5392 54.3208 78.5392L55.4959 76.7387ZM55.4943 76.7376L55.4808 76.7291L54.3359 78.5489L54.3494 78.5574L55.4943 76.7376ZM55.5765 76.7892L55.4943 76.7376L54.3494 78.5574L54.4323 78.6095L55.5765 76.7892ZM55.8998 76.9923L55.5765 76.7892L54.4323 78.6095L54.7563 78.813L55.8998 76.9923ZM57.1333 77.7658C56.6003 77.4319 56.1834 77.1703 55.8998 76.9923L54.7563 78.813C55.0405 78.9914 55.4582 79.2534 55.9916 79.5877L57.1333 77.7658ZM61.5818 80.547C59.7286 79.3908 58.1992 78.4337 57.1333 77.7658L55.9916 79.5877C57.0586 80.2562 58.5892 81.214 60.4438 82.3711L61.5818 80.547ZM75.4685 89.1537C70.2898 85.9684 65.2887 82.8597 61.5818 80.547L60.4438 82.3711C64.153 84.6853 69.1583 87.7966 74.3422 90.985L75.4685 89.1537ZM90.4088 98.2122C85.9999 95.5983 80.6488 92.3398 75.4685 89.1537L74.3422 90.985C79.5261 94.1734 84.8886 97.4389 89.3124 100.062L90.4088 98.2122ZM99.5024 103.307C98.2301 102.758 94.8847 100.866 90.4088 98.2122L89.3124 100.062C93.7359 102.684 97.2211 104.664 98.65 105.281L99.5024 103.307ZM113.552 106.518C108.855 105.957 103.352 104.97 99.5024 103.307L98.65 105.281C102.803 107.075 108.57 108.088 113.297 108.653L113.552 106.518ZM119.42 107.06C117.935 106.962 115.87 106.795 113.552 106.518L113.297 108.653C115.661 108.935 117.765 109.105 119.279 109.205L119.42 107.06ZM121.165 107.159C120.757 107.14 120.162 107.108 119.42 107.06L119.279 109.205C120.035 109.255 120.644 109.287 121.064 109.307L121.165 107.159ZM121.63 107.179C121.526 107.175 121.369 107.169 121.165 107.159L121.064 109.307C121.274 109.316 121.437 109.323 121.547 109.328L121.63 107.179ZM121.749 107.184L121.628 107.179L121.549 109.328L121.67 109.332L121.749 107.184ZM121.776 107.184L121.746 107.183L121.673 109.332L121.703 109.333L121.776 107.184ZM121.782 107.185L121.775 107.184L121.704 109.333L121.711 109.334L121.782 107.185ZM121.784 107.185L121.782 107.185L121.711 109.334H121.712L121.784 107.185ZM122.728 111.064C123.455 110.151 123.416 109.205 123.162 108.525C123.043 108.209 122.884 107.959 122.759 107.792C122.695 107.706 122.637 107.637 122.591 107.586C122.568 107.561 122.548 107.54 122.532 107.523C122.524 107.515 122.517 107.508 122.511 107.501C122.508 107.498 122.505 107.496 122.503 107.493C122.501 107.492 122.5 107.491 122.499 107.49C122.498 107.489 122.498 107.488 122.497 107.488C122.497 107.488 122.497 107.487 122.496 107.487C122.496 107.487 122.495 107.486 121.748 108.259C121.001 109.032 121.001 109.032 121 109.031C121 109.031 121 109.031 121 109.031C121 109.031 120.999 109.03 120.998 109.029C120.997 109.028 120.996 109.027 120.996 109.027C120.994 109.025 120.993 109.024 120.992 109.023C120.989 109.02 120.988 109.019 120.987 109.018C120.986 109.017 120.988 109.019 120.992 109.023C121 109.031 121.015 109.05 121.035 109.076C121.076 109.132 121.12 109.204 121.149 109.28C121.176 109.354 121.183 109.412 121.177 109.461C121.173 109.502 121.154 109.589 121.046 109.725L122.728 111.064ZM121.6 111.481C121.751 111.489 121.906 111.481 122.06 111.456L121.715 109.334C121.713 109.334 121.713 109.334 121.713 109.334L121.6 111.481ZM121.597 111.481L121.62 111.482L121.693 109.333L121.671 109.332L121.597 111.481ZM121.465 111.476L121.594 111.481L121.674 109.332L121.545 109.327L121.465 111.476ZM120.963 111.454C121.179 111.464 121.348 111.471 121.463 111.476L121.547 109.328C121.437 109.323 121.274 109.316 121.064 109.307L120.963 111.454ZM119.137 111.35C119.909 111.401 120.531 111.434 120.963 111.454L121.064 109.307C120.644 109.287 120.035 109.255 119.279 109.205L119.137 111.35ZM113.042 110.788C115.452 111.075 117.596 111.249 119.137 111.35L119.279 109.205C117.765 109.105 115.661 108.935 113.297 108.653L113.042 110.788ZM97.7976 107.255C102.254 109.18 108.284 110.219 113.042 110.788L113.297 108.653C108.57 108.088 102.803 107.075 98.65 105.281L97.7976 107.255ZM98.779 105.347L54.3024 78.5281L53.1922 80.3692L97.6688 107.189L98.779 105.347ZM53.1734 80.3576L53.176 80.3593L54.3239 78.5413L54.3208 78.5392L53.1734 80.3576ZM53.1734 80.3576L53.176 80.3593L54.3239 78.5413L54.3208 78.5392L53.1734 80.3576ZM53.177 80.3599L53.183 80.3637L54.3283 78.5441L54.3225 78.5404L53.177 80.3599ZM53.177 80.3599L53.183 80.3637L54.3283 78.5441L54.3225 78.5404L53.177 80.3599ZM53.183 80.3637L53.2049 80.3774L54.3494 78.5574L54.3283 78.5441L53.183 80.3637ZM53.183 80.3637L53.2049 80.3774L54.3494 78.5574L54.3283 78.5441L53.183 80.3637ZM53.2049 80.3774L53.2884 80.4299L54.4323 78.6095L54.3494 78.5574L53.2049 80.3774ZM53.2049 80.3774L53.2884 80.4299L54.4323 78.6095L54.3494 78.5574L53.2049 80.3774ZM53.2884 80.4299L53.6132 80.6339L54.7563 78.813L54.4323 78.6095L53.2884 80.4299ZM53.2884 80.4299L53.6132 80.6339L54.7563 78.813L54.4323 78.6095L53.2884 80.4299ZM53.6132 80.6339C53.8979 80.8126 54.3161 81.075 54.85 81.4096L55.9916 79.5877C55.4582 79.2534 55.0405 78.9914 54.7563 78.813L53.6132 80.6339ZM53.6132 80.6339L54.85 81.4096L55.9916 79.5877L54.7563 78.813L53.6132 80.6339ZM54.85 81.4096C55.918 82.0788 57.4498 83.0373 59.3057 84.1952L60.4438 82.3711C58.5892 81.214 57.0586 80.2562 55.9916 79.5877L54.85 81.4096ZM54.851 81.4102L59.3057 84.1952L60.4438 82.3711L55.9907 79.5871L54.851 81.4102ZM59.3057 84.1952C63.0173 86.5109 68.0267 89.6247 73.2158 92.8163L74.3422 90.985C69.1583 87.7966 64.153 84.6853 60.4438 82.3711L59.3057 84.1952ZM59.3084 84.1969L73.2127 92.8144L74.3453 90.9869L60.4411 82.3694L59.3084 84.1969ZM73.2158 92.8163C78.4033 96.0069 83.7773 99.2795 88.2159 101.911L89.3124 100.062C84.8886 97.4389 79.5261 94.1734 74.3422 90.985L73.2158 92.8163ZM73.2216 92.8199L88.2068 101.905L89.3215 100.067L74.3363 90.9814L73.2216 92.8199ZM88.2159 101.911C92.5879 104.503 96.2122 106.57 97.7976 107.255L98.65 105.281C97.2211 104.664 93.7359 102.684 89.3124 100.062L88.2159 101.911ZM88.2401 101.925L97.6997 107.207L98.7479 105.329L89.2882 100.048L88.2401 101.925ZM55.47 76.7223C55.4699 76.7222 55.4704 76.7225 55.47 76.7223C55.4699 76.7223 55.469 76.7216 55.4688 76.7215C55.4687 76.7214 55.468 76.721 55.4672 76.7205C55.467 76.7204 55.4656 76.7195 55.4638 76.7184C55.4635 76.7182 55.4604 76.7163 55.4565 76.7139C55.4562 76.7137 55.4483 76.7089 55.4384 76.7031C55.4352 76.7013 55.4274 76.6968 55.4228 76.6941C55.4151 76.6899 55.3924 76.6778 55.3774 76.6701C55.3359 76.6504 54.8769 76.5567 54.4632 76.6478C53.8422 77.4221 54.1698 78.4237 54.2227 78.4691C54.2395 78.4824 54.265 78.5015 54.2734 78.5075C54.2784 78.5111 54.2867 78.5168 54.2901 78.5191C54.2964 78.5234 54.3006 78.5268 54.3024 78.5281C54.3068 78.531 54.311 78.5331 54.312 78.5337C54.3146 78.5354 54.3166 78.5367 54.3171 78.537C54.3185 78.5379 54.3196 78.5386 54.3199 78.5388C54.3206 78.5392 54.3207 78.5391 54.3208 78.5392C54.3207 78.5392 54.3216 78.5402 54.3225 78.5404L55.471 76.7229C55.4697 76.7221 55.4717 76.7233 55.4733 76.7243C55.4735 76.7245 55.4746 76.7252 55.476 76.7261C55.4765 76.7264 55.4782 76.7274 55.4808 76.7291C55.4818 76.7297 55.4855 76.7322 55.4899 76.7351C55.4917 76.7364 55.4967 76.7397 55.5031 76.744C55.5064 76.7463 55.5147 76.7521 55.5197 76.7556C55.5281 76.7616 55.5536 76.7807 55.5704 76.794C55.6233 76.8394 55.9509 77.841 55.3299 78.6153C54.9162 78.7064 54.4572 78.6127 54.4157 78.593C54.4007 78.5854 54.378 78.5732 54.3703 78.569C54.3657 78.5663 54.3579 78.5618 54.3547 78.56C54.3448 78.5542 54.3363 78.5491 54.3359 78.5489C54.332 78.5465 54.3296 78.5449 54.3293 78.5447C54.3275 78.5436 54.3261 78.5427 54.3259 78.5426C54.3251 78.5421 54.324 78.5414 54.3239 78.5413L55.47 76.7223ZM98.9267 76.7984C99.9353 76.1718 100.245 74.8461 99.6183 73.8375L97.792 74.9721L98.9267 76.7984ZM92.4418 80.8274L98.9267 76.7984L97.792 74.9721L91.3071 79.0011L92.4418 80.8274ZM89.4809 80.1357C90.1075 81.1443 91.4332 81.454 92.4418 80.8274L91.3071 79.0011L89.4809 80.1357ZM90.1725 77.1749C89.1639 77.8015 88.8543 79.1271 89.4809 80.1357L91.3071 79.0011L90.1725 77.1749ZM96.6574 73.1459L90.1725 77.1749L91.3071 79.0011L97.792 74.9721L96.6574 73.1459ZM99.6183 73.8375C98.9917 72.8289 97.666 72.5193 96.6574 73.1459L97.792 74.9721L99.6183 73.8375ZM100.313 80.8596C101.34 80.2618 101.687 78.9456 101.089 77.9196L99.2312 79.0018L100.313 80.8596ZM95.3002 83.7802L100.313 80.8596L99.2312 79.0018L94.2179 81.9225L95.3002 83.7802ZM92.3602 83.0048C92.9579 84.0308 94.2742 84.3779 95.3002 83.7802L94.2179 81.9225L92.3602 83.0048ZM93.1356 80.0648C92.1096 80.6625 91.7624 81.9788 92.3602 83.0048L94.2179 81.9225L93.1356 80.0648ZM98.1489 77.1441L93.1356 80.0648L94.2179 81.9225L99.2312 79.0018L98.1489 77.1441ZM101.089 77.9196C100.491 76.8936 99.1749 76.5464 98.1489 77.1441L99.2312 79.0018L101.089 77.9196ZM103.224 83.7802C104.25 83.1825 104.597 81.8662 104 80.8402L102.142 81.9225L103.224 83.7802ZM98.2109 86.7009L103.224 83.7802L102.142 81.9225L97.1286 84.8431L98.2109 86.7009ZM95.2709 85.9254C95.8686 86.9514 97.1849 87.2986 98.2109 86.7009L97.1286 84.8431L95.2709 85.9254ZM96.0463 82.9854C95.0203 83.5831 94.6732 84.8994 95.2709 85.9254L97.1286 84.8431L96.0463 82.9854ZM101.06 80.0648L96.0463 82.9854L97.1286 84.8431L102.142 81.9225L101.06 80.0648ZM104 80.8402C103.402 79.8142 102.086 79.467 101.06 80.0648L102.142 81.9225L104 80.8402ZM78.7974 72.5522C79.8386 71.9813 80.2199 70.6745 79.649 69.6333L77.7638 70.667L78.7974 72.5522ZM66.3943 79.3528L78.7974 72.5522L77.7638 70.667L65.3606 77.4676L66.3943 79.3528ZM63.4754 78.5013C64.0463 79.5424 65.3531 79.9237 66.3943 79.3528L65.3606 77.4676L63.4754 78.5013ZM64.327 75.5824C63.2858 76.1533 62.9045 77.4601 63.4754 78.5013L65.3606 77.4676L64.327 75.5824ZM76.7301 68.7818L64.327 75.5824L65.3606 77.4676L77.7638 70.667L76.7301 68.7818ZM79.649 69.6333C79.0781 68.5922 77.7713 68.2109 76.7301 68.7818L77.7638 70.667L79.649 69.6333ZM110.41 93.6812C111.489 93.1862 111.963 91.9099 111.468 90.8306L109.514 91.727L110.41 93.6812ZM91.2986 102.447L110.41 93.6812L109.514 91.727L90.4023 100.493L91.2986 102.447ZM88.448 101.389C88.9431 102.468 90.2193 102.942 91.2986 102.447L90.4023 100.493L88.448 101.389ZM89.5059 98.5386C88.4266 99.0337 87.953 100.31 88.448 101.389L90.4023 100.493L89.5059 98.5386ZM108.617 89.7727L89.5059 98.5386L90.4023 100.493L109.514 91.727L108.617 89.7727ZM111.468 90.8306C110.973 89.7513 109.696 89.2777 108.617 89.7727L109.514 91.727L111.468 90.8306Z" fill="#19AA33"/>
</g>
</g>
<defs>
<filter id="filter0_d_1_206" x="0" y="0" width="178" height="178" filterUnits="userSpaceOnUse" color-interpolation-filters="sRGB">
<feFlood flood-opacity="0" result="BackgroundImageFix"/>
<feColorMatrix in="SourceAlpha" type="matrix" values="0 0 0 0 0 0 0 0 0 0 0 0 0 0 0 0 0 0 127 0" result="hardAlpha"/>
<feMorphology radius="2" operator="dilate" in="SourceAlpha" result="effect1_dropShadow_1_206"/>
<feOffset dy="2"/>
<feGaussianBlur stdDeviation="8"/>
<feComposite in2="hardAlpha" operator="out"/>
<feColorMatrix type="matrix" values="0 0 0 0 0 0 0 0 0 0 0 0 0 0 0 0 0 0 0.067 0"/>
<feBlend mode="normal" in2="BackgroundImageFix" result="effect1_dropShadow_1_206"/>
<feBlend mode="normal" in="SourceGraphic" in2="effect1_dropShadow_1_206" result="shape"/>
</filter>
<clipPath id="clip0_1_206">
<rect width="80" height="142" fill="white" transform="translate(49 16)"/>
</clipPath>
</defs>
</svg>
