<svg width="175" height="50" viewBox="0 0 175 50" fill="none" xmlns="http://www.w3.org/2000/svg">
<rect width="175" height="50" rx="25" fill="#19AA33"/>
<path d="M74.1269 37.137C73.1009 37.137 72.2015 36.9723 71.4289 36.643C70.6689 36.3137 70.0735 35.8323 69.6429 35.199C69.2249 34.5783 69.0159 33.8373 69.0159 32.976C69.0159 32.102 69.2249 31.3547 69.6429 30.734C70.0735 30.1133 70.6689 29.6383 71.4289 29.309C72.2015 28.967 73.1072 28.796 74.1459 28.796H77.8319V31H74.1459C73.2465 31 72.5879 31.1647 72.1699 31.494C71.7645 31.8233 71.5619 32.3173 71.5619 32.976C71.5619 33.6347 71.7645 34.1287 72.1699 34.458C72.5879 34.7873 73.2402 34.952 74.1269 34.952C74.4435 34.952 74.8235 34.933 75.2669 34.895C75.7102 34.857 76.2485 34.8 76.8819 34.724L77.2429 36.757C76.6729 36.871 76.1282 36.9597 75.6089 37.023C75.1022 37.099 74.6082 37.137 74.1269 37.137ZM71.9039 30.696C71.2579 30.088 70.7702 29.442 70.4409 28.758C70.1242 28.074 69.9659 27.3457 69.9659 26.573C69.9659 25.8257 70.1052 25.1417 70.3839 24.521C70.6625 23.8877 71.0425 23.343 71.5239 22.887C72.0052 22.431 72.5625 22.0827 73.1959 21.842C73.8419 21.5887 74.5195 21.462 75.2289 21.462C75.6089 21.462 76.0079 21.5 76.4259 21.576C76.8439 21.652 77.2429 21.7533 77.6229 21.88L76.8819 23.951C76.6032 23.8623 76.3309 23.7927 76.0649 23.742C75.8115 23.6913 75.5645 23.666 75.3239 23.666C74.7539 23.666 74.2535 23.7927 73.8229 24.046C73.4049 24.2867 73.0755 24.6223 72.8349 25.053C72.6069 25.4837 72.4929 25.9777 72.4929 26.535C72.4929 27.0417 72.5942 27.5167 72.7969 27.96C73.0122 28.4033 73.3162 28.8023 73.7089 29.157L71.9039 30.696ZM88.8764 31V28.796H90.8714V31H88.8764ZM83.7464 35.712C83.2777 35.712 82.7837 35.674 82.2644 35.598C81.7577 35.5347 81.213 35.446 80.6304 35.332L81.0104 33.299C81.6437 33.375 82.182 33.432 82.6254 33.47C83.0687 33.508 83.4424 33.527 83.7464 33.527C84.6584 33.527 85.317 33.3623 85.7224 33.033C86.1277 32.7037 86.3304 32.2097 86.3304 31.551V23.21L86.9574 23.666H84.5824C84.063 23.666 83.645 23.7293 83.3284 23.856C83.0117 23.97 82.7774 24.217 82.6254 24.597C82.486 24.9643 82.4164 25.528 82.4164 26.288C82.4164 27.01 82.4797 27.5547 82.6064 27.922C82.7457 28.2767 82.9737 28.511 83.2904 28.625C83.607 28.739 84.0377 28.796 84.5824 28.796H86.3304V31H84.5824C83.5057 31 82.619 30.829 81.9224 30.487C81.2257 30.145 80.7064 29.6257 80.3644 28.929C80.035 28.2323 79.8704 27.352 79.8704 26.288C79.8704 25.224 80.035 24.3373 80.3644 23.628C80.7064 22.906 81.2257 22.3677 81.9224 22.013C82.619 21.6457 83.5057 21.462 84.5824 21.462H88.8764V31.551C88.8764 32.4123 88.661 33.1533 88.2304 33.774C87.8124 34.4073 87.217 34.8887 86.4444 35.218C85.6844 35.5473 84.785 35.712 83.7464 35.712ZM90.8714 31V28.796C91.0234 28.796 91.1247 28.8973 91.1754 29.1C91.226 29.29 91.2514 29.556 91.2514 29.898C91.2514 30.2273 91.226 30.4933 91.1754 30.696C91.1247 30.8987 91.0234 31 90.8714 31ZM90.874 31V28.796H99.044L98.189 29.499V25.984C98.189 25.224 97.9484 24.6477 97.467 24.255C96.9984 23.8623 96.251 23.666 95.225 23.666C94.9337 23.666 94.5347 23.6913 94.028 23.742C93.5214 23.78 92.9704 23.8433 92.375 23.932L92.128 21.918C92.6727 21.7913 93.2237 21.6837 93.781 21.595C94.351 21.5063 94.9084 21.462 95.453 21.462C96.4917 21.462 97.4037 21.6457 98.189 22.013C98.9744 22.3677 99.5887 22.8807 100.032 23.552C100.488 24.2233 100.716 25.034 100.716 25.984V31H90.874ZM90.874 31C90.722 31 90.6207 30.8987 90.57 30.696C90.5194 30.4933 90.494 30.2273 90.494 29.898C90.494 29.556 90.5194 29.29 90.57 29.1C90.6207 28.8973 90.722 28.796 90.874 28.796V31ZM94.541 35.047V32.881H97.087V35.047H94.541ZM102.58 35.712C102.416 35.712 102.238 35.7057 102.048 35.693C101.858 35.6803 101.662 35.6613 101.459 35.636L101.554 33.47C101.757 33.4827 101.947 33.4953 102.124 33.508C102.314 33.5207 102.454 33.527 102.542 33.527C103.036 33.527 103.429 33.3307 103.72 32.938C104.024 32.5453 104.176 31.9943 104.176 31.285V21.462H106.722V31.285C106.722 32.1463 106.545 32.9127 106.19 33.584C105.848 34.2553 105.367 34.7747 104.746 35.142C104.126 35.522 103.404 35.712 102.58 35.712Z" fill="white"/>
</svg>
