<svg width="175" height="50" viewBox="0 0 175 50" fill="none" xmlns="http://www.w3.org/2000/svg">
<rect width="175" height="50" rx="25" fill="#19AA33"/>
<path d="M44.3177 31C43.241 31 42.3544 30.829 41.6577 30.487C40.961 30.145 40.4417 29.6257 40.0997 28.929C39.7704 28.2323 39.6057 27.352 39.6057 26.288C39.6057 25.224 39.7704 24.3373 40.0997 23.628C40.4417 22.906 40.961 22.3677 41.6577 22.013C42.3544 21.6457 43.241 21.462 44.3177 21.462H48.6117V29.803H46.0657V23.115L46.6927 23.666H44.3177C43.7984 23.666 43.3804 23.7293 43.0637 23.856C42.747 23.97 42.5127 24.217 42.3607 24.597C42.2214 24.9643 42.1517 25.528 42.1517 26.288C42.1517 27.01 42.215 27.5547 42.3417 27.922C42.481 28.2767 42.709 28.511 43.0257 28.625C43.3424 28.739 43.773 28.796 44.3177 28.796H50.6067V31H44.3177ZM50.6067 31V28.796C50.7587 28.796 50.86 28.8973 50.9107 29.1C50.9614 29.29 50.9867 29.556 50.9867 29.898C50.9867 30.2273 50.9614 30.4933 50.9107 30.696C50.86 30.8987 50.7587 31 50.6067 31ZM41.9997 20.322V18.156H44.5457V20.322H41.9997ZM44.6027 20.322V18.156H47.1487V20.322H44.6027ZM55.3024 31V28.796H57.2974V31H55.3024ZM52.7564 31V17.567H55.3024V31H52.7564ZM50.6094 31V28.796H52.7564V31H50.6094ZM50.6094 31C50.4574 31 50.356 30.8987 50.3054 30.696C50.2547 30.4933 50.2294 30.2273 50.2294 29.898C50.2294 29.556 50.2547 29.29 50.3054 29.1C50.356 28.8973 50.4574 28.796 50.6094 28.796V31ZM57.2974 31V28.796C57.4494 28.796 57.5507 28.8973 57.6014 29.1C57.652 29.29 57.6774 29.556 57.6774 29.898C57.6774 30.2273 57.652 30.4933 57.6014 30.696C57.5507 30.8987 57.4494 31 57.2974 31ZM57.2891 31V28.796H65.4591L64.6041 29.499V25.984C64.6041 25.224 64.3634 24.6477 63.8821 24.255C63.4134 23.8623 62.6661 23.666 61.6401 23.666C61.3487 23.666 60.9497 23.6913 60.4431 23.742C59.9364 23.78 59.3854 23.8433 58.7901 23.932L58.5431 21.918C59.0877 21.7913 59.6387 21.6837 60.1961 21.595C60.7661 21.5063 61.3234 21.462 61.8681 21.462C62.9067 21.462 63.8187 21.6457 64.6041 22.013C65.3894 22.3677 66.0037 22.8807 66.4471 23.552C66.9031 24.2233 67.1311 25.034 67.1311 25.984V31H57.2891ZM57.2891 31C57.1371 31 57.0357 30.8987 56.9851 30.696C56.9344 30.4933 56.9091 30.2273 56.9091 29.898C56.9091 29.556 56.9344 29.29 56.9851 29.1C57.0357 28.8973 57.1371 28.796 57.2891 28.796V31ZM72.6814 31V28.796H75.1324V31H72.6814ZM68.9954 35.712C68.8308 35.712 68.6534 35.7057 68.4634 35.693C68.2734 35.6803 68.0771 35.6613 67.8744 35.636L67.9694 33.47C68.1721 33.4827 68.3621 33.4953 68.5394 33.508C68.7294 33.5207 68.8688 33.527 68.9574 33.527C69.4514 33.527 69.8441 33.3307 70.1354 32.938C70.4394 32.5453 70.5914 31.9943 70.5914 31.285V21.462H73.1374V31.285C73.1374 32.1463 72.9601 32.9127 72.6054 33.584C72.2634 34.2553 71.7821 34.7747 71.1614 35.142C70.5408 35.522 69.8188 35.712 68.9954 35.712ZM75.1324 31V28.796C75.2844 28.796 75.3858 28.8973 75.4364 29.1C75.4871 29.29 75.5124 29.556 75.5124 29.898C75.5124 30.2273 75.4871 30.4933 75.4364 30.696C75.3858 30.8987 75.2844 31 75.1324 31ZM77.2857 31V17.567H79.8317V31H77.2857ZM75.1387 31V28.796H77.2857V31H75.1387ZM75.1387 31C74.9867 31 74.8853 30.8987 74.8347 30.696C74.784 30.4933 74.7587 30.2273 74.7587 29.898C74.7587 29.556 74.784 29.29 74.8347 29.1C74.8853 28.8973 74.9867 28.796 75.1387 28.796V31ZM82.8789 31V17.567H85.4059V31H82.8789ZM103.233 31V28.796H105.228V31H103.233ZM97.7607 35.712C96.6587 35.712 95.6707 35.5093 94.7967 35.104C93.9354 34.7113 93.2577 34.1603 92.7637 33.451C92.2697 32.7417 92.0227 31.9373 92.0227 31.038C92.0227 30.7847 92.0417 30.449 92.0797 30.031C92.1177 29.613 92.1684 29.1443 92.2317 28.625C92.3077 28.1057 92.3837 27.58 92.4597 27.048C92.5484 26.5033 92.6307 25.9777 92.7067 25.471L95.2147 25.813C95.0754 26.6617 94.955 27.4407 94.8537 28.15C94.765 28.8467 94.6954 29.442 94.6447 29.936C94.594 30.43 94.5687 30.791 94.5687 31.019C94.5687 31.5257 94.6954 31.9627 94.9487 32.33C95.202 32.6973 95.563 32.9823 96.0317 33.185C96.513 33.4003 97.0894 33.508 97.7607 33.508C98.4574 33.508 99.021 33.4067 99.4517 33.204C99.8824 33.0013 100.193 32.7227 100.383 32.368C100.585 32.0133 100.687 31.6143 100.687 31.171V17.567H103.233V31.171C103.233 32.083 102.992 32.881 102.511 33.565C102.042 34.249 101.396 34.7747 100.573 35.142C99.7494 35.522 98.812 35.712 97.7607 35.712ZM105.228 31V28.796C105.38 28.796 105.481 28.8973 105.532 29.1C105.582 29.29 105.608 29.556 105.608 29.898C105.608 30.2273 105.582 30.4933 105.532 30.696C105.481 30.8987 105.38 31 105.228 31ZM116.463 31V28.796H118.477V31H116.463ZM105.234 31V28.796H115.095L113.936 29.784V26.288C113.936 25.604 113.86 25.072 113.708 24.692C113.556 24.2993 113.29 24.027 112.91 23.875C112.543 23.7103 112.03 23.628 111.371 23.628C110.852 23.628 110.339 23.666 109.832 23.742C109.338 23.8053 108.952 23.894 108.673 24.008L110.25 22.526C110.174 22.8173 110.098 23.1847 110.022 23.628C109.959 24.0713 109.902 24.5463 109.851 25.053C109.801 25.547 109.775 26.0347 109.775 26.516C109.775 26.9593 109.794 27.4217 109.832 27.903C109.883 28.3843 109.934 28.8087 109.984 29.176C110.048 29.5433 110.098 29.7967 110.136 29.936L107.723 30.601C107.673 30.4237 107.609 30.1323 107.533 29.727C107.457 29.3217 107.388 28.8403 107.324 28.283C107.274 27.7257 107.248 27.1367 107.248 26.516C107.248 25.8827 107.28 25.2747 107.343 24.692C107.407 24.0967 107.476 23.5647 107.552 23.096C107.641 22.6147 107.723 22.2283 107.799 21.937C108.103 21.823 108.578 21.709 109.224 21.595C109.87 21.481 110.586 21.424 111.371 21.424C112.511 21.424 113.455 21.5823 114.202 21.899C114.962 22.2157 115.526 22.7287 115.893 23.438C116.273 24.1473 116.463 25.1037 116.463 26.307V31H105.234ZM105.234 31C105.082 31 104.981 30.8987 104.93 30.696C104.88 30.4933 104.854 30.2273 104.854 29.898C104.854 29.556 104.88 29.29 104.93 29.1C104.981 28.8973 105.082 28.796 105.234 28.796V31ZM118.477 31V28.796C118.629 28.796 118.731 28.8973 118.781 29.1C118.832 29.29 118.857 29.556 118.857 29.898C118.857 30.2273 118.832 30.4933 118.781 30.696C118.731 30.8987 118.629 31 118.477 31ZM118.482 31V28.796H128.02L127.184 29.48V26.896C127.184 26.2373 127.115 25.7117 126.975 25.319C126.836 24.9263 126.621 24.6413 126.329 24.464C126.051 24.2867 125.696 24.198 125.265 24.198H121.104L119.527 21.918L120.496 20.094C120.61 19.8787 120.737 19.6443 120.876 19.391C121.016 19.1377 121.199 18.8337 121.427 18.479C121.655 18.1243 121.947 17.681 122.301 17.149L124.429 18.346C124.1 18.84 123.834 19.2517 123.631 19.581C123.429 19.8977 123.258 20.1763 123.118 20.417C122.979 20.6577 122.852 20.8983 122.738 21.139L121.978 22.564L121.598 21.994H125.265C126.076 21.994 126.766 22.127 127.336 22.393C127.906 22.659 128.362 23.0263 128.704 23.495C129.059 23.9637 129.319 24.4893 129.483 25.072C129.648 25.6547 129.73 26.2627 129.73 26.896V31H118.482ZM118.482 31C118.33 31 118.229 30.8987 118.178 30.696C118.128 30.4933 118.102 30.2273 118.102 29.898C118.102 29.556 118.128 29.29 118.178 29.1C118.229 28.8973 118.33 28.796 118.482 28.796V31ZM132.754 31V17.567H135.281V31H132.754ZM132.868 16.047C132.627 15.7557 132.444 15.477 132.317 15.211C132.19 14.945 132.127 14.66 132.127 14.356C132.127 13.9253 132.241 13.539 132.469 13.197C132.697 12.8423 132.995 12.57 133.362 12.38C133.729 12.1773 134.135 12.076 134.578 12.076C134.819 12.076 135.066 12.1077 135.319 12.171C135.572 12.2343 135.788 12.3293 135.965 12.456L135.319 13.615C135.205 13.5517 135.091 13.5137 134.977 13.501C134.876 13.4757 134.768 13.463 134.654 13.463C134.35 13.463 134.116 13.5453 133.951 13.71C133.786 13.862 133.704 14.071 133.704 14.337C133.704 14.489 133.736 14.6347 133.799 14.774C133.862 14.9133 133.957 15.0653 134.084 15.23L132.868 16.047ZM131.709 16.199V14.812H136.307V16.199H131.709Z" fill="white"/>
</svg>
