<svg width="114" height="46" viewBox="0 0 114 46" fill="none" xmlns="http://www.w3.org/2000/svg">
<rect x="0.484375" y="0.5" width="113.016" height="45" rx="22.5" fill="#12100E"/>
<path d="M58.1585 28.5V26.296H60.1725V28.5H58.1585ZM48.0695 34.808C47.9555 34.124 47.8478 33.459 47.7465 32.813C47.6578 32.167 47.6135 31.597 47.6135 31.103C47.6135 30.115 47.8035 29.26 48.1835 28.538C48.5635 27.8287 49.1018 27.2777 49.7985 26.885C50.4952 26.4923 51.3185 26.296 52.2685 26.296C52.4585 26.296 52.6928 26.296 52.9715 26.296C53.2628 26.296 53.5985 26.296 53.9785 26.296C54.3585 26.296 54.7828 26.296 55.2515 26.296C55.7202 26.296 56.2332 26.296 56.7905 26.296L55.6315 27.398V23.807C55.6315 23.1483 55.5555 22.629 55.4035 22.249C55.2642 21.8563 55.0045 21.5777 54.6245 21.413C54.2572 21.2483 53.7188 21.166 53.0095 21.166C52.5282 21.166 52.0342 21.204 51.5275 21.28C51.0335 21.3433 50.6408 21.432 50.3495 21.546L51.9455 20.064C51.8568 20.368 51.7745 20.748 51.6985 21.204C51.6352 21.66 51.5845 22.135 51.5465 22.629C51.5085 23.1103 51.4895 23.5663 51.4895 23.997C51.4895 24.4657 51.5085 24.9407 51.5465 25.422C51.5845 25.8907 51.6288 26.3087 51.6795 26.676C51.7428 27.0433 51.7935 27.2967 51.8315 27.436L49.4185 28.101C49.3552 27.9237 49.2855 27.6323 49.2095 27.227C49.1462 26.8217 49.0828 26.3467 49.0195 25.802C48.9688 25.2447 48.9435 24.6557 48.9435 24.035C48.9435 23.4143 48.9688 22.8127 49.0195 22.23C49.0828 21.6347 49.1588 21.1027 49.2475 20.634C49.3362 20.1527 49.4185 19.7663 49.4945 19.475C49.8238 19.3483 50.3115 19.2343 50.9575 19.133C51.6035 19.019 52.3002 18.962 53.0475 18.962C53.8708 18.962 54.5738 19.0443 55.1565 19.209C55.7518 19.361 56.2395 19.5827 56.6195 19.874C57.0122 20.1653 57.3225 20.5137 57.5505 20.919C57.7785 21.3117 57.9368 21.755 58.0255 22.249C58.1142 22.743 58.1585 23.2687 58.1585 23.826V28.5C57.6012 28.5 57.0185 28.5 56.4105 28.5C55.8152 28.5 55.2325 28.5 54.6625 28.5C54.1052 28.5 53.6112 28.5 53.1805 28.5C52.7625 28.5 52.4585 28.5 52.2685 28.5C52.0658 28.5 51.8442 28.5253 51.6035 28.576C51.3628 28.6393 51.1285 28.7533 50.9005 28.918C50.6852 29.0953 50.5078 29.355 50.3685 29.697C50.2292 30.0517 50.1595 30.5203 50.1595 31.103C50.1595 31.559 50.1975 32.091 50.2735 32.699C50.3622 33.307 50.4635 34.01 50.5775 34.808H48.0695ZM60.1725 28.5V26.296C60.3118 26.296 60.4068 26.3973 60.4575 26.6C60.5208 26.79 60.5525 27.056 60.5525 27.398C60.5525 27.7273 60.5208 27.9933 60.4575 28.196C60.4068 28.3987 60.3118 28.5 60.1725 28.5ZM60.1758 28.5V26.296H64.6788L63.1968 27.531V18.962H65.7238V28.5H60.1758ZM60.1758 28.5C60.0238 28.5 59.9224 28.3987 59.8718 28.196C59.8211 27.9933 59.7958 27.7273 59.7958 27.398C59.7958 27.056 59.8211 26.79 59.8718 26.6C59.9224 26.3973 60.0238 26.296 60.1758 26.296V28.5ZM60.9358 17.822V15.656H63.4818V17.822H60.9358ZM63.5388 17.822V15.656H66.0848V17.822H63.5388Z" fill="white"/>
</svg>
