<svg width="233" height="65" viewBox="0 0 233 65" fill="none" xmlns="http://www.w3.org/2000/svg">
<rect x="0.5" y="0.5" width="232" height="63.0488" rx="11.5" fill="#F8F9F2"/>
<path d="M45.0265 53.5889H57.7759L63.647 45.4232L64.999 41.7475L57.7243 36.5339L46.9835 35.9926L40.1557 38.8597L37.8354 41.8117L45.0265 53.5889Z" fill="#DDEBCA"/>
<path d="M56.7319 54.0476H36.5543C36.8901 53.8056 36.9714 53.4811 36.937 53.0751C36.8981 52.6106 36.9279 52.1392 36.9279 51.7275C37.4939 51.5222 38.0553 51.3525 38.5847 51.1151C38.6647 51.0815 38.7369 51.0316 38.7967 50.9686C38.8564 50.9056 38.9025 50.8309 38.9319 50.7492C38.9613 50.6675 38.9734 50.5805 38.9675 50.4939C38.9616 50.4072 38.9377 50.3227 38.8975 50.2458C38.7291 49.9224 38.406 49.8272 38.0118 49.982C37.7723 50.076 37.5374 50.1861 37.2922 50.2572C36.3149 50.5405 35.373 50.4235 34.4518 50.0049C34.0267 49.8123 33.6497 49.9453 33.5042 50.2951C33.369 50.6162 33.5329 50.974 33.9236 51.1678C34.142 51.2734 34.367 51.3646 34.5973 51.4408C34.9147 51.5486 35.3742 51.5463 35.5243 51.7631C35.6973 52.0142 35.5999 52.4512 35.6205 52.809C35.6469 53.2597 35.6125 53.7265 36.0364 54.0465H23.6618C23.9986 53.7586 24.1201 53.4341 23.9322 52.9914C23.2786 51.401 22.8245 49.7356 22.5801 48.0335C22.4438 47.1045 22.3659 46.1675 22.2559 45.1847H22.8437C28.0571 45.1847 33.2705 45.1812 38.4839 45.1743C38.6423 45.1611 38.8011 45.1945 38.9408 45.2706C39.0805 45.3466 39.1949 45.4618 39.2699 45.6021C40.7365 47.8603 42.2226 50.1047 43.6996 52.356C44.3229 53.3056 45.1708 53.8802 46.328 53.8836C49.7082 53.8943 53.0883 53.8943 56.4684 53.8836" fill="#19AA33"/>
<path d="M22.3423 16.6691C22.3423 16.6691 23.6027 15.1885 24.509 14.591C25.4153 13.9934 24.509 16.8216 24.509 16.8216L22.3423 16.6691Z" fill="#F5CCA1"/>
<path d="M38.8745 10.008C39.0312 10.0815 39.16 10.2037 39.2415 10.3565C39.3231 10.5092 39.3531 10.6843 39.3271 10.8555C39.3065 11.0975 39.3271 11.3429 39.3271 11.586C39.3271 12.5999 39.8061 13.2043 40.8167 13.3534C41.3781 13.4359 41.9625 13.4004 42.5354 13.4096C43.6491 13.4268 44.7685 13.3442 45.8582 13.6584C49.0951 14.5851 51.3924 17.6346 51.4005 21.0683C51.4112 25.6841 51.4142 30.2998 51.4096 34.9155C51.4096 35.083 51.4096 35.2504 51.4096 35.3903C52.4523 35.505 53.4526 35.5635 54.4357 35.7264C57.6799 36.2643 60.7632 37.5209 63.46 39.4044C64.2965 39.9778 64.7353 40.8035 65 41.7486V42.8668C64.7594 43.8301 64.1842 44.6157 63.648 45.4243C62.8952 46.5574 62.1584 47.6985 61.4033 48.8339C61.1237 49.2559 60.7674 49.3752 60.434 49.1711C60.0811 48.9543 60.0387 48.5713 60.3297 48.1263C61.2876 46.6652 62.2474 45.2052 63.2091 43.7464C64.0685 42.4355 63.8359 41.2141 62.5296 40.3414C58.9994 37.9823 55.1358 36.6416 50.8596 36.7758C46.8608 36.9008 43.2469 38.2529 39.9837 40.5421C38.9719 41.252 38.8001 42.5433 39.5162 43.6386C40.7204 45.4862 41.9396 47.3246 43.1518 49.1665C43.7029 50.0037 44.2598 50.8375 44.8029 51.6804C45.2097 52.3123 45.77 52.6369 46.5274 52.5979C46.5845 52.593 46.642 52.593 46.6992 52.5979C47.4704 52.6965 48.0054 52.5876 48.293 51.6632C48.5806 50.7388 49.401 50.209 50.3245 49.8821C50.558 49.7969 50.7586 49.64 50.8975 49.4337C52.8346 46.3219 54.7615 43.2036 56.678 40.0787C56.9072 39.7106 57.1948 39.4663 57.652 39.4996C57.8679 39.5114 58.0769 39.5799 58.2579 39.6983C58.439 39.8167 58.5857 39.9807 58.6832 40.1739C58.8848 40.534 58.8058 40.8815 58.6534 41.2428C57.2979 44.4609 55.9562 47.6836 54.5915 50.8982C54.4494 51.2331 54.4265 51.5004 54.6099 51.8157C54.7428 52.0451 54.8012 52.3181 54.8975 52.5818C55.4921 52.5818 56.0799 52.6117 56.6631 52.5727C57.2097 52.5371 57.6233 52.2286 57.9235 51.7699C58.2134 51.3432 58.4873 50.9063 58.7771 50.4796C59.0269 50.1138 59.3787 50.0209 59.6938 50.2113C60.0089 50.4016 60.0937 50.795 59.8462 51.1838C59.5391 51.6666 59.232 52.1518 58.8929 52.614C58.2971 53.4271 57.4847 53.8755 56.4729 53.8755C53.0928 53.8854 49.7127 53.8854 46.3326 53.8755C45.1765 53.8755 44.3274 53.3021 43.7041 52.3479C42.2272 50.0966 40.7399 47.8522 39.2744 45.594C39.1994 45.4537 39.085 45.3384 38.9453 45.2624C38.8057 45.1864 38.6468 45.153 38.4884 45.1662C33.275 45.1807 28.0616 45.1842 22.8482 45.1765H22.2604C22.375 46.1605 22.4483 47.0975 22.5846 48.0253C22.829 49.7275 23.2832 51.3929 23.9367 52.9832C24.12 53.4259 24.0032 53.7494 23.6663 54.0384H23.2366C23.0716 53.8514 22.8413 53.6943 22.7508 53.4752C22.0828 51.8628 21.6104 50.1759 21.3437 48.4508C21.2097 47.593 21.1146 46.7305 21 45.867V20.1577C21.0335 20.0514 21.0614 19.9435 21.0836 19.8343C21.2509 18.6965 21.6826 17.6139 22.344 16.6735C22.5732 16.3432 22.9456 16.2744 23.2446 16.4751C23.5437 16.6758 23.5998 17.013 23.4268 17.3502C23.3919 17.4134 23.3537 17.4746 23.3122 17.5337C22.6351 18.5549 22.2788 19.7555 22.289 20.9812C22.289 26.4861 22.289 31.9891 22.289 37.4903C22.289 37.5866 22.3085 37.6829 22.3211 37.8068C22.713 37.0476 23.0498 36.3159 23.4555 35.6278C23.8611 34.9396 24.3572 34.2687 24.7926 33.5795C24.8821 33.4207 24.9279 33.241 24.9255 33.0588C24.9358 31.7697 24.9416 30.4795 24.9255 29.1893C24.914 28.9527 24.8344 28.7245 24.6964 28.5321C23.2962 26.5928 23.2148 23.9722 24.5738 22.0042C24.9429 21.4625 25.2381 20.8739 25.4514 20.254C25.566 19.9444 25.6806 19.6359 25.7952 19.3274L27.444 14.8168C26.5904 14.9464 25.872 15.2755 25.1822 15.6861C24.7949 15.9155 24.4099 15.834 24.2117 15.5014C24.0261 15.1895 24.1372 14.8236 24.5119 14.592C25.5993 13.9176 26.7703 13.4726 28.0639 13.4313C29.0791 13.3981 30.0965 13.4164 31.1129 13.4073C32.3561 13.3969 33.0298 12.726 33.0309 11.5046C33.0309 11.2901 33.0481 11.0734 33.0309 10.8601C33.005 10.6891 33.0336 10.5143 33.1129 10.3607C33.1921 10.207 33.3178 10.0824 33.4721 10.0045H33.9017C34.0557 10.0978 34.1783 10.2349 34.2539 10.3984C34.3294 10.5619 34.3544 10.7442 34.3257 10.922C34.3128 11.0934 34.3128 11.2655 34.3257 11.4369C34.4036 12.9382 33.7528 13.96 32.3435 14.5014C32.2818 14.5346 32.2289 14.5819 32.1891 14.6396C32.1493 14.6972 32.1236 14.7634 32.1143 14.8328C32.1028 16.6804 32.0639 18.5292 32.1235 20.3745C32.1922 22.5053 33.8891 24.1224 36.0822 24.2497C38.1023 24.3644 40.0696 22.8861 40.2426 20.8263C40.4156 18.7666 40.2804 16.6816 40.2804 14.5794C40.2449 14.5644 40.1659 14.5277 40.0891 14.4991C38.666 13.9715 38.0461 13.085 38.0438 11.5746C38.0438 11.3601 38.0587 11.1433 38.0438 10.93C38.0199 10.7537 38.0461 10.5741 38.1192 10.4119C38.1923 10.2497 38.3095 10.1113 38.4575 10.0125L38.8745 10.008ZM26.2421 32.9659H46.179V30.0184C45.9797 30.1239 45.8353 30.2054 45.6818 30.2811C44.8656 30.7057 43.9582 30.9246 43.0384 30.9187C42.6465 30.9118 42.399 30.6836 42.3761 30.3315C42.3532 29.9794 42.5732 29.7099 42.949 29.6434C43.0636 29.6239 43.1782 29.6308 43.2928 29.6216C45.0814 29.4634 46.4128 28.6032 47.1495 26.9586C47.8863 25.314 47.625 23.7783 46.548 22.3551C46.3661 22.1185 46.2191 21.8571 46.1114 21.5787C45.3013 19.4077 44.5073 17.2298 43.7052 15.0576C43.6548 14.9211 43.515 14.725 43.4062 14.7135C42.8333 14.6803 42.2466 14.6975 41.6336 14.6975C41.6336 14.9131 41.6336 15.0679 41.6336 15.2239C41.6336 16.8433 41.6417 18.4626 41.6279 20.082C41.6294 20.497 41.5872 20.911 41.5019 21.3172C40.8843 24.0697 38.3841 25.79 35.5024 25.4849C32.8889 25.2039 30.8321 22.8586 30.8184 20.1313C30.8104 18.4833 30.8184 16.8352 30.8184 15.1872C30.8184 15.0347 30.8184 14.8821 30.8184 14.694C30.2776 14.694 29.7872 14.7124 29.3082 14.6872C28.9908 14.6711 28.8373 14.764 28.7227 15.084C27.9413 17.263 27.1392 19.4421 26.3291 21.6108C26.2281 21.8768 26.0854 22.1249 25.9063 22.3459C25.2597 23.1336 24.9056 24.1212 24.9044 25.1407C24.9031 26.1603 25.2547 27.1487 25.8995 27.938C26.784 29.0172 27.9378 29.5666 29.3369 29.6228C29.8261 29.6423 30.1149 29.9244 30.0862 30.3201C30.0576 30.7157 29.778 30.9153 29.2922 30.9107C28.4596 30.8971 27.6405 30.6985 26.894 30.3292C26.6935 30.2329 26.4964 30.1297 26.2604 30.0127L26.2421 32.9659ZM22.2913 43.8771H38.1114C38.1087 43.8177 38.0991 43.7589 38.0828 43.7017C37.4102 42.1546 37.927 40.3047 39.5425 39.2495C41.4521 37.9809 43.5365 36.9984 45.7299 36.3331C46.3555 36.1473 46.9903 35.9959 47.6949 35.8101C47.3661 35.3582 47.0854 34.9305 46.7577 34.5486C46.6199 34.3994 46.4298 34.3094 46.2272 34.2974C39.5677 34.2852 32.9083 34.2852 26.2489 34.2974C26.1426 34.302 26.0385 34.3294 25.9436 34.3776C25.8487 34.4259 25.7653 34.494 25.6989 34.5772C25.0115 35.7 24.2942 36.809 23.7293 37.9914C22.8505 39.8218 22.399 41.7853 22.2913 43.876V43.8771ZM50.0954 35.4947C50.1057 35.38 50.1194 35.2929 50.1194 35.2091C50.1194 30.4233 50.1194 25.6386 50.1057 20.8527C50.1045 19.6249 49.7203 18.4281 49.0069 17.4293C48.0375 16.0473 46.7153 15.1906 45.0264 14.8213C45.0389 14.9053 45.0565 14.9884 45.0791 15.0702C45.8269 17.1116 46.5766 19.1519 47.3283 21.191C47.389 21.3359 47.4717 21.4706 47.5735 21.5901C49.204 23.6545 49.2521 26.4276 47.7041 28.5745C47.5889 28.7329 47.5221 28.9214 47.5116 29.117C47.4956 30.4497 47.4979 31.7823 47.5116 33.1138C47.518 33.2813 47.5707 33.4437 47.664 33.5829C48.0708 34.1873 48.4947 34.7825 48.9244 35.3731C48.9908 35.4649 49.1089 35.5796 49.2028 35.5784C49.5015 35.5655 49.7995 35.5376 50.0954 35.4947ZM53.4366 50.3214L56.5692 42.861L56.5016 42.8266L52.2117 49.7778L53.4366 50.3214ZM49.2887 52.5795H53.4663C53.33 51.7882 52.497 51.0978 51.6227 51.0324C50.5285 50.9499 49.6359 51.5267 49.2887 52.5795Z" fill="black"/>
<path d="M24.208 15.5061C24.4063 15.8387 24.7912 15.9224 25.1785 15.6907C25.866 15.2779 26.5867 14.951 27.4403 14.8214L25.7915 19.332C25.677 19.6405 25.5624 19.949 25.4478 20.2587C25.2344 20.8786 24.9392 21.4672 24.5701 22.0088C23.2112 23.9768 23.2925 26.5963 24.6927 28.5368C24.8307 28.7291 24.9103 28.9573 24.9219 29.1939C24.9425 30.483 24.9368 31.7732 24.9219 33.0634C24.9243 33.2457 24.8784 33.4253 24.789 33.5841C24.3535 34.2722 23.8654 34.9305 23.4518 35.6324C23.0382 36.3343 22.7093 37.0499 22.3175 37.8114C22.3049 37.6864 22.2854 37.5901 22.2854 37.4949C22.2854 31.99 22.2854 26.4869 22.2854 20.9858C22.2751 19.7602 22.6315 18.5595 23.3086 17.5383C23.35 17.4793 23.3883 17.418 23.4232 17.3548C23.5962 17.0177 23.524 16.6667 23.241 16.4798" fill="#F5CCA1"/>
<path d="M38.4444 10.008C38.2965 10.1068 38.1793 10.2452 38.1061 10.4074C38.033 10.5696 38.0069 10.7492 38.0308 10.9255C38.0491 11.1388 38.0308 11.3544 38.0308 11.5701C38.0308 13.0816 38.6529 13.967 40.076 14.4946C40.1551 14.5244 40.2319 14.5599 40.2674 14.5748C40.2674 16.677 40.4026 18.762 40.2296 20.8218C40.0566 22.8816 38.0892 24.3622 36.0692 24.2452C33.8761 24.1179 32.1734 22.5008 32.1104 20.3699C32.0508 18.5246 32.0898 16.6759 32.1012 14.8283C32.1106 14.7589 32.1362 14.6926 32.1761 14.635C32.2159 14.5774 32.2688 14.5301 32.3304 14.4969C33.7397 13.9544 34.3928 12.9337 34.3126 11.4324C34.2998 11.261 34.2998 11.0889 34.3126 10.9175C34.3414 10.7397 34.3164 10.5573 34.2408 10.3939C34.1653 10.2304 34.0427 10.0932 33.8887 10L38.4444 10.008Z" fill="#F5CCA1"/>
<path d="M36.0384 54.0476C35.6144 53.7311 35.6477 53.2608 35.6225 52.8101C35.6018 52.4534 35.6992 52.0153 35.5262 51.7642C35.3761 51.5474 34.9167 51.5509 34.5993 51.4419C34.369 51.3657 34.1439 51.2745 33.9255 51.169C33.5348 50.9751 33.3698 50.6173 33.5062 50.2962C33.6528 49.9521 34.0275 49.8134 34.4538 50.006C35.3704 50.4246 36.3168 50.5416 37.2942 50.2583C37.5405 50.1872 37.7754 50.0783 38.0138 49.9831C38.4079 49.8271 38.731 49.9223 38.8995 50.2469C38.9397 50.3238 38.9635 50.4083 38.9694 50.495C38.9754 50.5816 38.9632 50.6686 38.9338 50.7503C38.9044 50.832 38.8584 50.9068 38.7986 50.9697C38.7389 51.0327 38.6667 51.0826 38.5867 51.1162C38.0573 51.3547 37.4959 51.5233 36.9298 51.7286C36.9298 52.1404 36.9 52.6106 36.939 53.0762C36.9734 53.4822 36.892 53.8056 36.5563 54.0487L36.0384 54.0476Z" fill="black"/>
<path d="M21 45.8762C21.1146 46.7375 21.2085 47.5965 21.3437 48.4601C21.6097 50.1847 22.0813 51.8712 22.7485 53.4834C22.839 53.7013 23.0693 53.8607 23.2343 54.0465H21V45.8762Z" fill="white"/>
<path d="M47.5481 39.7922C47.5343 39.3334 47.7177 39.0903 48.0671 39.0238C48.1445 39.0024 48.2255 38.9976 48.3048 39.0096C48.3842 39.0216 48.4601 39.0501 48.5277 39.0934C48.5954 39.1366 48.6532 39.1936 48.6974 39.2607C48.7416 39.3277 48.7712 39.4033 48.7844 39.4825C48.9133 40.0233 49.0124 40.5708 49.0812 41.1225C49.0948 41.2014 49.0921 41.2823 49.0732 41.36C49.0544 41.4378 49.0197 41.5109 48.9715 41.5748C48.9233 41.6387 48.8625 41.6919 48.7928 41.7313C48.7232 41.7707 48.6462 41.7954 48.5667 41.8038C48.4889 41.8225 48.4082 41.8254 48.3293 41.8124C48.2503 41.7993 48.1748 41.7706 48.1072 41.7278C48.0396 41.685 47.9812 41.6291 47.9355 41.5634C47.8899 41.4976 47.8579 41.4234 47.8414 41.345C47.7039 40.806 47.6317 40.2521 47.5481 39.7922Z" fill="black"/>
<path d="M61.3447 41.8346C61.2909 41.9907 61.2289 42.1438 61.1591 42.2933C60.9368 42.6913 60.7145 43.0961 60.4716 43.4792C60.2207 43.8875 59.8712 44.001 59.54 43.8037C59.2089 43.6065 59.1321 43.2441 59.3625 42.8335C59.5928 42.4229 59.8414 41.9894 60.0946 41.572C60.2665 41.2933 60.5529 41.1809 60.8325 41.3208C61.0468 41.4412 61.1912 41.6706 61.3447 41.8346Z" fill="black"/>
<path d="M45.2254 39.8734C45.3239 39.972 45.5691 40.1211 45.6665 40.3322C45.8694 40.7878 46.0431 41.2559 46.1867 41.7336C46.3116 42.1144 46.1466 42.4561 45.8143 42.5743C45.6562 42.6263 45.4842 42.6163 45.3332 42.5463C45.1822 42.4762 45.0634 42.3514 45.0008 42.197C44.7979 41.7093 44.6197 41.2117 44.4669 40.706C44.3363 40.2702 44.6422 39.8757 45.2254 39.8734Z" fill="black"/>
<path d="M42.2819 41.2784C42.3701 41.345 42.5913 41.4413 42.7058 41.611C42.9786 42.0285 43.2303 42.4595 43.4598 42.9024C43.6523 43.2602 43.5606 43.6157 43.2593 43.8004C42.9579 43.985 42.597 43.9151 42.3713 43.5618C42.0825 43.1187 41.8197 42.6592 41.5841 42.1856C41.3687 41.7521 41.6735 41.2842 42.2819 41.2784Z" fill="black"/>
<path d="M53.7156 41.0101C53.7969 40.5651 53.8794 40.0295 53.9975 39.5019C54.0765 39.1476 54.3412 38.9801 54.6976 39.0157C54.7798 39.0248 54.8594 39.0504 54.9316 39.0909C55.0038 39.1314 55.0672 39.186 55.1179 39.2515C55.1687 39.3169 55.2058 39.3919 55.227 39.4719C55.2483 39.552 55.2534 39.6355 55.2418 39.7175C55.1685 40.2531 55.0757 40.7887 54.9542 41.3151C54.9187 41.478 54.8205 41.6203 54.6809 41.7111C54.5412 41.802 54.3714 41.834 54.2083 41.8003C53.8588 41.7062 53.695 41.4642 53.7156 41.0101Z" fill="black"/>
<path d="M52.0306 40.1189C52.0306 40.3758 52.0397 40.6338 52.0306 40.8896C52.0134 41.2543 51.8175 41.4722 51.4519 41.5112C51.3697 41.5237 51.2858 41.519 51.2054 41.4973C51.1251 41.4756 51.0502 41.4373 50.9855 41.3849C50.9208 41.3326 50.8677 41.2673 50.8297 41.1933C50.7916 41.1192 50.7694 41.038 50.7645 40.9549C50.7294 40.385 50.7316 39.8134 50.7713 39.2438C50.7977 38.8917 51.0589 38.6841 51.4267 38.7048C51.5061 38.7026 51.5851 38.7166 51.6588 38.7459C51.7326 38.7753 51.7996 38.8193 51.8558 38.8755C51.912 38.9316 51.9561 38.9986 51.9856 39.0724C52.0151 39.1461 52.0292 39.2252 52.0271 39.3046C52.0443 39.5752 52.0271 39.8471 52.0271 40.1177L52.0306 40.1189Z" fill="black"/>
<path d="M26.2418 32.9659V30.0208C26.4767 30.1354 26.6749 30.241 26.8754 30.3373C27.6219 30.7065 28.441 30.9051 29.2736 30.9187C29.7594 30.9187 30.0401 30.7135 30.0676 30.3281C30.0951 29.9428 29.8064 29.6503 29.3182 29.6308C27.9238 29.5746 26.77 29.0241 25.8808 27.9461C25.2361 27.1568 24.8845 26.1683 24.8857 25.1488C24.887 24.1293 25.2411 23.1417 25.8877 22.354C26.0668 22.133 26.2095 21.8848 26.3105 21.6188C27.1194 19.4478 27.9227 17.2734 28.7041 15.092C28.8187 14.7721 28.9734 14.6792 29.2896 14.6952C29.7731 14.7193 30.259 14.7021 30.7998 14.7021C30.7998 14.8902 30.7998 15.0462 30.7998 15.1952C30.7998 16.8433 30.7929 18.4913 30.7998 20.1394C30.8135 22.8666 32.8714 25.212 35.4838 25.4929C38.3655 25.8026 40.8691 24.0731 41.4832 21.3252C41.5685 20.9191 41.6108 20.5051 41.6093 20.0901C41.623 18.4707 41.615 16.8513 41.615 15.2319C41.615 15.076 41.615 14.9211 41.615 14.7055C42.2269 14.7055 42.8089 14.6883 43.3876 14.7216C43.4953 14.7273 43.6351 14.9234 43.6866 15.0656C44.4944 17.2378 45.2907 19.4157 46.0928 21.5867C46.2004 21.8651 46.3475 22.1266 46.5294 22.3631C47.6064 23.7864 47.8642 25.3335 47.1309 26.9667C46.3976 28.5998 45.0719 29.4645 43.2833 29.6285C43.1687 29.6388 43.0541 29.6285 42.9396 29.6503C42.566 29.7157 42.3449 29.9852 42.3667 30.3384C42.3884 30.6917 42.6371 30.9199 43.0289 30.9256C43.9488 30.9315 44.8561 30.7127 45.6723 30.288C45.8235 30.2123 45.9702 30.1309 46.1696 30.0253V32.9728L26.2418 32.9659Z" fill="#19AA33"/>
<path d="M22.291 43.876C22.3987 41.7876 22.8502 39.8218 23.7279 37.9857C24.2927 36.8033 25.0157 35.692 25.6975 34.5715C25.7639 34.4882 25.8473 34.4202 25.9422 34.3719C26.037 34.3236 26.1411 34.2963 26.2475 34.2917C32.9069 34.2771 39.5663 34.2771 46.2257 34.2917C46.4283 34.3037 46.6184 34.3937 46.7562 34.5428C47.0851 34.9305 47.3658 35.3582 47.6935 35.8044C46.99 35.9902 46.354 36.1415 45.7284 36.3273C43.5351 36.9927 41.4506 37.9752 39.5411 39.2438C37.9255 40.3001 37.4087 42.15 38.0813 43.6959C38.0976 43.7531 38.1072 43.812 38.11 43.8714L22.291 43.876ZM36.8106 40.4928C36.8156 40.3277 36.7556 40.1672 36.6435 40.046C36.5314 39.9248 36.3762 39.8525 36.2114 39.8448C36.1263 39.8394 36.041 39.851 35.9604 39.8791C35.8799 39.9072 35.8058 39.9511 35.7425 40.0083C35.6792 40.0655 35.6279 40.1347 35.5918 40.212C35.5556 40.2893 35.5353 40.3731 35.5319 40.4583C35.5316 40.631 35.599 40.7968 35.7197 40.9202C35.8403 41.0435 36.0046 41.1145 36.177 41.1178C36.3421 41.1138 36.4994 41.0472 36.6171 40.9313C36.7348 40.8154 36.804 40.659 36.8106 40.4939V40.4928Z" fill="#F5CCA1"/>
<path d="M50.0951 35.4948C49.7976 35.5378 49.4982 35.5657 49.1979 35.5785C49.104 35.5785 48.986 35.4638 48.9195 35.3732C48.4921 34.7826 48.0693 34.1873 47.6591 33.583C47.5659 33.4438 47.5131 33.2814 47.5067 33.1139C47.4953 31.7812 47.493 30.4486 47.5067 29.1171C47.5172 28.9214 47.584 28.733 47.6992 28.5746C49.2472 26.4277 49.1991 23.6534 47.5686 21.5902C47.4668 21.4706 47.3841 21.336 47.3234 21.1911C46.5687 19.1527 45.819 17.1125 45.0742 15.0703C45.0516 14.9885 45.034 14.9054 45.0215 14.8214C46.7161 15.1907 48.0327 16.0474 49.002 17.4294C49.7155 18.4282 50.0996 19.625 50.1008 20.8528C50.118 25.6386 50.1123 30.4233 50.1146 35.2092C50.1192 35.2929 50.1054 35.3755 50.0951 35.4948Z" fill="#F5CCA1"/>
<path d="M53.4365 50.3214L52.207 49.7778L56.4969 42.8267L56.5645 42.8611L53.4365 50.3214Z" fill="#F8F9F2"/>
<path d="M49.2886 52.5796C49.6323 51.5268 50.5283 50.9488 51.6226 51.0325C52.4968 51.099 53.3298 51.7895 53.4662 52.5796H49.2886Z" fill="#F8F9F2"/>
<path d="M36.8109 40.494C36.8046 40.6593 36.7355 40.816 36.6178 40.9321C36.5001 41.0482 36.3426 41.1151 36.1773 41.119C36.0049 41.1157 35.8406 41.0448 35.72 40.9214C35.5993 40.7981 35.5319 40.6322 35.5322 40.4596C35.5356 40.3743 35.5559 40.2906 35.5921 40.2133C35.6283 40.136 35.6795 40.0667 35.7428 40.0095C35.8061 39.9523 35.8802 39.9084 35.9607 39.8804C36.0413 39.8523 36.1266 39.8406 36.2117 39.846C36.3765 39.8538 36.5317 39.926 36.6438 40.0472C36.7559 40.1685 36.8159 40.3289 36.8109 40.494Z" fill="black"/>
<path d="M77.134 44.8324C77.02 44.1484 76.9123 43.4834 76.811 42.8374C76.7223 42.1914 76.678 41.6214 76.678 41.1274C76.678 40.1394 76.868 39.2844 77.248 38.5624C77.628 37.8531 78.1663 37.3021 78.863 36.9094C79.5596 36.5167 80.383 36.3204 81.333 36.3204C81.523 36.3204 81.7573 36.3204 82.036 36.3204C82.3273 36.3204 82.663 36.3204 83.043 36.3204C83.423 36.3204 83.8473 36.3204 84.316 36.3204C84.7846 36.3204 85.2976 36.3204 85.855 36.3204L84.696 37.4224V33.8314C84.696 33.1727 84.62 32.6534 84.468 32.2734C84.3286 31.8807 84.069 31.6021 83.689 31.4374C83.3216 31.2727 82.7833 31.1904 82.074 31.1904C81.5926 31.1904 81.0986 31.2284 80.592 31.3044C80.098 31.3677 79.7053 31.4564 79.414 31.5704L81.01 30.0884C80.9213 30.3924 80.839 30.7724 80.763 31.2284C80.6996 31.6844 80.649 32.1594 80.611 32.6534C80.573 33.1347 80.554 33.5907 80.554 34.0214C80.554 34.4901 80.573 34.9651 80.611 35.4464C80.649 35.9151 80.6933 36.3331 80.744 36.7004C80.8073 37.0677 80.858 37.3211 80.896 37.4604L78.483 38.1254C78.4196 37.9481 78.35 37.6567 78.274 37.2514C78.2106 36.8461 78.1473 36.3711 78.084 35.8264C78.0333 35.2691 78.008 34.6801 78.008 34.0594C78.008 33.4387 78.0333 32.8371 78.084 32.2544C78.1473 31.6591 78.2233 31.1271 78.312 30.6584C78.4006 30.1771 78.483 29.7907 78.559 29.4994C78.8883 29.3727 79.376 29.2587 80.022 29.1574C80.668 29.0434 81.3646 28.9864 82.112 28.9864C82.9353 28.9864 83.6383 29.0687 84.221 29.2334C84.8163 29.3854 85.304 29.6071 85.684 29.8984C86.0766 30.1897 86.387 30.5381 86.615 30.9434C86.843 31.3361 87.0013 31.7794 87.09 32.2734C87.1786 32.7674 87.223 33.2931 87.223 33.8504V38.5244C86.6656 38.5244 86.083 38.5244 85.475 38.5244C84.8796 38.5244 84.297 38.5244 83.727 38.5244C83.1696 38.5244 82.6756 38.5244 82.245 38.5244C81.827 38.5244 81.523 38.5244 81.333 38.5244C81.1303 38.5244 80.9086 38.5497 80.668 38.6004C80.4273 38.6637 80.193 38.7777 79.965 38.9424C79.7496 39.1197 79.5723 39.3794 79.433 39.7214C79.2936 40.0761 79.224 40.5447 79.224 41.1274C79.224 41.5834 79.262 42.1154 79.338 42.7234C79.4266 43.3314 79.528 44.0344 79.642 44.8324H77.134ZM97.0277 38.5244V36.3204H99.0227V38.5244H97.0277ZM89.3137 38.5244V36.3204H96.2107L94.4817 37.8214V34.6294C94.4817 33.7301 94.3867 33.0334 94.1967 32.5394C94.0194 32.0454 93.7154 31.6971 93.2847 31.4944C92.8667 31.2917 92.2904 31.1904 91.5557 31.1904H90.0167V28.9864H91.5557C92.721 28.9864 93.709 29.1764 94.5197 29.5564C95.343 29.9364 95.9637 30.5444 96.3817 31.3804C96.8124 32.2037 97.0277 33.2867 97.0277 34.6294V38.5244H89.3137ZM99.0227 38.5244V36.3204C99.1747 36.3204 99.276 36.4217 99.3267 36.6244C99.3774 36.8144 99.4027 37.0804 99.4027 37.4224C99.4027 37.7517 99.3774 38.0177 99.3267 38.2204C99.276 38.4231 99.1747 38.5244 99.0227 38.5244ZM101.166 38.5244V25.0914H103.712V38.5244H101.166ZM99.0186 38.5244V36.3204H101.166V38.5244H99.0186ZM99.0186 38.5244C98.8666 38.5244 98.7652 38.4231 98.7146 38.2204C98.6639 38.0177 98.6386 37.7517 98.6386 37.4224C98.6386 37.0804 98.6639 36.8144 98.7146 36.6244C98.7652 36.4217 98.8666 36.3204 99.0186 36.3204V38.5244ZM106.759 38.5244V25.0914H109.286V38.5244H106.759ZM129.165 38.5244V36.3204H131.179V38.5244H129.165ZM115.523 38.5244V36.3204H128.785L126.638 38.1824V34.1924C126.638 33.4704 126.543 32.8941 126.353 32.4634C126.163 32.0201 125.884 31.6971 125.517 31.4944C125.162 31.2917 124.731 31.1904 124.225 31.1904C123.68 31.1904 123.167 31.2981 122.686 31.5134C122.204 31.7287 121.748 32.0074 121.318 32.3494C120.9 32.6914 120.513 33.0587 120.159 33.4514C119.804 33.8441 119.487 34.2241 119.209 34.5914C118.93 34.9461 118.689 35.2501 118.487 35.5034L117.917 33.6604C118.436 33.0017 118.917 32.3874 119.361 31.8174C119.817 31.2474 120.292 30.7534 120.786 30.3354C121.28 29.9047 121.824 29.5754 122.42 29.3474C123.015 29.1067 123.705 28.9864 124.491 28.9864C125.339 28.9864 126.055 29.1321 126.638 29.4234C127.233 29.7021 127.721 30.0884 128.101 30.5824C128.481 31.0764 128.753 31.6337 128.918 32.2544C129.082 32.8751 129.165 33.5211 129.165 34.1924V38.5244H115.523ZM116.834 36.3204V25.0914H119.361V36.3204H116.834ZM131.179 38.5244V36.3204C131.331 36.3204 131.432 36.4217 131.483 36.6244C131.533 36.8144 131.559 37.0804 131.559 37.4224C131.559 37.7517 131.533 38.0177 131.483 38.2204C131.432 38.4231 131.331 38.5244 131.179 38.5244ZM131.174 38.5244V36.3204H135.202C135.746 36.3204 136.272 36.2191 136.779 36.0164C137.285 35.8011 137.748 35.5224 138.166 35.1804C138.596 34.8257 138.97 34.4394 139.287 34.0214C139.616 33.5907 139.869 33.1537 140.047 32.7104C140.237 32.2671 140.332 31.8491 140.332 31.4564V30.2404L141.548 32.2544C140.889 31.8997 140.218 31.6337 139.534 31.4564C138.85 31.2791 138.197 31.1904 137.577 31.1904C136.969 31.1904 136.316 31.2791 135.62 31.4564C134.936 31.6337 134.271 31.8997 133.625 32.2544L134.841 30.2404V31.4564C134.841 31.8491 134.929 32.2671 135.107 32.7104C135.297 33.1537 135.55 33.5907 135.867 34.0214C136.183 34.4394 136.557 34.8257 136.988 35.1804C137.418 35.5224 137.887 35.8011 138.394 36.0164C138.9 36.2191 139.42 36.3204 139.952 36.3204H143.866V38.5244H140.75C139.762 38.5244 138.837 38.3661 137.976 38.0494C137.114 37.7327 136.335 37.3147 135.639 36.7954C134.942 36.2634 134.34 35.6871 133.834 35.0664C133.34 34.4331 132.96 33.8061 132.694 33.1854C132.428 32.5521 132.295 31.9757 132.295 31.4564V30.3734C132.839 30.0694 133.416 29.8161 134.024 29.6134C134.644 29.4107 135.259 29.2587 135.867 29.1574C136.487 29.0434 137.057 28.9864 137.577 28.9864C138.109 28.9864 138.679 29.0434 139.287 29.1574C139.895 29.2587 140.503 29.4107 141.111 29.6134C141.731 29.8161 142.314 30.0694 142.859 30.3734V31.4564C142.859 31.9757 142.726 32.5521 142.46 33.1854C142.194 33.8061 141.807 34.4331 141.301 35.0664C140.807 35.6871 140.211 36.2634 139.515 36.7954C138.818 37.3147 138.039 37.7327 137.178 38.0494C136.316 38.3661 135.392 38.5244 134.404 38.5244H131.174ZM131.174 38.5244C131.022 38.5244 130.92 38.4231 130.87 38.2204C130.819 38.0177 130.794 37.7517 130.794 37.4224C130.794 37.0804 130.819 36.8144 130.87 36.6244C130.92 36.4217 131.022 36.3204 131.174 36.3204V38.5244ZM143.866 38.5244V36.3204C144.018 36.3204 144.119 36.4217 144.17 36.6244C144.22 36.8144 144.246 37.0804 144.246 37.4224C144.246 37.7517 144.22 38.0177 144.17 38.2204C144.119 38.4231 144.018 38.5244 143.866 38.5244ZM136.266 27.2384V25.0724H138.812V27.2384H136.266ZM143.865 38.5244V36.3204H158.229L156.082 38.1824V34.1924C156.082 33.4704 155.987 32.8941 155.797 32.4634C155.607 32.0201 155.329 31.6971 154.961 31.4944C154.607 31.2917 154.176 31.1904 153.669 31.1904C153.125 31.1904 152.605 31.2981 152.111 31.5134C151.63 31.7287 151.18 32.0074 150.762 32.3494C150.344 32.6914 149.958 33.0587 149.603 33.4514C149.249 33.8441 148.932 34.2241 148.653 34.5914C148.375 34.9461 148.134 35.2501 147.931 35.5034L147.361 33.6604C147.855 33.0651 148.299 32.5204 148.691 32.0264C149.084 31.5324 149.458 31.0954 149.812 30.7154C150.18 30.3354 150.56 30.0187 150.952 29.7654C151.358 29.5121 151.795 29.3221 152.263 29.1954C152.745 29.0561 153.302 28.9864 153.935 28.9864C154.784 28.9864 155.506 29.1321 156.101 29.4234C156.697 29.7021 157.178 30.0884 157.545 30.5824C157.925 31.0764 158.198 31.6337 158.362 32.2544C158.54 32.8751 158.628 33.5211 158.628 34.1924V38.5244H143.865ZM146.259 36.3204V28.9864H148.805V36.3204H146.259ZM143.865 38.5244C143.713 38.5244 143.612 38.4231 143.561 38.2204C143.511 38.0177 143.485 37.7517 143.485 37.4224C143.485 37.0804 143.511 36.8144 143.561 36.6244C143.612 36.4217 143.713 36.3204 143.865 36.3204V38.5244ZM151.389 27.2574V25.0914H153.935V27.2574H151.389ZM169.942 44.6614C168.916 44.6614 168.017 44.4967 167.244 44.1674C166.484 43.8381 165.889 43.3567 165.458 42.7234C165.04 42.1027 164.831 41.3617 164.831 40.5004C164.831 39.6264 165.04 38.8791 165.458 38.2584C165.889 37.6377 166.484 37.1627 167.244 36.8334C168.017 36.4914 168.923 36.3204 169.961 36.3204H173.647V38.5244H169.961C169.062 38.5244 168.403 38.6891 167.985 39.0184C167.58 39.3477 167.377 39.8417 167.377 40.5004C167.377 41.1591 167.58 41.6531 167.985 41.9824C168.403 42.3117 169.056 42.4764 169.942 42.4764C170.259 42.4764 170.639 42.4574 171.082 42.4194C171.526 42.3814 172.064 42.3244 172.697 42.2484L173.058 44.2814C172.488 44.3954 171.944 44.4841 171.424 44.5474C170.918 44.6234 170.424 44.6614 169.942 44.6614ZM167.719 38.2204C167.073 37.6124 166.586 36.9664 166.256 36.2824C165.94 35.5984 165.781 34.8701 165.781 34.0974C165.781 33.3501 165.921 32.6661 166.199 32.0454C166.478 31.4121 166.858 30.8674 167.339 30.4114C167.821 29.9554 168.378 29.6071 169.011 29.3664C169.657 29.1131 170.335 28.9864 171.044 28.9864C171.424 28.9864 171.823 29.0244 172.241 29.1004C172.659 29.1764 173.058 29.2777 173.438 29.4044L172.697 31.4754C172.419 31.3867 172.146 31.3171 171.88 31.2664C171.627 31.2157 171.38 31.1904 171.139 31.1904C170.569 31.1904 170.069 31.3171 169.638 31.5704C169.22 31.8111 168.891 32.1467 168.65 32.5774C168.422 33.0081 168.308 33.5021 168.308 34.0594C168.308 34.5661 168.41 35.0411 168.612 35.4844C168.828 35.9277 169.132 36.3267 169.524 36.6814L167.719 38.2204ZM179.163 38.5244V36.3204H181.329V38.5244H179.163ZM176.636 38.5244V25.0914H179.163V38.5244H176.636ZM181.329 38.5244V36.3204C181.481 36.3204 181.582 36.4217 181.633 36.6244C181.683 36.8144 181.709 37.0804 181.709 37.4224C181.709 37.7517 181.683 38.0177 181.633 38.2204C181.582 38.4231 181.481 38.5244 181.329 38.5244ZM191.967 38.5244V36.3204H193.962V38.5244H191.967ZM181.327 38.5244V36.3204H190.2L189.421 36.9854V30.6394L190.067 31.1904H187.673C187.116 31.1904 186.679 31.2601 186.362 31.3994C186.045 31.5387 185.824 31.7984 185.697 32.1784C185.57 32.5457 185.507 33.0714 185.507 33.7554C185.507 34.5027 185.57 35.0601 185.697 35.4274C185.824 35.7821 186.045 36.0227 186.362 36.1494C186.679 36.2634 187.116 36.3204 187.673 36.3204V38.2964C186.596 38.2964 185.71 38.1444 185.013 37.8404C184.316 37.5364 183.797 37.0551 183.455 36.3964C183.126 35.7251 182.961 34.8447 182.961 33.7554C182.961 32.7167 183.126 31.8427 183.455 31.1334C183.797 30.4241 184.316 29.8921 185.013 29.5374C185.71 29.1701 186.596 28.9864 187.673 28.9864H191.967V38.5244H181.327ZM181.327 38.5244C181.175 38.5244 181.074 38.4231 181.023 38.2204C180.972 38.0177 180.947 37.7517 180.947 37.4224C180.947 37.0804 180.972 36.8144 181.023 36.6244C181.074 36.4217 181.175 36.3204 181.327 36.3204V38.5244ZM193.962 38.5244V36.3204C194.114 36.3204 194.215 36.4217 194.266 36.6244C194.317 36.8144 194.342 37.0804 194.342 37.4224C194.342 37.7517 194.317 38.0177 194.266 38.2204C194.215 38.4231 194.114 38.5244 193.962 38.5244ZM186.666 27.2384V25.0724H189.212V27.2384H186.666ZM193.963 38.5244V36.3204H198.466L196.984 37.5554V28.9864H199.511V38.5244H193.963ZM193.963 38.5244C193.811 38.5244 193.71 38.4231 193.659 38.2204C193.608 38.0177 193.583 37.7517 193.583 37.4224C193.583 37.0804 193.608 36.8144 193.659 36.6244C193.71 36.4217 193.811 36.3204 193.963 36.3204V38.5244ZM194.723 27.8464V25.6804H197.269V27.8464H194.723ZM197.326 27.8464V25.6804H199.872V27.8464H197.326ZM201.624 43.2364C201.46 43.2364 201.282 43.2301 201.092 43.2174C200.902 43.2047 200.706 43.1857 200.503 43.1604L200.598 40.9944C200.801 41.0071 200.991 41.0197 201.168 41.0324C201.358 41.0451 201.498 41.0514 201.586 41.0514C202.08 41.0514 202.473 40.8551 202.764 40.4624C203.068 40.0697 203.22 39.5187 203.22 38.8094V28.9864H205.766V38.8094C205.766 39.6707 205.589 40.4371 205.234 41.1084C204.892 41.7797 204.411 42.2991 203.79 42.6664C203.17 43.0464 202.448 43.2364 201.624 43.2364ZM208.754 38.5244V25.0914H211.281V38.5244H208.754ZM208.868 44.2054C208.627 43.9141 208.444 43.6354 208.317 43.3694C208.19 43.1034 208.127 42.8184 208.127 42.5144C208.127 42.0837 208.241 41.6911 208.469 41.3364C208.697 40.9944 208.995 40.7221 209.362 40.5194C209.729 40.3294 210.135 40.2344 210.578 40.2344C210.819 40.2344 211.066 40.2661 211.319 40.3294C211.572 40.3927 211.788 40.4877 211.965 40.6144L211.319 41.7734C211.205 41.7101 211.091 41.6657 210.977 41.6404C210.876 41.6277 210.768 41.6214 210.654 41.6214C210.35 41.6214 210.116 41.6974 209.951 41.8494C209.786 42.0141 209.704 42.2294 209.704 42.4954C209.704 42.6474 209.736 42.7931 209.799 42.9324C209.862 43.0717 209.957 43.2237 210.084 43.3884L208.868 44.2054ZM207.709 44.3574V42.9704H212.307V44.3574H207.709Z" fill="#252525"/>
<rect x="0.5" y="0.5" width="232" height="63.0488" rx="11.5" stroke="#19AA33"/>
</svg>
