<svg width="245" height="65" viewBox="0 0 245 65" fill="none" xmlns="http://www.w3.org/2000/svg">
<rect x="0.5" y="0.5" width="244" height="63.0488" rx="11.5" fill="#F8F9F2"/>
<path d="M45.0265 53.5889H57.7759L63.647 45.4232L64.999 41.7475L57.7243 36.5339L46.9835 35.9926L40.1557 38.8597L37.8354 41.8117L45.0265 53.5889Z" fill="#DDEBCA"/>
<path d="M56.7319 54.0476H36.5543C36.8901 53.8056 36.9714 53.4811 36.937 53.0751C36.8981 52.6106 36.9279 52.1392 36.9279 51.7275C37.4939 51.5222 38.0553 51.3525 38.5847 51.1151C38.6647 51.0815 38.7369 51.0316 38.7967 50.9686C38.8564 50.9056 38.9025 50.8309 38.9319 50.7492C38.9613 50.6675 38.9734 50.5805 38.9675 50.4939C38.9616 50.4072 38.9377 50.3227 38.8975 50.2458C38.7291 49.9224 38.406 49.8272 38.0118 49.982C37.7723 50.076 37.5374 50.1861 37.2922 50.2572C36.3149 50.5405 35.373 50.4235 34.4518 50.0049C34.0267 49.8123 33.6497 49.9453 33.5042 50.2951C33.369 50.6162 33.5329 50.974 33.9236 51.1678C34.142 51.2734 34.367 51.3646 34.5973 51.4408C34.9147 51.5486 35.3742 51.5463 35.5243 51.7631C35.6973 52.0142 35.5999 52.4512 35.6205 52.809C35.6469 53.2597 35.6125 53.7265 36.0364 54.0465H23.6618C23.9986 53.7586 24.1201 53.4341 23.9322 52.9914C23.2786 51.401 22.8245 49.7356 22.5801 48.0335C22.4438 47.1045 22.3659 46.1675 22.2559 45.1847H22.8437C28.0571 45.1847 33.2705 45.1812 38.4839 45.1743C38.6423 45.1611 38.8011 45.1945 38.9408 45.2706C39.0805 45.3466 39.1949 45.4618 39.2699 45.6021C40.7365 47.8603 42.2226 50.1047 43.6996 52.356C44.3229 53.3056 45.1708 53.8802 46.328 53.8836C49.7082 53.8943 53.0883 53.8943 56.4684 53.8836" fill="#19AA33"/>
<path d="M22.3423 16.6691C22.3423 16.6691 23.6027 15.1885 24.509 14.591C25.4153 13.9934 24.509 16.8216 24.509 16.8216L22.3423 16.6691Z" fill="#F5CCA1"/>
<path d="M38.8745 10.008C39.0312 10.0815 39.16 10.2037 39.2415 10.3565C39.3231 10.5092 39.3531 10.6843 39.3271 10.8555C39.3065 11.0975 39.3271 11.3429 39.3271 11.586C39.3271 12.5999 39.8061 13.2043 40.8167 13.3534C41.3781 13.4359 41.9625 13.4004 42.5354 13.4096C43.6491 13.4268 44.7685 13.3442 45.8582 13.6584C49.0951 14.5851 51.3924 17.6346 51.4005 21.0683C51.4112 25.6841 51.4142 30.2998 51.4096 34.9155C51.4096 35.083 51.4096 35.2504 51.4096 35.3903C52.4523 35.505 53.4526 35.5635 54.4357 35.7264C57.6799 36.2643 60.7632 37.5209 63.46 39.4044C64.2965 39.9778 64.7353 40.8035 65 41.7486V42.8668C64.7594 43.8301 64.1842 44.6157 63.648 45.4243C62.8952 46.5574 62.1584 47.6985 61.4033 48.8339C61.1237 49.2559 60.7674 49.3752 60.434 49.1711C60.0811 48.9543 60.0387 48.5713 60.3297 48.1263C61.2876 46.6652 62.2474 45.2052 63.2091 43.7464C64.0685 42.4355 63.8359 41.2141 62.5296 40.3414C58.9994 37.9823 55.1358 36.6416 50.8596 36.7758C46.8608 36.9008 43.2469 38.2529 39.9837 40.5421C38.9719 41.252 38.8001 42.5433 39.5162 43.6386C40.7204 45.4862 41.9396 47.3246 43.1518 49.1665C43.7029 50.0037 44.2598 50.8375 44.8029 51.6804C45.2097 52.3123 45.77 52.6369 46.5274 52.5979C46.5845 52.593 46.642 52.593 46.6992 52.5979C47.4704 52.6965 48.0054 52.5876 48.293 51.6632C48.5806 50.7388 49.401 50.209 50.3245 49.8821C50.558 49.7969 50.7586 49.64 50.8975 49.4337C52.8346 46.3219 54.7615 43.2036 56.678 40.0787C56.9072 39.7106 57.1948 39.4663 57.652 39.4996C57.8679 39.5114 58.0769 39.5799 58.2579 39.6983C58.439 39.8167 58.5857 39.9807 58.6832 40.1739C58.8848 40.534 58.8058 40.8815 58.6534 41.2428C57.2979 44.4609 55.9562 47.6836 54.5915 50.8982C54.4494 51.2331 54.4265 51.5004 54.6099 51.8157C54.7428 52.0451 54.8012 52.3181 54.8975 52.5818C55.4921 52.5818 56.0799 52.6117 56.6631 52.5727C57.2097 52.5371 57.6233 52.2286 57.9235 51.7699C58.2134 51.3432 58.4873 50.9063 58.7771 50.4796C59.0269 50.1138 59.3787 50.0209 59.6938 50.2113C60.0089 50.4016 60.0937 50.795 59.8462 51.1838C59.5391 51.6666 59.232 52.1518 58.8929 52.614C58.2971 53.4271 57.4847 53.8755 56.4729 53.8755C53.0928 53.8854 49.7127 53.8854 46.3326 53.8755C45.1765 53.8755 44.3274 53.3021 43.7041 52.3479C42.2272 50.0966 40.7399 47.8522 39.2744 45.594C39.1994 45.4537 39.085 45.3384 38.9453 45.2624C38.8057 45.1864 38.6468 45.153 38.4884 45.1662C33.275 45.1807 28.0616 45.1842 22.8482 45.1765H22.2604C22.375 46.1605 22.4483 47.0975 22.5846 48.0253C22.829 49.7275 23.2832 51.3929 23.9367 52.9832C24.12 53.4259 24.0032 53.7494 23.6663 54.0384H23.2366C23.0716 53.8514 22.8413 53.6943 22.7508 53.4752C22.0828 51.8628 21.6104 50.1759 21.3437 48.4508C21.2097 47.593 21.1146 46.7305 21 45.867V20.1577C21.0335 20.0514 21.0614 19.9435 21.0836 19.8343C21.2509 18.6965 21.6826 17.6139 22.344 16.6735C22.5732 16.3432 22.9456 16.2744 23.2446 16.4751C23.5437 16.6758 23.5998 17.013 23.4268 17.3502C23.3919 17.4134 23.3537 17.4746 23.3122 17.5337C22.6351 18.5549 22.2788 19.7555 22.289 20.9812C22.289 26.4861 22.289 31.9891 22.289 37.4903C22.289 37.5866 22.3085 37.6829 22.3211 37.8068C22.713 37.0476 23.0498 36.3159 23.4555 35.6278C23.8611 34.9396 24.3572 34.2687 24.7926 33.5795C24.8821 33.4207 24.9279 33.241 24.9255 33.0588C24.9358 31.7697 24.9416 30.4795 24.9255 29.1893C24.914 28.9527 24.8344 28.7245 24.6964 28.5321C23.2962 26.5928 23.2148 23.9722 24.5738 22.0042C24.9429 21.4625 25.2381 20.8739 25.4514 20.254C25.566 19.9444 25.6806 19.6359 25.7952 19.3274L27.444 14.8168C26.5904 14.9464 25.872 15.2755 25.1822 15.6861C24.7949 15.9155 24.4099 15.834 24.2117 15.5014C24.0261 15.1895 24.1372 14.8236 24.5119 14.592C25.5993 13.9176 26.7703 13.4726 28.0639 13.4313C29.0791 13.3981 30.0965 13.4164 31.1129 13.4073C32.3561 13.3969 33.0298 12.726 33.0309 11.5046C33.0309 11.2901 33.0481 11.0734 33.0309 10.8601C33.005 10.6891 33.0336 10.5143 33.1129 10.3607C33.1921 10.207 33.3178 10.0824 33.4721 10.0045H33.9017C34.0557 10.0978 34.1783 10.2349 34.2539 10.3984C34.3294 10.5619 34.3544 10.7442 34.3257 10.922C34.3128 11.0934 34.3128 11.2655 34.3257 11.4369C34.4036 12.9382 33.7528 13.96 32.3435 14.5014C32.2818 14.5346 32.2289 14.5819 32.1891 14.6396C32.1493 14.6972 32.1236 14.7634 32.1143 14.8328C32.1028 16.6804 32.0639 18.5292 32.1235 20.3745C32.1922 22.5053 33.8891 24.1224 36.0822 24.2497C38.1023 24.3644 40.0696 22.8861 40.2426 20.8263C40.4156 18.7666 40.2804 16.6816 40.2804 14.5794C40.2449 14.5644 40.1659 14.5277 40.0891 14.4991C38.666 13.9715 38.0461 13.085 38.0438 11.5746C38.0438 11.3601 38.0587 11.1433 38.0438 10.93C38.0199 10.7537 38.0461 10.5741 38.1192 10.4119C38.1923 10.2497 38.3095 10.1113 38.4575 10.0125L38.8745 10.008ZM26.2421 32.9659H46.179V30.0184C45.9797 30.1239 45.8353 30.2054 45.6818 30.2811C44.8656 30.7057 43.9582 30.9246 43.0384 30.9187C42.6465 30.9118 42.399 30.6836 42.3761 30.3315C42.3532 29.9794 42.5732 29.7099 42.949 29.6434C43.0636 29.6239 43.1782 29.6308 43.2928 29.6216C45.0814 29.4634 46.4128 28.6032 47.1495 26.9586C47.8863 25.314 47.625 23.7783 46.548 22.3551C46.3661 22.1185 46.2191 21.8571 46.1114 21.5787C45.3013 19.4077 44.5073 17.2298 43.7052 15.0576C43.6548 14.9211 43.515 14.725 43.4062 14.7135C42.8333 14.6803 42.2466 14.6975 41.6336 14.6975C41.6336 14.9131 41.6336 15.0679 41.6336 15.2239C41.6336 16.8433 41.6417 18.4626 41.6279 20.082C41.6294 20.497 41.5872 20.911 41.5019 21.3172C40.8843 24.0697 38.3841 25.79 35.5024 25.4849C32.8889 25.2039 30.8321 22.8586 30.8184 20.1313C30.8104 18.4833 30.8184 16.8352 30.8184 15.1872C30.8184 15.0347 30.8184 14.8821 30.8184 14.694C30.2776 14.694 29.7872 14.7124 29.3082 14.6872C28.9908 14.6711 28.8373 14.764 28.7227 15.084C27.9413 17.263 27.1392 19.4421 26.3291 21.6108C26.2281 21.8768 26.0854 22.1249 25.9063 22.3459C25.2597 23.1336 24.9056 24.1212 24.9044 25.1407C24.9031 26.1603 25.2547 27.1487 25.8995 27.938C26.784 29.0172 27.9378 29.5666 29.3369 29.6228C29.8261 29.6423 30.1149 29.9244 30.0862 30.3201C30.0576 30.7157 29.778 30.9153 29.2922 30.9107C28.4596 30.8971 27.6405 30.6985 26.894 30.3292C26.6935 30.2329 26.4964 30.1297 26.2604 30.0127L26.2421 32.9659ZM22.2913 43.8771H38.1114C38.1087 43.8177 38.0991 43.7589 38.0828 43.7017C37.4102 42.1546 37.927 40.3047 39.5425 39.2495C41.4521 37.9809 43.5365 36.9984 45.7299 36.3331C46.3555 36.1473 46.9903 35.9959 47.6949 35.8101C47.3661 35.3582 47.0854 34.9305 46.7577 34.5486C46.6199 34.3994 46.4298 34.3094 46.2272 34.2974C39.5677 34.2852 32.9083 34.2852 26.2489 34.2974C26.1426 34.302 26.0385 34.3294 25.9436 34.3776C25.8487 34.4259 25.7653 34.494 25.6989 34.5772C25.0115 35.7 24.2942 36.809 23.7293 37.9914C22.8505 39.8218 22.399 41.7853 22.2913 43.876V43.8771ZM50.0954 35.4947C50.1057 35.38 50.1194 35.2929 50.1194 35.2091C50.1194 30.4233 50.1194 25.6386 50.1057 20.8527C50.1045 19.6249 49.7203 18.4281 49.0069 17.4293C48.0375 16.0473 46.7153 15.1906 45.0264 14.8213C45.0389 14.9053 45.0565 14.9884 45.0791 15.0702C45.8269 17.1116 46.5766 19.1519 47.3283 21.191C47.389 21.3359 47.4717 21.4706 47.5735 21.5901C49.204 23.6545 49.2521 26.4276 47.7041 28.5745C47.5889 28.7329 47.5221 28.9214 47.5116 29.117C47.4956 30.4497 47.4979 31.7823 47.5116 33.1138C47.518 33.2813 47.5707 33.4437 47.664 33.5829C48.0708 34.1873 48.4947 34.7825 48.9244 35.3731C48.9908 35.4649 49.1089 35.5796 49.2028 35.5784C49.5015 35.5655 49.7995 35.5376 50.0954 35.4947ZM53.4366 50.3214L56.5692 42.861L56.5016 42.8266L52.2117 49.7778L53.4366 50.3214ZM49.2887 52.5795H53.4663C53.33 51.7882 52.497 51.0978 51.6227 51.0324C50.5285 50.9499 49.6359 51.5267 49.2887 52.5795Z" fill="black"/>
<path d="M24.208 15.5061C24.4063 15.8387 24.7912 15.9224 25.1785 15.6907C25.866 15.2779 26.5867 14.951 27.4403 14.8214L25.7915 19.332C25.677 19.6405 25.5624 19.949 25.4478 20.2587C25.2344 20.8786 24.9392 21.4672 24.5701 22.0088C23.2112 23.9768 23.2925 26.5963 24.6927 28.5368C24.8307 28.7291 24.9103 28.9573 24.9219 29.1939C24.9425 30.483 24.9368 31.7732 24.9219 33.0634C24.9243 33.2457 24.8784 33.4253 24.789 33.5841C24.3535 34.2722 23.8654 34.9305 23.4518 35.6324C23.0382 36.3343 22.7093 37.0499 22.3175 37.8114C22.3049 37.6864 22.2854 37.5901 22.2854 37.4949C22.2854 31.99 22.2854 26.4869 22.2854 20.9858C22.2751 19.7602 22.6315 18.5595 23.3086 17.5383C23.35 17.4793 23.3883 17.418 23.4232 17.3548C23.5962 17.0177 23.524 16.6667 23.241 16.4798" fill="#F5CCA1"/>
<path d="M38.4444 10.008C38.2965 10.1068 38.1793 10.2452 38.1061 10.4074C38.033 10.5696 38.0069 10.7492 38.0308 10.9255C38.0491 11.1388 38.0308 11.3544 38.0308 11.5701C38.0308 13.0816 38.6529 13.967 40.076 14.4946C40.1551 14.5244 40.2319 14.5599 40.2674 14.5748C40.2674 16.677 40.4026 18.762 40.2296 20.8218C40.0566 22.8816 38.0892 24.3622 36.0692 24.2452C33.8761 24.1179 32.1734 22.5008 32.1104 20.3699C32.0508 18.5246 32.0898 16.6759 32.1012 14.8283C32.1106 14.7589 32.1362 14.6926 32.1761 14.635C32.2159 14.5774 32.2688 14.5301 32.3304 14.4969C33.7397 13.9544 34.3928 12.9337 34.3126 11.4324C34.2998 11.261 34.2998 11.0889 34.3126 10.9175C34.3414 10.7397 34.3164 10.5573 34.2408 10.3939C34.1653 10.2304 34.0427 10.0932 33.8887 10L38.4444 10.008Z" fill="#F5CCA1"/>
<path d="M36.0384 54.0476C35.6144 53.7311 35.6477 53.2608 35.6225 52.8101C35.6018 52.4534 35.6992 52.0153 35.5262 51.7642C35.3761 51.5474 34.9167 51.5509 34.5993 51.4419C34.369 51.3657 34.1439 51.2745 33.9255 51.169C33.5348 50.9751 33.3698 50.6173 33.5062 50.2962C33.6528 49.9521 34.0275 49.8134 34.4538 50.006C35.3704 50.4246 36.3168 50.5416 37.2942 50.2583C37.5405 50.1872 37.7754 50.0783 38.0138 49.9831C38.4079 49.8271 38.731 49.9223 38.8995 50.2469C38.9397 50.3238 38.9635 50.4083 38.9694 50.495C38.9754 50.5816 38.9632 50.6686 38.9338 50.7503C38.9044 50.832 38.8584 50.9068 38.7986 50.9697C38.7389 51.0327 38.6667 51.0826 38.5867 51.1162C38.0573 51.3547 37.4959 51.5233 36.9298 51.7286C36.9298 52.1404 36.9 52.6106 36.939 53.0762C36.9734 53.4822 36.892 53.8056 36.5563 54.0487L36.0384 54.0476Z" fill="black"/>
<path d="M21 45.8762C21.1146 46.7375 21.2085 47.5965 21.3437 48.4601C21.6097 50.1847 22.0813 51.8712 22.7485 53.4834C22.839 53.7013 23.0693 53.8607 23.2343 54.0465H21V45.8762Z" fill="white"/>
<path d="M47.5481 39.7922C47.5343 39.3334 47.7177 39.0903 48.0671 39.0238C48.1445 39.0024 48.2255 38.9976 48.3048 39.0096C48.3842 39.0216 48.4601 39.0501 48.5277 39.0934C48.5954 39.1366 48.6532 39.1936 48.6974 39.2607C48.7416 39.3277 48.7712 39.4033 48.7844 39.4825C48.9133 40.0233 49.0124 40.5708 49.0812 41.1225C49.0948 41.2014 49.0921 41.2823 49.0732 41.36C49.0544 41.4378 49.0197 41.5109 48.9715 41.5748C48.9233 41.6387 48.8625 41.6919 48.7928 41.7313C48.7232 41.7707 48.6462 41.7954 48.5667 41.8038C48.4889 41.8225 48.4082 41.8254 48.3293 41.8124C48.2503 41.7993 48.1748 41.7706 48.1072 41.7278C48.0396 41.685 47.9812 41.6291 47.9355 41.5634C47.8899 41.4976 47.8579 41.4234 47.8414 41.345C47.7039 40.806 47.6317 40.2521 47.5481 39.7922Z" fill="black"/>
<path d="M61.3447 41.8346C61.2909 41.9907 61.2289 42.1438 61.1591 42.2933C60.9368 42.6913 60.7145 43.0961 60.4716 43.4792C60.2207 43.8875 59.8712 44.001 59.54 43.8037C59.2089 43.6065 59.1321 43.2441 59.3625 42.8335C59.5928 42.4229 59.8414 41.9894 60.0946 41.572C60.2665 41.2933 60.5529 41.1809 60.8325 41.3208C61.0468 41.4412 61.1912 41.6706 61.3447 41.8346Z" fill="black"/>
<path d="M45.2254 39.8734C45.3239 39.972 45.5691 40.1211 45.6665 40.3322C45.8694 40.7878 46.0431 41.2559 46.1867 41.7336C46.3116 42.1144 46.1466 42.4561 45.8143 42.5743C45.6562 42.6263 45.4842 42.6163 45.3332 42.5463C45.1822 42.4762 45.0634 42.3514 45.0008 42.197C44.7979 41.7093 44.6197 41.2117 44.4669 40.706C44.3363 40.2702 44.6422 39.8757 45.2254 39.8734Z" fill="black"/>
<path d="M42.2819 41.2784C42.3701 41.345 42.5913 41.4413 42.7058 41.611C42.9786 42.0285 43.2303 42.4595 43.4598 42.9024C43.6523 43.2602 43.5606 43.6157 43.2593 43.8004C42.9579 43.985 42.597 43.9151 42.3713 43.5618C42.0825 43.1187 41.8197 42.6592 41.5841 42.1856C41.3687 41.7521 41.6735 41.2842 42.2819 41.2784Z" fill="black"/>
<path d="M53.7156 41.0101C53.7969 40.5651 53.8794 40.0295 53.9975 39.5019C54.0765 39.1476 54.3412 38.9801 54.6976 39.0157C54.7798 39.0248 54.8594 39.0504 54.9316 39.0909C55.0038 39.1314 55.0672 39.186 55.1179 39.2515C55.1687 39.3169 55.2058 39.3919 55.227 39.4719C55.2483 39.552 55.2534 39.6355 55.2418 39.7175C55.1685 40.2531 55.0757 40.7887 54.9542 41.3151C54.9187 41.478 54.8205 41.6203 54.6809 41.7111C54.5412 41.802 54.3714 41.834 54.2083 41.8003C53.8588 41.7062 53.695 41.4642 53.7156 41.0101Z" fill="black"/>
<path d="M52.0306 40.1189C52.0306 40.3758 52.0397 40.6338 52.0306 40.8896C52.0134 41.2543 51.8175 41.4722 51.4519 41.5112C51.3697 41.5237 51.2858 41.519 51.2054 41.4973C51.1251 41.4756 51.0502 41.4373 50.9855 41.3849C50.9208 41.3326 50.8677 41.2673 50.8297 41.1933C50.7916 41.1192 50.7694 41.038 50.7645 40.9549C50.7294 40.385 50.7316 39.8134 50.7713 39.2438C50.7977 38.8917 51.0589 38.6841 51.4267 38.7048C51.5061 38.7026 51.5851 38.7166 51.6588 38.7459C51.7326 38.7753 51.7996 38.8193 51.8558 38.8755C51.912 38.9316 51.9561 38.9986 51.9856 39.0724C52.0151 39.1461 52.0292 39.2252 52.0271 39.3046C52.0443 39.5752 52.0271 39.8471 52.0271 40.1177L52.0306 40.1189Z" fill="black"/>
<path d="M26.2418 32.9659V30.0208C26.4767 30.1354 26.6749 30.241 26.8754 30.3373C27.6219 30.7065 28.441 30.9051 29.2736 30.9187C29.7594 30.9187 30.0401 30.7135 30.0676 30.3281C30.0951 29.9428 29.8064 29.6503 29.3182 29.6308C27.9238 29.5746 26.77 29.0241 25.8808 27.9461C25.2361 27.1568 24.8845 26.1683 24.8857 25.1488C24.887 24.1293 25.2411 23.1417 25.8877 22.354C26.0668 22.133 26.2095 21.8848 26.3105 21.6188C27.1194 19.4478 27.9227 17.2734 28.7041 15.092C28.8187 14.7721 28.9734 14.6792 29.2896 14.6952C29.7731 14.7193 30.259 14.7021 30.7998 14.7021C30.7998 14.8902 30.7998 15.0462 30.7998 15.1952C30.7998 16.8433 30.7929 18.4913 30.7998 20.1394C30.8135 22.8666 32.8714 25.212 35.4838 25.4929C38.3655 25.8026 40.8691 24.0731 41.4832 21.3252C41.5685 20.9191 41.6108 20.5051 41.6093 20.0901C41.623 18.4707 41.615 16.8513 41.615 15.2319C41.615 15.076 41.615 14.9211 41.615 14.7055C42.2269 14.7055 42.8089 14.6883 43.3876 14.7216C43.4953 14.7273 43.6351 14.9234 43.6866 15.0656C44.4944 17.2378 45.2907 19.4157 46.0928 21.5867C46.2004 21.8651 46.3475 22.1266 46.5294 22.3631C47.6064 23.7864 47.8642 25.3335 47.1309 26.9667C46.3976 28.5998 45.0719 29.4645 43.2833 29.6285C43.1687 29.6388 43.0541 29.6285 42.9396 29.6503C42.566 29.7157 42.3449 29.9852 42.3667 30.3384C42.3884 30.6917 42.6371 30.9199 43.0289 30.9256C43.9488 30.9315 44.8561 30.7127 45.6723 30.288C45.8235 30.2123 45.9702 30.1309 46.1696 30.0253V32.9728L26.2418 32.9659Z" fill="#19AA33"/>
<path d="M22.291 43.876C22.3987 41.7876 22.8502 39.8218 23.7279 37.9857C24.2927 36.8033 25.0157 35.692 25.6975 34.5715C25.7639 34.4882 25.8473 34.4202 25.9422 34.3719C26.037 34.3236 26.1411 34.2963 26.2475 34.2917C32.9069 34.2771 39.5663 34.2771 46.2257 34.2917C46.4283 34.3037 46.6184 34.3937 46.7562 34.5428C47.0851 34.9305 47.3658 35.3582 47.6935 35.8044C46.99 35.9902 46.354 36.1415 45.7284 36.3273C43.5351 36.9927 41.4506 37.9752 39.5411 39.2438C37.9255 40.3001 37.4087 42.15 38.0813 43.6959C38.0976 43.7531 38.1072 43.812 38.11 43.8714L22.291 43.876ZM36.8106 40.4928C36.8156 40.3277 36.7556 40.1672 36.6435 40.046C36.5314 39.9248 36.3762 39.8525 36.2114 39.8448C36.1263 39.8394 36.041 39.851 35.9604 39.8791C35.8799 39.9072 35.8058 39.9511 35.7425 40.0083C35.6792 40.0655 35.6279 40.1347 35.5918 40.212C35.5556 40.2893 35.5353 40.3731 35.5319 40.4583C35.5316 40.631 35.599 40.7968 35.7197 40.9202C35.8403 41.0435 36.0046 41.1145 36.177 41.1178C36.3421 41.1138 36.4994 41.0472 36.6171 40.9313C36.7348 40.8154 36.804 40.659 36.8106 40.4939V40.4928Z" fill="#F5CCA1"/>
<path d="M50.0951 35.4948C49.7976 35.5378 49.4982 35.5657 49.1979 35.5785C49.104 35.5785 48.986 35.4638 48.9195 35.3732C48.4921 34.7826 48.0693 34.1873 47.6591 33.583C47.5659 33.4438 47.5131 33.2814 47.5067 33.1139C47.4953 31.7812 47.493 30.4486 47.5067 29.1171C47.5172 28.9214 47.584 28.733 47.6992 28.5746C49.2472 26.4277 49.1991 23.6534 47.5686 21.5902C47.4668 21.4706 47.3841 21.336 47.3234 21.1911C46.5687 19.1527 45.819 17.1125 45.0742 15.0703C45.0516 14.9885 45.034 14.9054 45.0215 14.8214C46.7161 15.1907 48.0327 16.0474 49.002 17.4294C49.7155 18.4282 50.0996 19.625 50.1008 20.8528C50.118 25.6386 50.1123 30.4233 50.1146 35.2092C50.1192 35.2929 50.1054 35.3755 50.0951 35.4948Z" fill="#F5CCA1"/>
<path d="M53.4365 50.3214L52.207 49.7778L56.4969 42.8267L56.5645 42.8611L53.4365 50.3214Z" fill="#F8F9F2"/>
<path d="M49.2886 52.5796C49.6323 51.5268 50.5283 50.9488 51.6226 51.0325C52.4968 51.099 53.3298 51.7895 53.4662 52.5796H49.2886Z" fill="#F8F9F2"/>
<path d="M36.8109 40.494C36.8046 40.6593 36.7355 40.816 36.6178 40.9321C36.5001 41.0482 36.3426 41.1151 36.1773 41.119C36.0049 41.1157 35.8406 41.0448 35.72 40.9214C35.5993 40.7981 35.5319 40.6322 35.5322 40.4596C35.5356 40.3743 35.5559 40.2906 35.5921 40.2133C35.6283 40.136 35.6795 40.0667 35.7428 40.0095C35.8061 39.9523 35.8802 39.9084 35.9607 39.8804C36.0413 39.8523 36.1266 39.8406 36.2117 39.846C36.3765 39.8538 36.5317 39.926 36.6438 40.0472C36.7559 40.1685 36.8159 40.3289 36.8109 40.494Z" fill="black"/>
<path d="M81.4408 38.5244C80.3641 38.5244 79.4774 38.3534 78.7808 38.0114C78.0841 37.6694 77.5648 37.1501 77.2227 36.4534C76.8934 35.7567 76.7288 34.8764 76.7288 33.8124C76.7288 32.7484 76.8934 31.8617 77.2227 31.1524C77.5648 30.4304 78.0841 29.8921 78.7808 29.5374C79.4774 29.1701 80.3641 28.9864 81.4408 28.9864H85.7347V37.3274H83.1888V30.6394L83.8158 31.1904H81.4408C80.9214 31.1904 80.5034 31.2537 80.1868 31.3804C79.8701 31.4944 79.6358 31.7414 79.4838 32.1214C79.3444 32.4887 79.2748 33.0524 79.2748 33.8124C79.2748 34.5344 79.3381 35.0791 79.4648 35.4464C79.6041 35.8011 79.8321 36.0354 80.1488 36.1494C80.4654 36.2634 80.8961 36.3204 81.4408 36.3204H87.7298V38.5244H81.4408ZM87.7298 38.5244V36.3204C87.8818 36.3204 87.9831 36.4217 88.0338 36.6244C88.0844 36.8144 88.1098 37.0804 88.1098 37.4224C88.1098 37.7517 88.0844 38.0177 88.0338 38.2204C87.9831 38.4231 87.8818 38.5244 87.7298 38.5244ZM79.1228 27.8464V25.6804H81.6688V27.8464H79.1228ZM81.7258 27.8464V25.6804H84.2718V27.8464H81.7258ZM93.2804 38.5244V36.3204H95.6554V38.5244H93.2804ZM95.6554 38.5244V36.3204C95.8074 36.3204 95.9088 36.4217 95.9594 36.6244C96.0101 36.8144 96.0354 37.0804 96.0354 37.4224C96.0354 37.7517 96.0101 38.0177 95.9594 38.2204C95.9088 38.4231 95.8074 38.5244 95.6554 38.5244ZM87.7324 38.5244V36.3204H92.2354L90.7534 37.5554V28.9864H93.2804V38.5244H87.7324ZM87.7324 38.5244C87.5804 38.5244 87.4791 38.4231 87.4284 38.2204C87.3778 38.0177 87.3524 37.7517 87.3524 37.4224C87.3524 37.0804 87.3778 36.8144 87.4284 36.6244C87.4791 36.4217 87.5804 36.3204 87.7324 36.3204V38.5244ZM88.4924 42.4764V40.3104H91.0384V42.4764H88.4924ZM91.0954 42.4764V40.3104H93.6414V42.4764H91.0954ZM95.6553 38.5244V36.3204H103.825L102.97 37.0234V33.5084C102.97 32.7484 102.73 32.1721 102.248 31.7794C101.78 31.3867 101.032 31.1904 100.006 31.1904C99.7149 31.1904 99.3159 31.2157 98.8093 31.2664C98.3026 31.3044 97.7516 31.3677 97.1563 31.4564L96.9093 29.4424C97.4539 29.3157 98.0049 29.2081 98.5623 29.1194C99.1323 29.0307 99.6896 28.9864 100.234 28.9864C101.273 28.9864 102.185 29.1701 102.97 29.5374C103.756 29.8921 104.37 30.4051 104.813 31.0764C105.269 31.7477 105.497 32.5584 105.497 33.5084V38.5244H95.6553ZM95.6553 38.5244C95.5033 38.5244 95.4019 38.4231 95.3513 38.2204C95.3006 38.0177 95.2753 37.7517 95.2753 37.4224C95.2753 37.0804 95.3006 36.8144 95.3513 36.6244C95.4019 36.4217 95.5033 36.3204 95.6553 36.3204V38.5244ZM99.3223 42.5714V40.4054H101.868V42.5714H99.3223ZM108.35 38.5244V25.0914H110.877V38.5244H108.35ZM117.004 38.5244V36.3204H119.455V38.5244H117.004ZM113.318 43.2364C113.153 43.2364 112.976 43.2301 112.786 43.2174C112.596 43.2047 112.399 43.1857 112.197 43.1604L112.292 40.9944C112.494 41.0071 112.684 41.0197 112.862 41.0324C113.052 41.0451 113.191 41.0514 113.28 41.0514C113.774 41.0514 114.166 40.8551 114.458 40.4624C114.762 40.0697 114.914 39.5187 114.914 38.8094V28.9864H117.46V38.8094C117.46 39.6707 117.282 40.4371 116.928 41.1084C116.586 41.7797 116.104 42.2991 115.484 42.6664C114.863 43.0464 114.141 43.2364 113.318 43.2364ZM119.455 38.5244V36.3204C119.607 36.3204 119.708 36.4217 119.759 36.6244C119.809 36.8144 119.835 37.0804 119.835 37.4224C119.835 37.7517 119.809 38.0177 119.759 38.2204C119.708 38.4231 119.607 38.5244 119.455 38.5244ZM114.914 27.2384V25.0724H117.46V27.2384H114.914ZM130.69 38.5244V36.3204H132.704V38.5244H130.69ZM119.461 38.5244V36.3204H129.322L128.163 37.3084V33.8124C128.163 33.1284 128.087 32.5964 127.935 32.2164C127.783 31.8237 127.517 31.5514 127.137 31.3994C126.77 31.2347 126.257 31.1524 125.598 31.1524C125.079 31.1524 124.566 31.1904 124.059 31.2664C123.565 31.3297 123.179 31.4184 122.9 31.5324L124.477 30.0504C124.401 30.3417 124.325 30.7091 124.249 31.1524C124.186 31.5957 124.129 32.0707 124.078 32.5774C124.027 33.0714 124.002 33.5591 124.002 34.0404C124.002 34.4837 124.021 34.9461 124.059 35.4274C124.11 35.9087 124.16 36.3331 124.211 36.7004C124.274 37.0677 124.325 37.3211 124.363 37.4604L121.95 38.1254C121.899 37.9481 121.836 37.6567 121.76 37.2514C121.684 36.8461 121.614 36.3647 121.551 35.8074C121.5 35.2501 121.475 34.6611 121.475 34.0404C121.475 33.4071 121.507 32.7991 121.57 32.2164C121.633 31.6211 121.703 31.0891 121.779 30.6204C121.868 30.1391 121.95 29.7527 122.026 29.4614C122.33 29.3474 122.805 29.2334 123.451 29.1194C124.097 29.0054 124.813 28.9484 125.598 28.9484C126.738 28.9484 127.682 29.1067 128.429 29.4234C129.189 29.7401 129.753 30.2531 130.12 30.9624C130.5 31.6717 130.69 32.6281 130.69 33.8314V38.5244H119.461ZM119.461 38.5244C119.309 38.5244 119.208 38.4231 119.157 38.2204C119.106 38.0177 119.081 37.7517 119.081 37.4224C119.081 37.0804 119.106 36.8144 119.157 36.6244C119.208 36.4217 119.309 36.3204 119.461 36.3204V38.5244ZM132.704 38.5244V36.3204C132.856 36.3204 132.957 36.4217 133.008 36.6244C133.059 36.8144 133.084 37.0804 133.084 37.4224C133.084 37.7517 133.059 38.0177 133.008 38.2204C132.957 38.4231 132.856 38.5244 132.704 38.5244ZM134.856 38.5244V25.0914H137.402V38.5244H134.856ZM132.709 38.5244V36.3204H134.856V38.5244H132.709ZM132.709 38.5244C132.557 38.5244 132.456 38.4231 132.405 38.2204C132.354 38.0177 132.329 37.7517 132.329 37.4224C132.329 37.0804 132.354 36.8144 132.405 36.6244C132.456 36.4217 132.557 36.3204 132.709 36.3204V38.5244ZM140.449 38.5244V25.0914H142.976V38.5244H140.449ZM155.844 38.5244C153.805 38.5244 152.253 38.1317 151.189 37.3464C150.125 36.5484 149.593 35.3704 149.593 33.8124C149.593 33.5084 149.612 33.1917 149.65 32.8624C149.688 32.5204 149.732 32.1974 149.783 31.8934C149.846 31.5767 149.903 31.2981 149.954 31.0574C150.005 30.8167 150.043 30.6394 150.068 30.5254L152.538 31.0004C152.5 31.2031 152.449 31.4627 152.386 31.7794C152.323 32.0961 152.266 32.4317 152.215 32.7864C152.164 33.1284 152.139 33.4577 152.139 33.7744C152.139 34.4331 152.278 34.9524 152.557 35.3324C152.836 35.6997 153.26 35.9594 153.83 36.1114C154.4 36.2507 155.116 36.3204 155.977 36.3204H161.05V28.9864H163.596V38.5244H155.844ZM153.925 29.6894V27.5234H156.471V29.6894H153.925ZM156.528 29.6894V27.5234H159.074V29.6894H156.528ZM166.463 38.5244V25.0914H168.99V38.5244H166.463ZM179.563 38.5244V28.9864H182.109V37.5554L180.627 36.3204H184.484V38.5244H179.563ZM175.573 33.0904V30.8674H179.563V33.0904H175.573ZM171.431 43.2364C171.266 43.2364 171.089 43.2301 170.899 43.2174C170.709 43.2047 170.513 43.1857 170.31 43.1604L170.405 40.9944C170.608 41.0071 170.798 41.0197 170.975 41.0324C171.165 41.0451 171.304 41.0514 171.393 41.0514C171.887 41.0514 172.28 40.8551 172.571 40.4624C172.875 40.0697 173.027 39.5187 173.027 38.8094V28.9864H175.573V38.8094C175.573 39.6707 175.396 40.4371 175.041 41.1084C174.699 41.7797 174.218 42.2991 173.597 42.6664C172.976 43.0464 172.254 43.2364 171.431 43.2364ZM184.484 38.5244V36.3204C184.623 36.3204 184.718 36.4217 184.769 36.6244C184.832 36.8144 184.864 37.0804 184.864 37.4224C184.864 37.7517 184.832 38.0177 184.769 38.2204C184.718 38.4231 184.623 38.5244 184.484 38.5244ZM177.169 42.4764V40.3104H179.715V42.4764H177.169ZM179.772 42.4764V40.3104H182.318V42.4764H179.772ZM190.025 38.5244V36.3204H192.4V38.5244H190.025ZM192.4 38.5244V36.3204C192.552 36.3204 192.653 36.4217 192.704 36.6244C192.754 36.8144 192.78 37.0804 192.78 37.4224C192.78 37.7517 192.754 38.0177 192.704 38.2204C192.653 38.4231 192.552 38.5244 192.4 38.5244ZM184.477 38.5244V36.3204H188.98L187.498 37.5554V28.9864H190.025V38.5244H184.477ZM184.477 38.5244C184.325 38.5244 184.223 38.4231 184.173 38.2204C184.122 38.0177 184.097 37.7517 184.097 37.4224C184.097 37.0804 184.122 36.8144 184.173 36.6244C184.223 36.4217 184.325 36.3204 184.477 36.3204V38.5244ZM185.237 42.4764V40.3104H187.783V42.4764H185.237ZM187.84 42.4764V40.3104H190.386V42.4764H187.84ZM192.399 38.5244V36.3204H196.427C196.972 36.3204 197.498 36.2191 198.004 36.0164C198.511 35.8011 198.973 35.5224 199.391 35.1804C199.822 34.8257 200.196 34.4394 200.512 34.0214C200.842 33.5907 201.095 33.1537 201.272 32.7104C201.462 32.2671 201.557 31.8491 201.557 31.4564V30.2404L202.773 32.2544C202.115 31.8997 201.443 31.6337 200.759 31.4564C200.075 31.2791 199.423 31.1904 198.802 31.1904C198.194 31.1904 197.542 31.2791 196.845 31.4564C196.161 31.6337 195.496 31.8997 194.85 32.2544L196.066 30.2404V31.4564C196.066 31.8491 196.155 32.2671 196.332 32.7104C196.522 33.1537 196.776 33.5907 197.092 34.0214C197.409 34.4394 197.783 34.8257 198.213 35.1804C198.644 35.5224 199.113 35.8011 199.619 36.0164C200.126 36.2191 200.645 36.3204 201.177 36.3204H205.091V38.5244H201.975C200.987 38.5244 200.063 38.3661 199.201 38.0494C198.34 37.7327 197.561 37.3147 196.864 36.7954C196.168 36.2634 195.566 35.6871 195.059 35.0664C194.565 34.4331 194.185 33.8061 193.919 33.1854C193.653 32.5521 193.52 31.9757 193.52 31.4564V30.3734C194.065 30.0694 194.641 29.8161 195.249 29.6134C195.87 29.4107 196.484 29.2587 197.092 29.1574C197.713 29.0434 198.283 28.9864 198.802 28.9864C199.334 28.9864 199.904 29.0434 200.512 29.1574C201.12 29.2587 201.728 29.4107 202.336 29.6134C202.957 29.8161 203.54 30.0694 204.084 30.3734V31.4564C204.084 31.9757 203.951 32.5521 203.685 33.1854C203.419 33.8061 203.033 34.4331 202.526 35.0664C202.032 35.6871 201.437 36.2634 200.74 36.7954C200.044 37.3147 199.265 37.7327 198.403 38.0494C197.542 38.3661 196.617 38.5244 195.629 38.5244H192.399ZM192.399 38.5244C192.247 38.5244 192.146 38.4231 192.095 38.2204C192.045 38.0177 192.019 37.7517 192.019 37.4224C192.019 37.0804 192.045 36.8144 192.095 36.6244C192.146 36.4217 192.247 36.3204 192.399 36.3204V38.5244ZM205.091 38.5244V36.3204C205.243 36.3204 205.345 36.4217 205.395 36.6244C205.446 36.8144 205.471 37.0804 205.471 37.4224C205.471 37.7517 205.446 38.0177 205.395 38.2204C205.345 38.4231 205.243 38.5244 205.091 38.5244ZM197.491 27.2384V25.0724H200.037V27.2384H197.491ZM210.639 38.5244V36.3204H213.014V38.5244H210.639ZM213.014 38.5244V36.3204C213.166 36.3204 213.267 36.4217 213.318 36.6244C213.368 36.8144 213.394 37.0804 213.394 37.4224C213.394 37.7517 213.368 38.0177 213.318 38.2204C213.267 38.4231 213.166 38.5244 213.014 38.5244ZM205.091 38.5244V36.3204H209.594L208.112 37.5554V28.9864H210.639V38.5244H205.091ZM205.091 38.5244C204.939 38.5244 204.837 38.4231 204.787 38.2204C204.736 38.0177 204.711 37.7517 204.711 37.4224C204.711 37.0804 204.736 36.8144 204.787 36.6244C204.837 36.4217 204.939 36.3204 205.091 36.3204V38.5244ZM205.851 27.8464V25.6804H208.397V27.8464H205.851ZM208.454 27.8464V25.6804H211V27.8464H208.454ZM215.161 38.5244V25.0914H217.707V38.5244H215.161ZM213.014 38.5244V36.3204H215.161V38.5244H213.014ZM213.014 38.5244C212.862 38.5244 212.76 38.4231 212.71 38.2204C212.659 38.0177 212.634 37.7517 212.634 37.4224C212.634 37.0804 212.659 36.8144 212.71 36.6244C212.76 36.4217 212.862 36.3204 213.014 36.3204V38.5244ZM220.754 38.5244V25.0914H223.281V38.5244H220.754Z" fill="#252525"/>
<rect x="0.5" y="0.5" width="244" height="63.0488" rx="11.5" stroke="#19AA33"/>
</svg>
