<svg width="122" height="60" viewBox="0 0 122 60" fill="none" xmlns="http://www.w3.org/2000/svg">
<path d="M120.133 30C120.133 46.071 107.098 59.1 91.0165 59.1C74.9354 59.1 61.9 46.071 61.9 30C61.9 13.929 74.9354 0.9 91.0165 0.9C107.098 0.9 120.133 13.929 120.133 30Z" fill="white" stroke="#19AA33" stroke-width="1.8"/>
<g clip-path="url(#clip0_47_100)">
<path d="M91.0167 31.2C91.6798 31.2 92.2174 30.6627 92.2174 30C92.2174 29.3372 91.6798 28.8 91.0167 28.8C90.3536 28.8 89.816 29.3372 89.816 30C89.816 30.6627 90.3536 31.2 91.0167 31.2Z" stroke="#19AA33" stroke-width="2" stroke-linecap="round" stroke-linejoin="round"/>
<path d="M91.0167 36C94.3322 36 97.02 33.3137 97.02 30C97.02 26.6863 94.3322 24 91.0167 24C87.7012 24 85.0134 26.6863 85.0134 30C85.0134 33.3137 87.7012 36 91.0167 36Z" stroke="#19AA33" stroke-width="2" stroke-linecap="round" stroke-linejoin="round"/>
<path d="M91.0166 40.8C96.9846 40.8 101.823 35.9647 101.823 30C101.823 24.0353 96.9846 19.2 91.0166 19.2C85.0487 19.2 80.2107 24.0353 80.2107 30C80.2107 35.9647 85.0487 40.8 91.0166 40.8Z" stroke="#19AA33" stroke-width="2" stroke-linecap="round" stroke-linejoin="round"/>
</g>
<path d="M59.6494 30C59.6494 46.071 46.614 59.1 30.5329 59.1C14.4519 59.1 1.41648 46.071 1.41648 30C1.41648 13.929 14.4519 0.9 30.5329 0.9C46.614 0.9 59.6494 13.929 59.6494 30Z" fill="#19AA33" stroke="#19AA33" stroke-width="1.8"/>
<g clip-path="url(#clip1_47_100)">
<path d="M30.5332 31.2C31.1963 31.2 31.7338 30.6627 31.7338 30C31.7338 29.3372 31.1963 28.8 30.5332 28.8C29.8701 28.8 29.3325 29.3372 29.3325 30C29.3325 30.6627 29.8701 31.2 30.5332 31.2Z" stroke="white" stroke-width="2" stroke-linecap="round" stroke-linejoin="round"/>
<path d="M30.5332 36C33.8487 36 36.5365 33.3137 36.5365 30C36.5365 26.6863 33.8487 24 30.5332 24C27.2177 24 24.5299 26.6863 24.5299 30C24.5299 33.3137 27.2177 36 30.5332 36Z" stroke="white" stroke-width="2" stroke-linecap="round" stroke-linejoin="round"/>
<path d="M30.5331 40.8C36.501 40.8 41.339 35.9647 41.339 30C41.339 24.0353 36.501 19.2 30.5331 19.2C24.5652 19.2 19.7272 24.0353 19.7272 30C19.7272 35.9647 24.5652 40.8 30.5331 40.8Z" stroke="white" stroke-width="2" stroke-linecap="round" stroke-linejoin="round"/>
</g>
<defs>
<clipPath id="clip0_47_100">
<rect width="28.8158" height="28.8" fill="white" transform="translate(76.6088 15.6)"/>
</clipPath>
<clipPath id="clip1_47_100">
<rect width="28.8158" height="28.8" fill="white" transform="translate(16.1252 15.6)"/>
</clipPath>
</defs>
</svg>
