<svg width="121" height="60" viewBox="0 0 121 60" fill="none" xmlns="http://www.w3.org/2000/svg">
<path d="M119.679 30C119.679 46.071 106.644 59.1 90.5626 59.1C74.4816 59.1 61.4461 46.071 61.4461 30C61.4461 13.929 74.4816 0.9 90.5626 0.9C106.644 0.9 119.679 13.929 119.679 30Z" fill="white" stroke="#19AA33" stroke-width="1.8"/>
<g clip-path="url(#clip0_47_121)">
<path d="M86.961 21.6H84.5596C83.9228 21.6 83.312 21.8528 82.8617 22.3029C82.4113 22.753 82.1583 23.3635 82.1583 24V38.4C82.1583 39.0365 82.4113 39.6469 82.8617 40.097C83.312 40.5471 83.9228 40.8 84.5596 40.8H96.5662C97.2031 40.8 97.8139 40.5471 98.2642 40.097C98.7145 39.6469 98.9675 39.0365 98.9675 38.4V24C98.9675 23.3635 98.7145 22.753 98.2642 22.3029C97.8139 21.8528 97.2031 21.6 96.5662 21.6H94.1649" stroke="#19AA33" stroke-width="2" stroke-linecap="round" stroke-linejoin="round"/>
<path d="M91.7636 19.2H89.3623C88.036 19.2 86.9609 20.2745 86.9609 21.6C86.9609 22.9254 88.036 24 89.3623 24H91.7636C93.0898 24 94.1649 22.9254 94.1649 21.6C94.1649 20.2745 93.0898 19.2 91.7636 19.2Z" stroke="#19AA33" stroke-width="2" stroke-linecap="round" stroke-linejoin="round"/>
<path d="M86.9609 30H86.9729" stroke="#19AA33" stroke-width="2" stroke-linecap="round" stroke-linejoin="round"/>
<path d="M91.7635 30H94.1649" stroke="#19AA33" stroke-width="2" stroke-linecap="round" stroke-linejoin="round"/>
<path d="M86.9609 34.8H86.9729" stroke="#19AA33" stroke-width="2" stroke-linecap="round" stroke-linejoin="round"/>
<path d="M91.7635 34.8H94.1649" stroke="#19AA33" stroke-width="2" stroke-linecap="round" stroke-linejoin="round"/>
</g>
<ellipse cx="30.0165" cy="30" rx="30.0165" ry="30" fill="#19AA33"/>
<g clip-path="url(#clip1_47_121)">
<path d="M26.4148 21.6H24.0135C23.3766 21.6 22.7658 21.8528 22.3155 22.3029C21.8652 22.753 21.6122 23.3635 21.6122 24V38.4C21.6122 39.0365 21.8652 39.6469 22.3155 40.097C22.7658 40.5471 23.3766 40.8 24.0135 40.8H36.0201C36.657 40.8 37.2677 40.5471 37.7181 40.097C38.1684 39.6469 38.4214 39.0365 38.4214 38.4V24C38.4214 23.3635 38.1684 22.753 37.7181 22.3029C37.2677 21.8528 36.657 21.6 36.0201 21.6H33.6188" stroke="white" stroke-width="2" stroke-linecap="round" stroke-linejoin="round"/>
<path d="M31.2174 19.2H28.8161C27.4899 19.2 26.4148 20.2745 26.4148 21.6C26.4148 22.9254 27.4899 24 28.8161 24H31.2174C32.5436 24 33.6187 22.9254 33.6187 21.6C33.6187 20.2745 32.5436 19.2 31.2174 19.2Z" stroke="white" stroke-width="2" stroke-linecap="round" stroke-linejoin="round"/>
<path d="M26.4148 30H26.4268" stroke="white" stroke-width="2" stroke-linecap="round" stroke-linejoin="round"/>
<path d="M31.2174 30H33.6187" stroke="white" stroke-width="2" stroke-linecap="round" stroke-linejoin="round"/>
<path d="M26.4148 34.8H26.4268" stroke="white" stroke-width="2" stroke-linecap="round" stroke-linejoin="round"/>
<path d="M31.2174 34.8H33.6187" stroke="white" stroke-width="2" stroke-linecap="round" stroke-linejoin="round"/>
</g>
<defs>
<clipPath id="clip0_47_121">
<rect width="28.8158" height="28.8" fill="white" transform="translate(76.155 15.6)"/>
</clipPath>
<clipPath id="clip1_47_121">
<rect width="28.8158" height="28.8" fill="white" transform="translate(15.6089 15.6)"/>
</clipPath>
</defs>
</svg>
