<svg width="225" height="64" viewBox="0 0 225 64" fill="none" xmlns="http://www.w3.org/2000/svg">
<rect x="0.5" y="0.5" width="224" height="63" rx="11.5" fill="#F8F9F2"/>
<path d="M45.0265 53.5645H57.7759L63.647 45.3988L64.999 41.7231L57.7243 36.5095L46.9835 35.9681L40.1557 38.8353L37.8354 41.7873L45.0265 53.5645Z" fill="#DDEBCA"/>
<path d="M56.7319 54.0232H36.5543C36.8901 53.7812 36.9714 53.4567 36.937 53.0507C36.8981 52.5862 36.9279 52.1148 36.9279 51.7031C37.4939 51.4978 38.0553 51.3281 38.5847 51.0907C38.6647 51.0571 38.7369 51.0072 38.7967 50.9442C38.8564 50.8812 38.9025 50.8065 38.9319 50.7248C38.9613 50.6431 38.9734 50.5561 38.9675 50.4695C38.9616 50.3828 38.9377 50.2983 38.8975 50.2214C38.7291 49.8979 38.406 49.8027 38.0118 49.9576C37.7723 50.0516 37.5374 50.1617 37.2922 50.2328C36.3149 50.5161 35.373 50.3991 34.4518 49.9805C34.0267 49.7878 33.6497 49.9209 33.5042 50.2707C33.369 50.5918 33.5329 50.9496 33.9236 51.1434C34.142 51.249 34.367 51.3402 34.5973 51.4164C34.9147 51.5242 35.3742 51.5219 35.5243 51.7387C35.6973 51.9898 35.5999 52.4268 35.6205 52.7846C35.6469 53.2353 35.6125 53.7021 36.0364 54.0221H23.6618C23.9986 53.7342 24.1201 53.4096 23.9322 52.967C23.2786 51.3766 22.8245 49.7112 22.5801 48.0091C22.4438 47.0801 22.3659 46.1431 22.2559 45.1602H22.8437C28.0571 45.1602 33.2705 45.1568 38.4839 45.1499C38.6423 45.1367 38.8011 45.1701 38.9408 45.2461C39.0805 45.3222 39.1949 45.4374 39.2699 45.5777C40.7365 47.8359 42.2226 50.0803 43.6996 52.3316C44.3229 53.2812 45.1708 53.8558 46.328 53.8592C49.7082 53.8699 53.0883 53.8699 56.4684 53.8592" fill="#19AA33"/>
<path d="M22.3423 16.6447C22.3423 16.6447 23.6027 15.1641 24.509 14.5665C25.4153 13.969 24.509 16.7972 24.509 16.7972L22.3423 16.6447Z" fill="#F5CCA1"/>
<path d="M38.8745 9.98354C39.0312 10.057 39.16 10.1793 39.2415 10.332C39.3231 10.4848 39.3531 10.6598 39.3271 10.8311C39.3065 11.0731 39.3271 11.3185 39.3271 11.5616C39.3271 12.5755 39.8061 13.1799 40.8167 13.3289C41.3781 13.4115 41.9625 13.376 42.5354 13.3851C43.6491 13.4023 44.7685 13.3198 45.8582 13.634C49.0951 14.5607 51.3924 17.6102 51.4005 21.0439C51.4112 25.6596 51.4142 30.2754 51.4096 34.8911C51.4096 35.0586 51.4096 35.226 51.4096 35.3659C52.4523 35.4806 53.4526 35.5391 54.4357 35.702C57.6799 36.2399 60.7632 37.4965 63.46 39.38C64.2965 39.9534 64.7353 40.7791 65 41.7241V42.8423C64.7594 43.8057 64.1842 44.5913 63.648 45.3998C62.8952 46.5329 62.1584 47.6741 61.4033 48.8095C61.1237 49.2315 60.7674 49.3508 60.434 49.1467C60.0811 48.9299 60.0387 48.5468 60.3297 48.1019C61.2876 46.6408 62.2474 45.1808 63.2091 43.722C64.0685 42.4111 63.8359 41.1897 62.5296 40.3169C58.9994 37.9578 55.1358 36.6172 50.8596 36.7513C46.8608 36.8764 43.2469 38.2285 39.9837 40.5176C38.9719 41.2276 38.8001 42.5189 39.5162 43.6142C40.7204 45.4618 41.9396 47.3002 43.1518 49.1421C43.7029 49.9793 44.2598 50.813 44.8029 51.656C45.2097 52.2879 45.77 52.6125 46.5274 52.5735C46.5845 52.5686 46.642 52.5686 46.6992 52.5735C47.4704 52.6721 48.0054 52.5632 48.293 51.6388C48.5806 50.7144 49.401 50.1846 50.3245 49.8577C50.558 49.7725 50.7586 49.6156 50.8975 49.4093C52.8346 46.2975 54.7615 43.1791 56.678 40.0543C56.9072 39.6862 57.1948 39.4419 57.652 39.4751C57.8679 39.487 58.0769 39.5555 58.2579 39.6739C58.439 39.7923 58.5857 39.9563 58.6832 40.1495C58.8848 40.5096 58.8058 40.8571 58.6534 41.2184C57.2979 44.4365 55.9562 47.6592 54.5915 50.8738C54.4494 51.2087 54.4265 51.4759 54.6099 51.7913C54.7428 52.0207 54.8012 52.2937 54.8975 52.5574C55.4921 52.5574 56.0799 52.5872 56.6631 52.5483C57.2097 52.5127 57.6233 52.2042 57.9235 51.7454C58.2134 51.3188 58.4873 50.8819 58.7771 50.4552C59.0269 50.0894 59.3787 49.9965 59.6938 50.1869C60.0089 50.3772 60.0937 50.7706 59.8462 51.1594C59.5391 51.6422 59.232 52.1273 58.8929 52.5895C58.2971 53.4027 57.4847 53.8511 56.4729 53.8511C53.0928 53.861 49.7127 53.861 46.3326 53.8511C45.1765 53.8511 44.3274 53.2777 43.7041 52.3235C42.2272 50.0722 40.7399 47.8278 39.2744 45.5696C39.1994 45.4293 39.085 45.314 38.9453 45.238C38.8057 45.162 38.6468 45.1286 38.4884 45.1418C33.275 45.1563 28.0616 45.1598 22.8482 45.1521H22.2604C22.375 46.1361 22.4483 47.0731 22.5846 48.0009C22.829 49.7031 23.2832 51.3684 23.9367 52.9588C24.12 53.4015 24.0032 53.7249 23.6663 54.0139H23.2366C23.0716 53.827 22.8413 53.6699 22.7508 53.4508C22.0828 51.8384 21.6104 50.1515 21.3437 48.4264C21.2097 47.5686 21.1146 46.7061 21 45.8425V20.1333C21.0335 20.027 21.0614 19.9191 21.0836 19.8099C21.2509 18.6721 21.6826 17.5895 22.344 16.6491C22.5732 16.3188 22.9456 16.25 23.2446 16.4507C23.5437 16.6514 23.5998 16.9886 23.4268 17.3258C23.3919 17.3889 23.3537 17.4502 23.3122 17.5093C22.6351 18.5305 22.2788 19.7311 22.289 20.9567C22.289 26.4617 22.289 31.9647 22.289 37.4658C22.289 37.5622 22.3085 37.6585 22.3211 37.7824C22.713 37.0232 23.0498 36.2915 23.4555 35.6033C23.8611 34.9152 24.3572 34.2443 24.7926 33.555C24.8821 33.3963 24.9279 33.2166 24.9255 33.0344C24.9358 31.7453 24.9416 30.4551 24.9255 29.1648C24.914 28.9283 24.8344 28.7001 24.6964 28.5077C23.2962 26.5683 23.2148 23.9478 24.5738 21.9797C24.9429 21.4381 25.2381 20.8495 25.4514 20.2296C25.566 19.92 25.6806 19.6115 25.7952 19.303L27.444 14.7923C26.5904 14.9219 25.872 15.2511 25.1822 15.6617C24.7949 15.891 24.4099 15.8096 24.2117 15.477C24.0261 15.1651 24.1372 14.7992 24.5119 14.5676C25.5993 13.8932 26.7703 13.4482 28.0639 13.4069C29.0791 13.3737 30.0965 13.392 31.1129 13.3828C32.3561 13.3725 33.0298 12.7016 33.0309 11.4802C33.0309 11.2657 33.0481 11.049 33.0309 10.8357C33.005 10.6647 33.0336 10.4899 33.1129 10.3363C33.1921 10.1826 33.3178 10.0579 33.4721 9.9801H33.9017C34.0557 10.0733 34.1783 10.2105 34.2539 10.374C34.3294 10.5374 34.3544 10.7198 34.3257 10.8976C34.3128 11.069 34.3128 11.2411 34.3257 11.4125C34.4036 12.9138 33.7528 13.9356 32.3435 14.477C32.2818 14.5102 32.2289 14.5575 32.1891 14.6151C32.1493 14.6727 32.1236 14.739 32.1143 14.8084C32.1028 16.656 32.0639 18.5047 32.1235 20.35C32.1922 22.4809 33.8891 24.098 36.0822 24.2253C38.1023 24.34 40.0696 22.8617 40.2426 20.8019C40.4156 18.7421 40.2804 16.6571 40.2804 14.5549C40.2449 14.54 40.1659 14.5033 40.0891 14.4747C38.666 13.9471 38.0461 13.0606 38.0438 11.5502C38.0438 11.3357 38.0587 11.1189 38.0438 10.9056C38.0199 10.7293 38.0461 10.5497 38.1192 10.3875C38.1923 10.2253 38.3095 10.0869 38.4575 9.98813L38.8745 9.98354ZM26.2421 32.9415H46.179V29.994C45.9797 30.0995 45.8353 30.181 45.6818 30.2567C44.8656 30.6813 43.9582 30.9002 43.0384 30.8943C42.6465 30.8874 42.399 30.6592 42.3761 30.3071C42.3532 29.955 42.5732 29.6855 42.949 29.619C43.0636 29.5995 43.1782 29.6064 43.2928 29.5972C45.0814 29.4389 46.4128 28.5788 47.1495 26.9342C47.8863 25.2896 47.625 23.7539 46.548 22.3307C46.3661 22.0941 46.2191 21.8326 46.1114 21.5543C45.3013 19.3832 44.5073 17.2053 43.7052 15.0332C43.6548 14.8967 43.515 14.7006 43.4062 14.6891C42.8333 14.6559 42.2466 14.6731 41.6336 14.6731C41.6336 14.8887 41.6336 15.0435 41.6336 15.1995C41.6336 16.8189 41.6417 18.4382 41.6279 20.0576C41.6294 20.4726 41.5872 20.8866 41.5019 21.2928C40.8843 24.0452 38.3841 25.7655 35.5024 25.4605C32.8889 25.1795 30.8321 22.8342 30.8184 20.1069C30.8104 18.4589 30.8184 16.8108 30.8184 15.1628C30.8184 15.0102 30.8184 14.8577 30.8184 14.6696C30.2776 14.6696 29.7872 14.688 29.3082 14.6627C28.9908 14.6467 28.8373 14.7396 28.7227 15.0596C27.9413 17.2386 27.1392 19.4176 26.3291 21.5864C26.2281 21.8524 26.0854 22.1005 25.9063 22.3215C25.2597 23.1092 24.9056 24.0968 24.9044 25.1163C24.9031 26.1358 25.2547 27.1243 25.8995 27.9136C26.784 28.9928 27.9378 29.5422 29.3369 29.5984C29.8261 29.6179 30.1149 29.9 30.0862 30.2957C30.0576 30.6913 29.778 30.8909 29.2922 30.8863C28.4596 30.8727 27.6405 30.6741 26.894 30.3048C26.6935 30.2085 26.4964 30.1053 26.2604 29.9883L26.2421 32.9415ZM22.2913 43.8527H38.1114C38.1087 43.7933 38.0991 43.7345 38.0828 43.6773C37.4102 42.1301 37.927 40.2802 39.5425 39.2251C41.4521 37.9565 43.5365 36.974 45.7299 36.3087C46.3555 36.1229 46.9903 35.9715 47.6949 35.7857C47.3661 35.3338 47.0854 34.906 46.7577 34.5241C46.6199 34.375 46.4298 34.285 46.2272 34.273C39.5677 34.2607 32.9083 34.2607 26.2489 34.273C26.1426 34.2776 26.0385 34.3049 25.9436 34.3532C25.8487 34.4015 25.7653 34.4695 25.6989 34.5528C25.0115 35.6756 24.2942 36.7846 23.7293 37.967C22.8505 39.7974 22.399 41.7608 22.2913 43.8516V43.8527ZM50.0954 35.4703C50.1057 35.3556 50.1194 35.2684 50.1194 35.1847C50.1194 30.3989 50.1194 25.6142 50.1057 20.8283C50.1045 19.6005 49.7203 18.4037 49.0069 17.4049C48.0375 16.0229 46.7153 15.1662 45.0264 14.7969C45.0389 14.8809 45.0565 14.964 45.0791 15.0458C45.8269 17.0872 46.5766 19.1275 47.3283 21.1666C47.389 21.3115 47.4717 21.4461 47.5735 21.5657C49.204 23.6301 49.2521 26.4032 47.7041 28.5501C47.5889 28.7085 47.5221 28.8969 47.5116 29.0926C47.4956 30.4252 47.4979 31.7579 47.5116 33.0894C47.518 33.2569 47.5707 33.4193 47.664 33.5585C48.0708 34.1629 48.4947 34.7581 48.9244 35.3487C48.9908 35.4405 49.1089 35.5552 49.2028 35.554C49.5015 35.5411 49.7995 35.5132 50.0954 35.4703ZM53.4366 50.297L56.5692 42.8366L56.5016 42.8022L52.2117 49.7533L53.4366 50.297ZM49.2887 52.5551H53.4663C53.33 51.7638 52.497 51.0734 51.6227 51.008C50.5285 50.9254 49.6359 51.5023 49.2887 52.5551Z" fill="black"/>
<path d="M24.208 15.4817C24.4063 15.8143 24.7912 15.898 25.1785 15.6663C25.866 15.2534 26.5867 14.9266 27.4403 14.797L25.7915 19.3076C25.677 19.6161 25.5624 19.9246 25.4478 20.2343C25.2344 20.8542 24.9392 21.4428 24.5701 21.9844C23.2112 23.9524 23.2925 26.5718 24.6927 28.5123C24.8307 28.7047 24.9103 28.9329 24.9219 29.1695C24.9425 30.4586 24.9368 31.7488 24.9219 33.039C24.9243 33.2213 24.8784 33.4009 24.789 33.5597C24.3535 34.2478 23.8654 34.9061 23.4518 35.608C23.0382 36.3099 22.7093 37.0255 22.3175 37.787C22.3049 37.662 22.2854 37.5657 22.2854 37.4705C22.2854 31.9656 22.2854 26.4625 22.2854 20.9614C22.2751 19.7358 22.6315 18.5351 23.3086 17.5139C23.35 17.4548 23.3883 17.3936 23.4232 17.3304C23.5962 16.9932 23.524 16.6423 23.241 16.4554" fill="#F5CCA1"/>
<path d="M38.4444 9.98361C38.2965 10.0824 38.1793 10.2208 38.1061 10.383C38.033 10.5452 38.0069 10.7247 38.0308 10.9011C38.0491 11.1144 38.0308 11.33 38.0308 11.5456C38.0308 13.0572 38.6529 13.9426 40.076 14.4701C40.1551 14.5 40.2319 14.5355 40.2674 14.5504C40.2674 16.6526 40.4026 18.7376 40.2296 20.7974C40.0566 22.8572 38.0892 24.3378 36.0692 24.2208C33.8761 24.0935 32.1734 22.4764 32.1104 20.3455C32.0508 18.5002 32.0898 16.6515 32.1012 14.8039C32.1106 14.7345 32.1362 14.6682 32.1761 14.6106C32.2159 14.553 32.2688 14.5057 32.3304 14.4724C33.7397 13.93 34.3928 12.9093 34.3126 11.408C34.2998 11.2366 34.2998 11.0645 34.3126 10.8931C34.3414 10.7153 34.3164 10.5329 34.2408 10.3695C34.1653 10.206 34.0427 10.0688 33.8887 9.97559L38.4444 9.98361Z" fill="#F5CCA1"/>
<path d="M36.0384 54.0232C35.6144 53.7066 35.6477 53.2364 35.6225 52.7857C35.6018 52.429 35.6992 51.9909 35.5262 51.7398C35.3761 51.523 34.9167 51.5265 34.5993 51.4175C34.369 51.3413 34.1439 51.2501 33.9255 51.1445C33.5348 50.9507 33.3698 50.5929 33.5062 50.2718C33.6528 49.9277 34.0275 49.789 34.4538 49.9816C35.3704 50.4002 36.3168 50.5172 37.2942 50.2339C37.5405 50.1628 37.7754 50.0539 38.0138 49.9587C38.4079 49.8027 38.731 49.8979 38.8995 50.2225C38.9397 50.2994 38.9635 50.3839 38.9694 50.4706C38.9754 50.5572 38.9632 50.6442 38.9338 50.7259C38.9044 50.8076 38.8584 50.8823 38.7986 50.9453C38.7389 51.0083 38.6667 51.0582 38.5867 51.0918C38.0573 51.3303 37.4959 51.4989 36.9298 51.7042C36.9298 52.1159 36.9 52.5862 36.939 53.0518C36.9734 53.4578 36.892 53.7812 36.5563 54.0243L36.0384 54.0232Z" fill="black"/>
<path d="M21 45.8518C21.1146 46.7131 21.2085 47.5721 21.3437 48.4357C21.6097 50.1603 22.0813 51.8468 22.7485 53.459C22.839 53.6769 23.0693 53.8363 23.2343 54.0221H21V45.8518Z" fill="white"/>
<path d="M47.5481 39.7677C47.5343 39.309 47.7177 39.0659 48.0671 38.9993C48.1445 38.978 48.2255 38.9732 48.3048 38.9852C48.3842 38.9972 48.4601 39.0257 48.5277 39.069C48.5954 39.1122 48.6532 39.1692 48.6974 39.2363C48.7416 39.3033 48.7712 39.3789 48.7844 39.4581C48.9133 39.9989 49.0124 40.5464 49.0812 41.0981C49.0948 41.177 49.0921 41.2578 49.0732 41.3356C49.0544 41.4134 49.0197 41.4865 48.9715 41.5504C48.9233 41.6142 48.8625 41.6675 48.7928 41.7069C48.7232 41.7463 48.6462 41.7709 48.5667 41.7793C48.4889 41.7981 48.4082 41.801 48.3293 41.788C48.2503 41.7749 48.1748 41.7462 48.1072 41.7034C48.0396 41.6606 47.9812 41.6047 47.9355 41.539C47.8899 41.4732 47.8579 41.399 47.8414 41.3206C47.7039 40.7816 47.6317 40.2276 47.5481 39.7677Z" fill="black"/>
<path d="M61.3447 41.8102C61.2909 41.9662 61.2289 42.1194 61.1591 42.2689C60.9368 42.6669 60.7145 43.0717 60.4716 43.4548C60.2207 43.8631 59.8712 43.9766 59.54 43.7793C59.2089 43.5821 59.1321 43.2197 59.3625 42.8091C59.5928 42.3985 59.8414 41.965 60.0946 41.5475C60.2665 41.2689 60.5529 41.1565 60.8325 41.2964C61.0468 41.4168 61.1912 41.6462 61.3447 41.8102Z" fill="black"/>
<path d="M45.2254 39.849C45.3239 39.9476 45.5691 40.0967 45.6665 40.3077C45.8694 40.7634 46.0431 41.2315 46.1867 41.7092C46.3116 42.09 46.1466 42.4317 45.8143 42.5499C45.6562 42.6019 45.4842 42.5919 45.3332 42.5218C45.1822 42.4518 45.0634 42.3269 45.0008 42.1725C44.7979 41.6849 44.6197 41.1873 44.4669 40.6816C44.3363 40.2458 44.6422 39.8513 45.2254 39.849Z" fill="black"/>
<path d="M42.2819 41.254C42.3701 41.3205 42.5913 41.4169 42.7058 41.5866C42.9786 42.0041 43.2303 42.4351 43.4598 42.878C43.6523 43.2358 43.5606 43.5913 43.2593 43.776C42.9579 43.9606 42.597 43.8907 42.3713 43.5374C42.0825 43.0943 41.8197 42.6348 41.5841 42.1612C41.3687 41.7277 41.6735 41.2598 42.2819 41.254Z" fill="black"/>
<path d="M53.7156 40.9857C53.7969 40.5407 53.8794 40.0051 53.9975 39.4775C54.0765 39.1231 54.3412 38.9557 54.6976 38.9913C54.7798 39.0004 54.8594 39.026 54.9316 39.0665C55.0038 39.107 55.0672 39.1616 55.1179 39.227C55.1687 39.2925 55.2058 39.3675 55.227 39.4475C55.2483 39.5276 55.2534 39.6111 55.2418 39.6931C55.1685 40.2287 55.0757 40.7643 54.9542 41.2907C54.9187 41.4536 54.8205 41.5959 54.6809 41.6867C54.5412 41.7775 54.3714 41.8096 54.2083 41.7758C53.8588 41.6818 53.695 41.4398 53.7156 40.9857Z" fill="black"/>
<path d="M52.0306 40.0944C52.0306 40.3513 52.0397 40.6094 52.0306 40.8651C52.0134 41.2298 51.8175 41.4477 51.4519 41.4867C51.3697 41.4993 51.2858 41.4946 51.2054 41.4729C51.1251 41.4511 51.0502 41.4129 50.9855 41.3605C50.9208 41.3082 50.8677 41.2429 50.8297 41.1689C50.7916 41.0948 50.7694 41.0136 50.7645 40.9305C50.7294 40.3606 50.7316 39.789 50.7713 39.2194C50.7977 38.8673 51.0589 38.6597 51.4267 38.6804C51.5061 38.6782 51.5851 38.6921 51.6588 38.7215C51.7326 38.7508 51.7996 38.7949 51.8558 38.8511C51.912 38.9072 51.9561 38.9742 51.9856 39.048C52.0151 39.1217 52.0292 39.2007 52.0271 39.2802C52.0443 39.5508 52.0271 39.8226 52.0271 40.0933L52.0306 40.0944Z" fill="black"/>
<path d="M26.2418 32.9415V29.9963C26.4767 30.111 26.6749 30.2165 26.8754 30.3129C27.6219 30.6821 28.441 30.8807 29.2736 30.8943C29.7594 30.8943 30.0401 30.689 30.0676 30.3037C30.0951 29.9184 29.8064 29.6259 29.3182 29.6064C27.9238 29.5502 26.77 28.9997 25.8808 27.9217C25.2361 27.1324 24.8845 26.1439 24.8857 25.1244C24.887 24.1049 25.2411 23.1173 25.8877 22.3296C26.0668 22.1086 26.2095 21.8604 26.3105 21.5944C27.1194 19.4234 27.9227 17.2489 28.7041 15.0676C28.8187 14.7476 28.9734 14.6547 29.2896 14.6708C29.7731 14.6949 30.259 14.6777 30.7998 14.6777C30.7998 14.8658 30.7998 15.0217 30.7998 15.1708C30.7998 16.8189 30.7929 18.4669 30.7998 20.115C30.8135 22.8422 32.8714 25.1875 35.4838 25.4685C38.3655 25.7782 40.8691 24.0487 41.4832 21.3008C41.5685 20.8947 41.6108 20.4807 41.6093 20.0656C41.623 18.4463 41.615 16.8269 41.615 15.2075C41.615 15.0516 41.615 14.8967 41.615 14.6811C42.2269 14.6811 42.8089 14.6639 43.3876 14.6972C43.4953 14.7029 43.6351 14.899 43.6866 15.0412C44.4944 17.2134 45.2907 19.3913 46.0928 21.5623C46.2004 21.8407 46.3475 22.1022 46.5294 22.3387C47.6064 23.762 47.8642 25.3091 47.1309 26.9422C46.3976 28.5754 45.0719 29.4401 43.2833 29.6041C43.1687 29.6144 43.0541 29.6041 42.9396 29.6259C42.566 29.6913 42.3449 29.9608 42.3667 30.314C42.3884 30.6673 42.6371 30.8955 43.0289 30.9012C43.9488 30.9071 44.8561 30.6882 45.6723 30.2636C45.8235 30.1879 45.9702 30.1064 46.1696 30.0009V32.9484L26.2418 32.9415Z" fill="#19AA33"/>
<path d="M22.291 43.8516C22.3987 41.7631 22.8502 39.7974 23.7279 37.9613C24.2927 36.7789 25.0157 35.6676 25.6975 34.5471C25.7639 34.4638 25.8473 34.3958 25.9422 34.3475C26.037 34.2992 26.1411 34.2718 26.2475 34.2672C32.9069 34.2527 39.5663 34.2527 46.2257 34.2672C46.4283 34.2793 46.6184 34.3693 46.7562 34.5184C47.0851 34.906 47.3658 35.3338 47.6935 35.78C46.99 35.9657 46.354 36.1171 45.7284 36.3029C43.5351 36.9682 41.4506 37.9508 39.5411 39.2194C37.9255 40.2757 37.4087 42.1256 38.0813 43.6715C38.0976 43.7287 38.1072 43.7876 38.11 43.847L22.291 43.8516ZM36.8106 40.4683C36.8156 40.3032 36.7556 40.1428 36.6435 40.0216C36.5314 39.9004 36.3762 39.8281 36.2114 39.8204C36.1263 39.8149 36.041 39.8266 35.9604 39.8547C35.8799 39.8828 35.8058 39.9267 35.7425 39.9839C35.6792 40.041 35.6279 40.1103 35.5918 40.1876C35.5556 40.2649 35.5353 40.3486 35.5319 40.4339C35.5316 40.6066 35.599 40.7724 35.7197 40.8958C35.8403 41.0191 36.0046 41.0901 36.177 41.0934C36.3421 41.0894 36.4994 41.0227 36.6171 40.9069C36.7348 40.791 36.804 40.6346 36.8106 40.4695V40.4683Z" fill="#F5CCA1"/>
<path d="M50.0951 35.4704C49.7976 35.5134 49.4982 35.5413 49.1979 35.5541C49.104 35.5541 48.986 35.4394 48.9195 35.3488C48.4921 34.7582 48.0693 34.1629 47.6591 33.5585C47.5659 33.4194 47.5131 33.257 47.5067 33.0895C47.4953 31.7568 47.493 30.4242 47.5067 29.0927C47.5172 28.897 47.584 28.7086 47.6992 28.5502C49.2472 26.4033 49.1991 23.629 47.5686 21.5658C47.4668 21.4462 47.3841 21.3116 47.3234 21.1667C46.5687 19.1283 45.819 17.088 45.0742 15.0459C45.0516 14.964 45.034 14.8809 45.0215 14.797C46.7161 15.1663 48.0327 16.023 49.002 17.405C49.7155 18.4037 50.0996 19.6005 50.1008 20.8284C50.118 25.6142 50.1123 30.3989 50.1146 35.1848C50.1192 35.2685 50.1054 35.3511 50.0951 35.4704Z" fill="#F5CCA1"/>
<path d="M53.4365 50.297L52.207 49.7534L56.4969 42.8022L56.5645 42.8367L53.4365 50.297Z" fill="#F8F9F2"/>
<path d="M49.2886 52.5552C49.6323 51.5024 50.5283 50.9244 51.6226 51.0081C52.4968 51.0746 53.3298 51.765 53.4662 52.5552H49.2886Z" fill="#F8F9F2"/>
<path d="M36.8109 40.4696C36.8046 40.6349 36.7355 40.7916 36.6178 40.9077C36.5001 41.0238 36.3426 41.0907 36.1773 41.0946C36.0049 41.0913 35.8406 41.0203 35.72 40.897C35.5993 40.7736 35.5319 40.6078 35.5322 40.4352C35.5356 40.3499 35.5559 40.2661 35.5921 40.1888C35.6283 40.1116 35.6795 40.0423 35.7428 39.9851C35.8061 39.9279 35.8802 39.884 35.9607 39.8559C36.0413 39.8279 36.1266 39.8162 36.2117 39.8216C36.3765 39.8294 36.5317 39.9016 36.6438 40.0228C36.7559 40.144 36.8159 40.3045 36.8109 40.4696Z" fill="black"/>
<path d="M75.9885 38.5V34.187C75.9885 32.933 76.1848 31.926 76.5775 31.166C76.9702 30.3933 77.5528 29.836 78.3255 29.494C79.0982 29.1393 80.0482 28.962 81.1755 28.962C82.3155 28.962 83.2718 29.1393 84.0445 29.494C84.8172 29.836 85.3998 30.3933 85.7925 31.166C86.1852 31.926 86.3815 32.933 86.3815 34.187V38.5H75.9885ZM78.5345 37.436L77.3185 36.296H85.0515L83.8545 37.436V34.244C83.8545 33.484 83.7785 32.8823 83.6265 32.439C83.4745 31.983 83.2022 31.66 82.8095 31.47C82.4295 31.2673 81.8848 31.166 81.1755 31.166C80.4788 31.166 79.9342 31.2673 79.5415 31.47C79.1615 31.66 78.8955 31.983 78.7435 32.439C78.6042 32.8823 78.5345 33.484 78.5345 34.244V37.436ZM78.7435 27.822V25.656H81.2895V27.822H78.7435ZM81.3465 27.822V25.656H83.8925V27.822H81.3465ZM95.6146 38.5V36.296H97.6096V38.5H95.6146ZM87.9006 38.5V36.296H94.7976L93.0686 37.797V34.605C93.0686 33.7057 92.9736 33.009 92.7836 32.515C92.6063 32.021 92.3023 31.6727 91.8716 31.47C91.4536 31.2673 90.8773 31.166 90.1426 31.166H88.6036V28.962H90.1426C91.308 28.962 92.296 29.152 93.1066 29.532C93.93 29.912 94.5506 30.52 94.9686 31.356C95.3993 32.1793 95.6146 33.2623 95.6146 34.605V38.5H87.9006ZM97.6096 38.5V36.296C97.7616 36.296 97.863 36.3973 97.9136 36.6C97.9643 36.79 97.9896 37.056 97.9896 37.398C97.9896 37.7273 97.9643 37.9933 97.9136 38.196C97.863 38.3987 97.7616 38.5 97.6096 38.5ZM97.6055 38.5V36.296H101.633C102.178 36.296 102.704 36.1947 103.21 35.992C103.717 35.7767 104.179 35.498 104.597 35.156C105.028 34.8013 105.402 34.415 105.718 33.997C106.048 33.5663 106.301 33.1293 106.478 32.686C106.668 32.2427 106.763 31.8247 106.763 31.432V30.216L107.979 32.23C107.321 31.8753 106.649 31.6093 105.965 31.432C105.281 31.2547 104.629 31.166 104.008 31.166C103.4 31.166 102.748 31.2547 102.051 31.432C101.367 31.6093 100.702 31.8753 100.056 32.23L101.272 30.216V31.432C101.272 31.8247 101.361 32.2427 101.538 32.686C101.728 33.1293 101.982 33.5663 102.298 33.997C102.615 34.415 102.989 34.8013 103.419 35.156C103.85 35.498 104.319 35.7767 104.825 35.992C105.332 36.1947 105.851 36.296 106.383 36.296H110.297V38.5H107.181C106.193 38.5 105.269 38.3417 104.407 38.025C103.546 37.7083 102.767 37.2903 102.07 36.771C101.374 36.239 100.772 35.6627 100.265 35.042C99.7715 34.4087 99.3915 33.7817 99.1255 33.161C98.8595 32.5277 98.7265 31.9513 98.7265 31.432V30.349C99.2711 30.045 99.8475 29.7917 100.455 29.589C101.076 29.3863 101.69 29.2343 102.298 29.133C102.919 29.019 103.489 28.962 104.008 28.962C104.54 28.962 105.11 29.019 105.718 29.133C106.326 29.2343 106.934 29.3863 107.542 29.589C108.163 29.7917 108.746 30.045 109.29 30.349V31.432C109.29 31.9513 109.157 32.5277 108.891 33.161C108.625 33.7817 108.239 34.4087 107.732 35.042C107.238 35.6627 106.643 36.239 105.946 36.771C105.25 37.2903 104.471 37.7083 103.609 38.025C102.748 38.3417 101.823 38.5 100.835 38.5H97.6055ZM97.6055 38.5C97.4535 38.5 97.3521 38.3987 97.3015 38.196C97.2508 37.9933 97.2255 37.7273 97.2255 37.398C97.2255 37.056 97.2508 36.79 97.3015 36.6C97.3521 36.3973 97.4535 36.296 97.6055 36.296V38.5ZM110.297 38.5V36.296C110.449 36.296 110.551 36.3973 110.601 36.6C110.652 36.79 110.677 37.056 110.677 37.398C110.677 37.7273 110.652 37.9933 110.601 38.196C110.551 38.3987 110.449 38.5 110.297 38.5ZM121.526 38.5V36.296H123.54V38.5H121.526ZM110.297 38.5V36.296H120.158L118.999 37.284V33.788C118.999 33.104 118.923 32.572 118.771 32.192C118.619 31.7993 118.353 31.527 117.973 31.375C117.606 31.2103 117.093 31.128 116.434 31.128C115.915 31.128 115.402 31.166 114.895 31.242C114.401 31.3053 114.015 31.394 113.736 31.508L115.313 30.026C115.237 30.3173 115.161 30.6847 115.085 31.128C115.022 31.5713 114.965 32.0463 114.914 32.553C114.863 33.047 114.838 33.5347 114.838 34.016C114.838 34.4593 114.857 34.9217 114.895 35.403C114.946 35.8843 114.996 36.3087 115.047 36.676C115.11 37.0433 115.161 37.2967 115.199 37.436L112.786 38.101C112.735 37.9237 112.672 37.6323 112.596 37.227C112.52 36.8217 112.45 36.3403 112.387 35.783C112.336 35.2257 112.311 34.6367 112.311 34.016C112.311 33.3827 112.343 32.7747 112.406 32.192C112.469 31.5967 112.539 31.0647 112.615 30.596C112.704 30.1147 112.786 29.7283 112.862 29.437C113.166 29.323 113.641 29.209 114.287 29.095C114.933 28.981 115.649 28.924 116.434 28.924C117.574 28.924 118.518 29.0823 119.265 29.399C120.025 29.7157 120.589 30.2287 120.956 30.938C121.336 31.6473 121.526 32.6037 121.526 33.807V38.5H110.297ZM110.297 38.5C110.145 38.5 110.044 38.3987 109.993 38.196C109.942 37.9933 109.917 37.7273 109.917 37.398C109.917 37.056 109.942 36.79 109.993 36.6C110.044 36.3973 110.145 36.296 110.297 36.296V38.5ZM123.54 38.5V36.296C123.692 36.296 123.793 36.3973 123.844 36.6C123.895 36.79 123.92 37.056 123.92 37.398C123.92 37.7273 123.895 37.9933 123.844 38.196C123.793 38.3987 123.692 38.5 123.54 38.5ZM125.692 38.5V25.067H128.238V38.5H125.692ZM123.545 38.5V36.296H125.692V38.5H123.545ZM123.545 38.5C123.393 38.5 123.292 38.3987 123.241 38.196C123.19 37.9933 123.165 37.7273 123.165 37.398C123.165 37.056 123.19 36.79 123.241 36.6C123.292 36.3973 123.393 36.296 123.545 36.296V38.5ZM131.285 38.5V25.067H133.812V38.5H131.285ZM146.68 38.5C144.641 38.5 143.089 38.1073 142.025 37.322C140.961 36.524 140.429 35.346 140.429 33.788C140.429 33.484 140.448 33.1673 140.486 32.838C140.524 32.496 140.568 32.173 140.619 31.869C140.682 31.5523 140.739 31.2737 140.79 31.033C140.841 30.7923 140.879 30.615 140.904 30.501L143.374 30.976C143.336 31.1787 143.285 31.4383 143.222 31.755C143.159 32.0717 143.102 32.4073 143.051 32.762C143 33.104 142.975 33.4333 142.975 33.75C142.975 34.4087 143.114 34.928 143.393 35.308C143.672 35.6753 144.096 35.935 144.666 36.087C145.236 36.2263 145.952 36.296 146.813 36.296H151.886V28.962H154.432V38.5H146.68ZM144.761 29.665V27.499H147.307V29.665H144.761ZM147.364 29.665V27.499H149.91V29.665H147.364ZM159.826 38.5V36.296H161.992V38.5H159.826ZM157.299 38.5V25.067H159.826V38.5H157.299ZM161.992 38.5V36.296C162.144 36.296 162.245 36.3973 162.296 36.6C162.347 36.79 162.372 37.056 162.372 37.398C162.372 37.7273 162.347 37.9933 162.296 38.196C162.245 38.3987 162.144 38.5 161.992 38.5ZM176.753 38.5V36.296H178.748V38.5H176.753ZM161.99 38.5V36.296H176.354L174.207 38.158V34.168C174.207 33.446 174.112 32.8697 173.922 32.439C173.732 31.9957 173.454 31.6727 173.086 31.47C172.732 31.2673 172.301 31.166 171.794 31.166C171.25 31.166 170.73 31.2737 170.236 31.489C169.755 31.7043 169.305 31.983 168.887 32.325C168.469 32.667 168.083 33.0343 167.728 33.427C167.374 33.8197 167.057 34.1997 166.778 34.567C166.5 34.9217 166.259 35.2257 166.056 35.479L165.486 33.636C165.98 33.0407 166.424 32.496 166.816 32.002C167.209 31.508 167.583 31.071 167.937 30.691C168.305 30.311 168.685 29.9943 169.077 29.741C169.483 29.4877 169.92 29.2977 170.388 29.171C170.87 29.0317 171.427 28.962 172.06 28.962C172.909 28.962 173.631 29.1077 174.226 29.399C174.822 29.6777 175.303 30.064 175.67 30.558C176.05 31.052 176.323 31.6093 176.487 32.23C176.665 32.8507 176.753 33.4967 176.753 34.168V38.5H161.99ZM164.384 36.296V28.962H166.93V36.296H164.384ZM161.99 38.5C161.838 38.5 161.737 38.3987 161.686 38.196C161.636 37.9933 161.61 37.7273 161.61 37.398C161.61 37.056 161.636 36.79 161.686 36.6C161.737 36.3973 161.838 36.296 161.99 36.296V38.5ZM178.748 38.5V36.296C178.9 36.296 179.002 36.3973 179.052 36.6C179.103 36.79 179.128 37.056 179.128 37.398C179.128 37.7273 179.103 37.9933 179.052 38.196C179.002 38.3987 178.9 38.5 178.748 38.5ZM183.438 38.5V36.296H185.433V38.5H183.438ZM180.892 38.5V25.067H183.438V38.5H180.892ZM178.745 38.5V36.296H180.892V38.5H178.745ZM178.745 38.5C178.593 38.5 178.492 38.3987 178.441 38.196C178.39 37.9933 178.365 37.7273 178.365 37.398C178.365 37.056 178.39 36.79 178.441 36.6C178.492 36.3973 178.593 36.296 178.745 36.296V38.5ZM185.433 38.5V36.296C185.585 36.296 185.686 36.3973 185.737 36.6C185.788 36.79 185.813 37.056 185.813 37.398C185.813 37.7273 185.788 37.9933 185.737 38.196C185.686 38.3987 185.585 38.5 185.433 38.5ZM196.065 38.5V36.296H198.06V38.5H196.065ZM185.425 38.5V36.296H194.298L193.519 36.961V30.615L194.165 31.166H191.771C191.213 31.166 190.776 31.2357 190.46 31.375C190.143 31.5143 189.921 31.774 189.795 32.154C189.668 32.5213 189.605 33.047 189.605 33.731C189.605 34.4783 189.668 35.0357 189.795 35.403C189.921 35.7577 190.143 35.9983 190.46 36.125C190.776 36.239 191.213 36.296 191.771 36.296V38.272C190.694 38.272 189.807 38.12 189.111 37.816C188.414 37.512 187.895 37.0307 187.553 36.372C187.223 35.7007 187.059 34.8203 187.059 33.731C187.059 32.6923 187.223 31.8183 187.553 31.109C187.895 30.3997 188.414 29.8677 189.111 29.513C189.807 29.1457 190.694 28.962 191.771 28.962H196.065V38.5H185.425ZM185.425 38.5C185.273 38.5 185.171 38.3987 185.121 38.196C185.07 37.9933 185.045 37.7273 185.045 37.398C185.045 37.056 185.07 36.79 185.121 36.6C185.171 36.3973 185.273 36.296 185.425 36.296V38.5ZM198.06 38.5V36.296C198.212 36.296 198.313 36.3973 198.364 36.6C198.414 36.79 198.44 37.056 198.44 37.398C198.44 37.7273 198.414 37.9933 198.364 38.196C198.313 38.3987 198.212 38.5 198.06 38.5ZM189.833 27.822V25.656H192.379V27.822H189.833ZM192.436 27.822V25.656H194.982V27.822H192.436ZM198.061 38.5V36.296H202.564L201.082 37.531V28.962H203.609V38.5H198.061ZM198.061 38.5C197.909 38.5 197.807 38.3987 197.757 38.196C197.706 37.9933 197.681 37.7273 197.681 37.398C197.681 37.056 197.706 36.79 197.757 36.6C197.807 36.3973 197.909 36.296 198.061 36.296V38.5ZM198.821 27.822V25.656H201.367V27.822H198.821ZM201.424 27.822V25.656H203.97V27.822H201.424Z" fill="#252525"/>
<rect x="0.5" y="0.5" width="224" height="63" rx="11.5" stroke="#19AA33"/>
</svg>
