<svg width="175" height="50" viewBox="0 0 175 50" fill="none" xmlns="http://www.w3.org/2000/svg">
<rect x="1.5" y="1.5" width="172" height="47" rx="23.5" fill="white"/>
<path d="M68.1443 31V28.796H70.1393V31H68.1443ZM62.6723 35.712C61.5703 35.712 60.5823 35.5093 59.7083 35.104C58.847 34.7113 58.1693 34.1603 57.6753 33.451C57.1813 32.7417 56.9343 31.9373 56.9343 31.038C56.9343 30.7847 56.9533 30.449 56.9913 30.031C57.0293 29.613 57.08 29.1443 57.1433 28.625C57.2193 28.1057 57.2953 27.58 57.3713 27.048C57.46 26.5033 57.5423 25.9777 57.6183 25.471L60.1263 25.813C59.987 26.6617 59.8666 27.4407 59.7653 28.15C59.6766 28.8467 59.607 29.442 59.5563 29.936C59.5056 30.43 59.4803 30.791 59.4803 31.019C59.4803 31.5257 59.607 31.9627 59.8603 32.33C60.1136 32.6973 60.4747 32.9823 60.9433 33.185C61.4246 33.4003 62.001 33.508 62.6723 33.508C63.369 33.508 63.9327 33.4067 64.3633 33.204C64.794 33.0013 65.1043 32.7227 65.2943 32.368C65.497 32.0133 65.5983 31.6143 65.5983 31.171V17.567H68.1443V31.171C68.1443 32.083 67.9037 32.881 67.4223 33.565C66.9536 34.249 66.3076 34.7747 65.4843 35.142C64.661 35.522 63.7236 35.712 62.6723 35.712ZM70.1393 31V28.796C70.2913 28.796 70.3927 28.8973 70.4433 29.1C70.494 29.29 70.5193 29.556 70.5193 29.898C70.5193 30.2273 70.494 30.4933 70.4433 30.696C70.3927 30.8987 70.2913 31 70.1393 31ZM75.694 31V28.796H78.069V31H75.694ZM78.069 31V28.796C78.221 28.796 78.3223 28.8973 78.373 29.1C78.4237 29.29 78.449 29.556 78.449 29.898C78.449 30.2273 78.4237 30.4933 78.373 30.696C78.3223 30.8987 78.221 31 78.069 31ZM70.146 31V28.796H74.649L73.167 30.031V21.462H75.694V31H70.146ZM70.146 31C69.994 31 69.8927 30.8987 69.842 30.696C69.7913 30.4933 69.766 30.2273 69.766 29.898C69.766 29.556 69.7913 29.29 69.842 29.1C69.8927 28.8973 69.994 28.796 70.146 28.796V31ZM70.906 34.952V32.786H73.452V34.952H70.906ZM73.509 34.952V32.786H76.055V34.952H73.509ZM87.9108 31V28.796H89.9248V31H87.9108ZM78.0688 31V28.796H86.2388L85.3838 29.499V25.984C85.3838 25.224 85.1432 24.6477 84.6618 24.255C84.1932 23.8623 83.4458 23.666 82.4198 23.666C82.1285 23.666 81.7295 23.6913 81.2228 23.742C80.7162 23.78 80.1652 23.8433 79.5698 23.932L79.3228 21.918C79.8675 21.7913 80.4185 21.6837 80.9758 21.595C81.5458 21.5063 82.1032 21.462 82.6478 21.462C83.6865 21.462 84.5985 21.6457 85.3838 22.013C86.1692 22.3677 86.7835 22.8807 87.2268 23.552C87.6828 24.2233 87.9108 25.034 87.9108 25.984V31H78.0688ZM78.0688 31C77.9168 31 77.8155 30.8987 77.7648 30.696C77.7142 30.4933 77.6888 30.2273 77.6888 29.898C77.6888 29.556 77.7142 29.29 77.7648 29.1C77.8155 28.8973 77.9168 28.796 78.0688 28.796V31ZM89.9248 31V28.796C90.0642 28.796 90.1592 28.8973 90.2098 29.1C90.2732 29.29 90.3048 29.556 90.3048 29.898C90.3048 30.2273 90.2732 30.4933 90.2098 30.696C90.1592 30.8987 90.0642 31 89.9248 31ZM81.7358 35.047V32.881H84.2818V35.047H81.7358ZM105.866 31V28.796H107.88V31H105.866ZM101.097 31C100.578 31 100.059 30.905 99.5393 30.715C99.0326 30.5123 98.564 30.2147 98.1333 29.822L99.6913 28.207C99.9446 28.4097 100.179 28.5617 100.394 28.663C100.622 28.7517 100.857 28.796 101.097 28.796H104.65L103.339 29.993V25.775C103.339 25.5723 103.314 25.2683 103.263 24.863C103.225 24.445 103.162 23.9763 103.073 23.457C102.997 22.925 102.902 22.3867 102.788 21.842L105.296 21.462C105.385 21.918 105.467 22.431 105.543 23.001C105.632 23.5583 105.708 24.0903 105.771 24.597C105.835 25.091 105.866 25.4837 105.866 25.775V31H101.097ZM89.9253 31V28.796H92.6993L92.1293 29.385V23.4H94.6753V31H89.9253ZM94.6753 31V28.796H96.2143C96.6196 28.796 96.93 28.739 97.1453 28.625C97.3606 28.4983 97.5063 28.2513 97.5823 27.884C97.671 27.504 97.7153 26.9403 97.7153 26.193V22.45H100.261V26.193C100.261 27.3203 100.116 28.2387 99.8243 28.948C99.5456 29.6573 99.1086 30.1767 98.5133 30.506C97.918 30.8353 97.1516 31 96.2143 31H94.6753ZM89.9253 31C89.7733 31 89.672 30.8987 89.6213 30.696C89.5706 30.4933 89.5453 30.2273 89.5453 29.898C89.5453 29.556 89.5706 29.29 89.6213 29.1C89.672 28.8973 89.7733 28.796 89.9253 28.796V31ZM107.88 31V28.796C108.032 28.796 108.134 28.8973 108.184 29.1C108.235 29.29 108.26 29.556 108.26 29.898C108.26 30.2273 108.235 30.4933 108.184 30.696C108.134 30.8987 108.032 31 107.88 31ZM107.886 31V28.796H112.389L110.907 30.031V21.462H113.434V31H107.886ZM107.886 31C107.734 31 107.633 30.8987 107.582 30.696C107.532 30.4933 107.506 30.2273 107.506 29.898C107.506 29.556 107.532 29.29 107.582 29.1C107.633 28.8973 107.734 28.796 107.886 28.796V31ZM108.646 20.322V18.156H111.192V20.322H108.646ZM111.249 20.322V18.156H113.795V20.322H111.249Z" fill="#19AA33"/>
<rect x="1.5" y="1.5" width="172" height="47" rx="23.5" stroke="#19AA33" stroke-width="3"/>
</svg>
