<svg width="178" height="178" viewBox="0 0 178 178" fill="none" xmlns="http://www.w3.org/2000/svg">
<g filter="url(#filter0_d_1_192)">
<rect x="18" y="16" width="142" height="142" rx="71" fill="white"/>
<g clip-path="url(#clip0_1_192)">
<g clip-path="url(#clip1_1_192)">
<g filter="url(#filter1_d_1_192)">
<path d="M112.59 63.4267C106.303 57.1367 97.9433 53.67 89.0367 53.6667C70.6833 53.6667 55.7467 68.5967 55.74 86.95C55.7367 92.8167 57.27 98.5434 60.1833 103.59L55.6667 120.333L73.11 116.21C77.9733 118.863 83.4467 120.26 89.02 120.263H89.0333C107.383 120.263 122.32 105.33 122.33 86.98C122.337 78.0834 118.877 69.72 112.59 63.4267ZM105.327 98.8467C104.633 100.79 101.237 102.663 99.71 102.8C98.1833 102.94 96.7533 103.49 89.7267 100.72C81.27 97.3867 75.93 88.7167 75.5167 88.1634C75.1 87.6067 72.12 83.6534 72.12 79.56C72.12 75.4667 74.27 73.4534 75.0333 72.6234C75.7967 71.79 76.6967 71.5834 77.2533 71.5834C77.8067 71.5834 78.3633 71.5834 78.8467 71.6034C79.44 71.6267 80.0967 71.6567 80.72 73.04C81.46 74.6867 83.0767 78.8 83.2833 79.2167C83.49 79.6334 83.63 80.12 83.3533 80.6734C83.0767 81.2267 82.9367 81.5734 82.5233 82.06C82.1067 82.5467 81.65 83.1434 81.2767 83.5167C80.86 83.93 80.4267 84.3834 80.91 85.2134C81.3967 86.0467 83.0633 88.77 85.5367 90.9734C88.7167 93.8067 91.3933 94.6834 92.2267 95.1034C93.06 95.52 93.5433 95.45 94.03 94.8934C94.5167 94.34 96.11 92.4667 96.6633 91.6334C97.2167 90.8 97.7733 90.94 98.5367 91.2167C99.3 91.4934 103.39 93.5067 104.22 93.9234C105.053 94.34 105.607 94.5467 105.813 94.8934C106.02 95.2367 106.02 96.9034 105.327 98.8467Z" fill="#D1EDD6"/>
<path d="M112.59 63.4267C106.303 57.1367 97.9433 53.67 89.0367 53.6667C70.6833 53.6667 55.7467 68.5967 55.74 86.95C55.7367 92.8167 57.27 98.5434 60.1833 103.59L55.6667 120.333L73.11 116.21C77.9733 118.863 83.4467 120.26 89.02 120.263H89.0333C107.383 120.263 122.32 105.33 122.33 86.98C122.337 78.0834 118.877 69.72 112.59 63.4267ZM105.327 98.8467C104.633 100.79 101.237 102.663 99.71 102.8C98.1833 102.94 96.7533 103.49 89.7267 100.72C81.27 97.3867 75.93 88.7167 75.5167 88.1634C75.1 87.6067 72.12 83.6534 72.12 79.56C72.12 75.4667 74.27 73.4534 75.0333 72.6234C75.7967 71.79 76.6967 71.5834 77.2533 71.5834C77.8067 71.5834 78.3633 71.5834 78.8467 71.6034C79.44 71.6267 80.0967 71.6567 80.72 73.04C81.46 74.6867 83.0767 78.8 83.2833 79.2167C83.49 79.6334 83.63 80.12 83.3533 80.6734C83.0767 81.2267 82.9367 81.5734 82.5233 82.06C82.1067 82.5467 81.65 83.1434 81.2767 83.5167C80.86 83.93 80.4267 84.3834 80.91 85.2134C81.3967 86.0467 83.0633 88.77 85.5367 90.9734C88.7167 93.8067 91.3933 94.6834 92.2267 95.1034C93.06 95.52 93.5433 95.45 94.03 94.8934C94.5167 94.34 96.11 92.4667 96.6633 91.6334C97.2167 90.8 97.7733 90.94 98.5367 91.2167C99.3 91.4934 103.39 93.5067 104.22 93.9234C105.053 94.34 105.607 94.5467 105.813 94.8934C106.02 95.2367 106.02 96.9034 105.327 98.8467Z" stroke="#19AA33" stroke-width="3"/>
</g>
</g>
</g>
</g>
<defs>
<filter id="filter0_d_1_192" x="0" y="0" width="178" height="178" filterUnits="userSpaceOnUse" color-interpolation-filters="sRGB">
<feFlood flood-opacity="0" result="BackgroundImageFix"/>
<feColorMatrix in="SourceAlpha" type="matrix" values="0 0 0 0 0 0 0 0 0 0 0 0 0 0 0 0 0 0 127 0" result="hardAlpha"/>
<feMorphology radius="2" operator="dilate" in="SourceAlpha" result="effect1_dropShadow_1_192"/>
<feOffset dy="2"/>
<feGaussianBlur stdDeviation="8"/>
<feComposite in2="hardAlpha" operator="out"/>
<feColorMatrix type="matrix" values="0 0 0 0 0 0 0 0 0 0 0 0 0 0 0 0 0 0 0.067 0"/>
<feBlend mode="normal" in2="BackgroundImageFix" result="effect1_dropShadow_1_192"/>
<feBlend mode="normal" in="SourceGraphic" in2="effect1_dropShadow_1_192" result="shape"/>
</filter>
<filter id="filter1_d_1_192" x="49.5631" y="52.1667" width="78.2669" height="78.2053" filterUnits="userSpaceOnUse" color-interpolation-filters="sRGB">
<feFlood flood-opacity="0" result="BackgroundImageFix"/>
<feColorMatrix in="SourceAlpha" type="matrix" values="0 0 0 0 0 0 0 0 0 0 0 0 0 0 0 0 0 0 127 0" result="hardAlpha"/>
<feOffset dy="4"/>
<feGaussianBlur stdDeviation="2"/>
<feComposite in2="hardAlpha" operator="out"/>
<feColorMatrix type="matrix" values="0 0 0 0 0 0 0 0 0 0 0 0 0 0 0 0 0 0 0.25 0"/>
<feBlend mode="normal" in2="BackgroundImageFix" result="effect1_dropShadow_1_192"/>
<feBlend mode="normal" in="SourceGraphic" in2="effect1_dropShadow_1_192" result="shape"/>
</filter>
<clipPath id="clip0_1_192">
<rect width="80" height="80" fill="white" transform="translate(49 47)"/>
</clipPath>
<clipPath id="clip1_1_192">
<rect width="80" height="80" fill="white" transform="translate(49 47)"/>
</clipPath>
</defs>
</svg>
